<svg xmlns="http://www.w3.org/2000/svg" viewBox="0 0 799.46 799.46"><defs><style>.cls-1{fill:#f20303;}.cls-2{fill:#44f944;}</style></defs><g id="Layer_2" data-name="Layer 2"><g id="Layer_1-2" data-name="Layer 1"><circle class="cls-1" cx="399.73" cy="399.73" r="399.73"/><path class="cls-2" d="M570.23,330.36l-13.79,1.47h0l-15.59,1.65,3.36,2.06L540,337.83l4.37,2.5-5.93,2.26,4.14,4.42-7,2.82,3,3.17,3.46-.36h0s43.66-4.59,44-4.67l12.59-42.78-15-45.25,4.08-14L601,244.57l4.1,3.74,14.43-19.74-.67-8-47.29,5L560,265.17l16.71,45Z"/><path class="cls-2" d="M240.6,407.41l8.18-9.9.71,5.37,3.16-3.35.57,5.39,3.87-2.85,3.16-.34L284,342.17s22.37-2.52,23.66-2.51c-.15,3.88-3.56,36.48-3.56,40.35,0,2,0,4.16.15,6.15l4.87,3.21,2.58-6.87,2,8.1,3.73-5.41,1.29-4.73,2.43,5.91,2.15-3.82,2.3,5.49,3.87-2.7c.29-37,11.33-151.08,11.33-151.08l-3-1.83L333,238.82l-1.15-4.18-4.44,4.63-1.58-6.42-10.19,9-1.87-6.69-9.09-.19S243.18,383.05,233.58,407l7-3.76ZM315.68,261.2l-5.95,60.2L290,323.73Z"/><polygon class="cls-2" points="316.4 508.32 315.69 497.63 299.48 452.76 303.47 432.47 316.77 431.14 322.22 440.74 336.65 421.01 335.99 413.04 294.41 417.46 291.18 420.96 287.58 425.19 278.94 464.08 291.82 508.73 287.33 522.76 276.1 523.96 262.19 525.44 265.8 529.08 259.51 530.97 266.41 533.6 260.3 534.93 266.2 537.13 264.47 539.14 257.21 542.33 260.19 544.12 306.63 539.18 316.4 508.32"/><path class="cls-2" d="M369.78,405.05S311,546.53,303,566.55l5.87-3.14v3.47l6.83-8.27.6,4.49,2.63-2.8.48,4.5,3.23-2.37,2.64-.28,25.8-63.85,21-2.23c-.74,8.33-2.7,27.49-2.7,30.17,0,1.68,0,3.47.12,5.14l4.08,2.68,2.15-5.74,1.68,6.77,3.11-4.52,1.08-4,2,4.93,1.79-3.18,1.92,4.59,3.23-2.26c.24-30.93,9.65-128.73,9.65-128.73ZM379,427l-4.95,50.1-16.32,1.73Z"/><path class="cls-2" d="M439.6,257.22,435.78,262l17.44-1.86L424.05,365.18l.91.91,5.1-5.64,1.78,3.38,4.07-4,1.91,7.57,5.1-6,4.32,3.33c5.35-17.89,25-88,29.75-107.11l19.93-2.14-1.53-3.28,3.95-3.47-5-3.55,8.66-5-5-2.4,3.31-4.68-58.46,6.21-.89,3,7.77,2.61-7.9,2.75,2.17,3.59-7.14,3.43Z"/><path class="cls-2" d="M525.42,451l8.44-2.6-6.65-1.11,7.49-3.48L532,441.21l-2.18.23-10.69,1.14-2.81.3c3.11-12.21,6.31-22.64,7.73-28.33l20-2.12v0l5.56-.6-1.53-3.27,3.95-3.48-5-3.54h0l8.65-5-5-2.41,3.31-4.68-25.72,2.74v0l-3.63.39-18.31,1.94s-29.78,110-35.38,127.62l46.48-4.94h0l.26,0v0l4.89-.52-1.35-2.88,3.47-3.05-4.35-3.12h0l7.6-4.38-4.37-2.11,2.91-4.11-20.08,2.13h0l-5.61.59L511,462.53l3.19-.34,16.64-1.52-6.66-4.44,6.86-2.41Z"/><path class="cls-2" d="M253.61,481l-5.92-2.95,6-4.36L251,471.08l-2.18.23-6.68.71-2.82.3c3.11-12.21,6.31-22.63,7.74-28.32l20-2.12v0l5.55-.6L271,438l3.94-3.47L270,431h0l8.65-5-5-2.4,3.31-4.68-25.72,2.73v0l-3.63.38-18.32,2S199.57,533.92,194,551.59l46.48-4.94h0l.25,0v0l4.88-.52-1.34-2.88,3.47-3.06L243.36,537h0l7.37-3.71-4.13-2.78,2.91-4.12-20.09,2.14h0l-5.61.6L233.91,492l3.2-.34,14.43-1.28,2.84-2.63-5.15-3.2Z"/><path class="cls-2" d="M592.3,382.29l-4.67,5.56L586.41,382l-7.29,6.24-.54-4.67-4.6,3.65s-5.43-2.56-5.52-2.33L564.24,403l-.23,1c-5.65,21.05-25.22,94-30.53,111l-.15.5,46.15-4.91.33,0h0l.26,0v0L585,510l-1.34-2.88,3.46-3.06-4.35-3.11h0l7.6-4.38L586,494.44l2.91-4.12-20.09,2.14h0l-5.61.6,6.72-24.73h0l16.88-62.6Z"/><path class="cls-2" d="M214.77,411.76l-1.85-4.71-3.22-2.76-62.61,6.65v0l6.82,10.83-10.32,2-21.44,78.69h-.09c-5.49,19.53-10.41,38.26-13.57,50.16l-2.25,8.25h0c-.48,1.72-.84,3-1.09,3.78l.88,1.18,4.93-5.47.41,0,1.68,3.2,3.86-3.79.37,0,1.89,7.47,5.21-6.15,6.33,4.78c1.09-3.66,2.7-9.53,4.62-16.72,3.08-11.43,8.51-31.73,12.82-48.51l1.19-.11,17.36-4,32.88-25ZM174.06,474.7,153,481.91l15.92-55.25,18.8-2S178.2,458.57,174.06,474.7Z"/><path class="cls-2" d="M337.21,367.19l4.57-6.92,1.76,6.24.47,1.63,2-1.89,2.92-2.74,1.66,2.26,0,0,.21-.06,3.64-1.08.27.67,3,7.29,12.65-47,3-10.44,7,54.7,18.4-2.1,38.08-138.54-.12.16.1-6.74-4,4.7-1.22-5.82L423.91,233l-.13-9.84-4.6,3.66-3.84-2.94c-.09.26-.18.49-.27.72l-24.18,88.3L392.33,246,389,251l-3.44-5.6,0-.06,0,.07-5.36,10.43-3.53-6.68-4.14,5.48-3.43-6.2-.1-1.08L348.69,320.6,334.8,370.83Z"/><polygon class="cls-2" points="392.36 244.68 392.33 246.03 392.36 245.99 392.36 244.68"/><path class="cls-2" d="M525.71,354.37l5.6-19.87-25.65,2.73,10.1-37.17,3.19-.34,18-1.66,2.83-2.63-5.15-3.2,4.38-3.5-5.92-3,6-4.36-2.67-2.63-2.18.23L524,280.11l-2.82.3c3.11-12.21,6.31-22.63,7.73-28.32l17.1-1.82v0l5.56-.6L550,246.38l4-3.48-5-3.54h0l8.65-5-5-2.41,3.31-4.68-22.86,2.43v0l-3.63.38-18.32,1.95s-29.78,110-35.38,127.62Z"/><path class="cls-2" d="M490.49,399.69,487,397s-15.09,1.66-23.68,2.54c-3.48.36-8.31.84-12.39,1.35-7.79.78-25.3,2.61-25.36,2.61,3.12,5,6,9.69,6,9.69l-8.5,1.71L399.33,522.26l3,7.54,23.94-2.54,15.63-1.66,25.46-30.44,24.92-90.68Zm-45.31,98.13-20.59,10.62L443,423.21l23.43-2.49Z"/><path class="cls-2" d="M689.21,378.2l-3.55-2.72s-16.71,1.83-25.3,2.72c-3.47.35-8.31.83-12.39,1.34l-20.71,2.12-33,119.14,5.2,7.68,23.93-2.54,22.2-2.36,16.91-1.8L691,383ZM646.36,484.29l-24.68,2.83,23.22-85.74,23-2.44Z"/><path class="cls-1" d="M447.27,410.59c-1.39,3.47-.69-1.61-2.65,3.72.26-4.11-1-2.57-3.15,3.17-1.28,1.94-3.59,5.2-3.8,2-1,.13-1.52,1.24-2.68,3.37-1.5,3.86-2.32,4.48-2.32,3,.22-2.42-.46-1.94-2.15,3.17.53-4.18-1.49.26-3,2.44-2.65,5-2.61,5.27-3.44,1.82.72-5.1-1.64,5.47-.94,2.64.26-.78.56,0-1.91,3.88-.34-4.12-4.42,3.77-4.83-.66-.25-1.6-.71-3.4-.47-4.6,1.24-5.42-1.22-.41-1.84-1-1.3,3,.48-1-.41,2.48-1.95,6.87-3,6.42-4.73,1.11-.28-1.46-2.71,6.1-1.65.74-1.16,2.5-1.06,1.33-.42-1.42-.41,1.7-1.06,1.66,0-3-.77,3.26-.21-.07-.59-1.05-.49.57-.65,1.24-.58-.58.63-5.5-.06-3.91-1.29,1.3s-1,3.19-.84,2.4c-.06.23,0-2.93-1.5.71-1.54-2.55-1.37-3.34-4.34.17-.65.1-1.72,2.67-.71-1.64-.06.41-.18,2.79,1.07-2.39,0,.3-3.2-1.59-3.22-1.73,1.15-4.89-.6,2.72-.92,3.83-.34,1.35-1.11,3.86-.93.48-3.27,4.78-1.5-2.75-4.21-.33-.06-1.35-.11-5.35-.1-5.07s.76-2.6-.09-1.06c-2.3,2.84-2,3-2.07-2.86-.25-3.07-1.75-3.08-2.28-2.75-.77,1.06-.47,1.28.4-4,1.07-6.18-2.06,1.5-1.62-3.34-1.35,2.94,1.15-7.77-.68-3.59-1.33,2.07-.65-6.26-2.25-2.56.41-5.55-.57-6.4-1.93-3.78-.89.64-1.09-.28-.73-4.43-1.4,3.41-.07-5.82-.86-4.41.9-5.8-.06.18.8-4.83-.57,1.06-.3-5.14-1.23-1.94,0-.62,2-7.13,2.09-7.53-.27,1,.65-2.36,1.31-4.67,1.49-5.83-.46.67,1.09-4.79.92-2.77,1.61-1.32,2.65-4,1.17-3.15,1.88-7.86,1.9-5.55.48.39,1.26.88,2.79-2.55,1.9-5,3.44-6.59,3.44-2.92.83.17,1.16,2.92,3.5-2.74,2.2-5,1.84-.07,3.6-2.67.08,4.53,4.17-5.76,4.37-1.17,2-3.12,3.73-5.55,4-.84s3.26-2.24,4.66-1.85c.65,3.48,2.28,3.35,4.66-.19,2.72-5,2.45,3,4.65.48,2.07-2.15,3.84-3.18,4.75-.15,2.69-4.58,1.83,5.68,4.42,1.28,2-1.74,2.26,4.72,4.82.33,2-1.81,3.62-3.2,3.8,2.26,2.59-4.73,3.23-1.4,3.63,2.77.65,3.18,2,3.57,3.73,1.47,1.63-1.53.73,7,2.84,2.9,1.05.43,2.72-1,2.82,2.9,1.5-2,1.77,1.86,2.28,3.36,1.54-2.87-.55,7.81,1,4.11,0,2.88,1.23,2.35,1.42,4-.12,2.91-.78,6.63.14,4.53-.92,5.67-.35,5.87.78,2.19-1,5.39.33,3.58-.43,7.3-.28,1.72-2.41,7.41-1.78,4.61-.37,1.48-2,4.89-2.06,4.54S451,408,451.49,404.53c.32-2.67-1,.42-1.79,1.91C449.23,406.51,448.18,409.3,447.27,410.59Z"/><path class="cls-2" d="M441.77,380.36l-2.54,17.73-6.35,7.17L420,406.63l-4.42-6,2.54-17.73,6.34-7.17,12.9-1.37Zm-9.29,15.44,1.67-11.94-1.42-1.93-5.53.59-2.34,2.64-1.67,11.94,1.42,1.93,5.53-.59Z"/><path class="cls-2" d="M415.81,361.08,414,364.17l-.4-3.84-2,3.6-.67-2.29-1.12,2.64s-1.55-1.49-1.57-1.42l-2,14.77-9.14,1-8.37,9.47-2.24,15.62,4.42,6,7.26-.77,5-5.68-.61,5.21,6.39-.68,3-20.87,0,.07,2.9-19.6Zm-12.37,36.28-3.86,4.33-3.55.38-1.78-2.45,1.37-9.46,4.11-4.72,5.49-.59Z"/><path class="cls-2" d="M412.06,387v0Z"/></g></g></svg>