<svg xmlns="http://www.w3.org/2000/svg" viewBox="0 0 1528 1528"><defs><style>.cls-1{fill:#fff;}.cls-2{fill:#ff4df2;}.cls-3{fill:#880ce6;}</style></defs><g id="Camada_2" data-name="Camada 2"><g id="Camada_1-2" data-name="Camada 1"><circle class="cls-1" cx="764" cy="764" r="764"></circle><polygon class="cls-2" points="238 562.97 299.85 562.97 238 501.12 238 562.97"></polygon><polygon class="cls-3" points="238 562.88 238 624.74 299.85 562.88 238 562.88"></polygon><polygon class="cls-3" points="238 841.27 299.85 841.27 238 779.42 238 841.27"></polygon><polygon class="cls-2" points="238 841.18 238 903.03 299.85 841.18 238 841.18"></polygon><polygon class="cls-3" points="485.41 841.18 423.56 841.18 485.41 903.03 485.41 841.18"></polygon><polygon class="cls-2" points="485.41 841.27 485.41 779.42 423.56 841.27 485.41 841.27"></polygon><polygon class="cls-3" points="516.34 841.27 578.19 841.27 516.34 779.42 516.34 841.27"></polygon><polygon class="cls-2" points="516.34 841.18 516.34 903.03 578.19 841.18 516.34 841.18"></polygon><polygon class="cls-2" points="794.77 841.32 794.77 779.46 732.92 841.32 794.77 841.32"></polygon><polygon class="cls-2" points="732.92 903.08 794.77 903.08 732.92 841.23 732.92 903.08"></polygon><polygon class="cls-2" points="794.66 964.66 794.66 902.8 732.81 964.66 794.66 964.66"></polygon><polygon class="cls-3" points="794.73 964.58 732.87 964.58 794.73 1026.44 794.73 964.58"></polygon><polygon class="cls-2" points="732.87 1026.44 794.73 1026.44 732.87 964.58 732.87 1026.44"></polygon><polygon class="cls-3" points="794.73 779.42 794.73 841.27 856.58 779.42 794.73 779.42"></polygon><polygon class="cls-3" points="732.92 779.37 732.92 841.23 794.77 779.37 732.92 779.37"></polygon><polygon class="cls-2" points="856.62 841.27 856.62 779.42 794.77 841.27 856.62 841.27"></polygon><polygon class="cls-3" points="856.53 841.27 918.39 841.27 856.53 779.42 856.53 841.27"></polygon><polygon class="cls-2" points="856.5 841.22 856.57 903.07 918.35 841.15 856.5 841.22"></polygon><polygon class="cls-3" points="856.63 902.87 794.78 902.94 856.7 964.72 856.63 902.87"></polygon><polygon class="cls-3" points="732.86 902.88 732.93 964.74 794.71 902.81 732.86 902.88"></polygon><polygon class="cls-3" points="856.57 964.66 856.64 1026.52 918.43 964.59 856.57 964.66"></polygon><polygon class="cls-2" points="918.43 1026.45 918.36 964.59 856.57 1026.52 918.43 1026.45"></polygon><polygon class="cls-2" points="856.48 964.72 918.33 964.65 856.41 902.87 856.48 964.72"></polygon><polygon class="cls-3" points="794.74 841.14 732.88 841.21 794.8 902.99 794.74 841.14"></polygon><polygon class="cls-2" points="578.19 902.95 516.34 902.95 578.19 964.8 578.19 902.95"></polygon><polygon class="cls-3" points="578.19 903.03 578.19 841.18 516.34 903.03 578.19 903.03"></polygon><polygon class="cls-2" points="578.37 903.03 640.23 903.03 578.37 841.18 578.37 903.03"></polygon><polygon class="cls-3" points="578.37 902.95 578.37 964.8 640.23 902.95 578.37 902.95"></polygon><polygon class="cls-3" points="516.34 964.85 578.19 964.85 516.34 902.99 516.34 964.85"></polygon><polygon class="cls-2" points="516.34 964.76 516.34 1026.61 578.19 964.76 516.34 964.76"></polygon><polygon class="cls-3" points="578.15 1026.61 578.15 964.76 516.3 1026.61 578.15 1026.61"></polygon><polygon class="cls-2" points="578.06 1026.61 639.91 1026.61 578.06 964.76 578.06 1026.61"></polygon><polygon class="cls-2" points="640.14 964.76 640.14 1026.61 701.99 964.76 640.14 964.76"></polygon><polygon class="cls-3" points="640.23 964.76 578.37 964.76 640.23 1026.61 640.23 964.76"></polygon><polygon class="cls-3" points="578.11 779.42 578.11 841.27 639.96 779.42 578.11 779.42"></polygon><polygon class="cls-2" points="578.19 779.42 516.34 779.42 578.19 841.27 578.19 779.42"></polygon><polygon class="cls-2" points="1011.08 779.42 1011.08 841.27 1072.93 779.42 1011.08 779.42"></polygon><polygon class="cls-3" points="1011.17 779.42 949.32 779.42 1011.17 841.27 1011.17 779.42"></polygon><polygon class="cls-3" points="1011.17 1026.79 1011.17 964.93 949.32 1026.79 1011.17 1026.79"></polygon><polygon class="cls-2" points="1011.08 1026.79 1072.93 1026.79 1011.08 964.93 1011.08 1026.79"></polygon><polygon class="cls-2" points="949.4 841.32 1011.25 841.32 949.4 779.46 949.4 841.32"></polygon><polygon class="cls-3" points="949.4 841.23 949.4 903.08 1011.25 841.23 949.4 841.23"></polygon><polygon class="cls-2" points="1011.25 903.08 1011.25 841.23 949.4 903.08 1011.25 903.08"></polygon><polygon class="cls-3" points="1011.25 903.08 1011.25 964.93 1073.11 903.08 1011.25 903.08"></polygon><polygon class="cls-2" points="1073.11 964.93 1073.11 903.08 1011.25 964.93 1073.11 964.93"></polygon><polygon class="cls-3" points="1073.11 964.93 1011.25 964.93 1073.11 1026.79 1073.11 964.93"></polygon><polygon class="cls-2" points="640.18 841.23 640.18 779.37 578.33 841.23 640.18 841.23"></polygon><polygon class="cls-3" points="640.09 841.23 701.95 841.23 640.09 779.37 640.09 841.23"></polygon><polygon class="cls-2" points="299.85 624.74 299.85 562.88 238 624.74 299.85 624.74"></polygon><polygon class="cls-3" points="361.71 686.59 361.71 624.74 299.85 686.59 361.71 686.59"></polygon><polygon class="cls-3" points="299.85 624.74 361.71 624.74 299.85 562.88 299.85 624.74"></polygon><polygon class="cls-3" points="299.85 903.08 299.85 841.23 238 903.08 299.85 903.08"></polygon><polygon class="cls-2" points="299.85 903.08 361.71 903.08 299.85 841.23 299.85 903.08"></polygon><polygon class="cls-2" points="361.71 964.93 361.71 903.08 299.85 964.93 361.71 964.93"></polygon><polygon class="cls-3" points="361.71 964.93 423.56 964.93 361.71 903.08 361.71 964.93"></polygon><polygon class="cls-2" points="361.71 964.93 361.71 1026.79 423.56 964.93 361.71 964.93"></polygon><polygon class="cls-3" points="361.71 964.93 299.85 964.93 361.71 1026.79 361.71 964.93"></polygon><polygon class="cls-3" points="423.56 903.08 423.56 841.23 361.71 903.08 423.56 903.08"></polygon><polygon class="cls-2" points="423.56 903.08 485.41 903.08 423.56 841.23 423.56 903.08"></polygon><polygon class="cls-3" points="423.56 903.08 423.56 964.93 485.41 903.08 423.56 903.08"></polygon><polygon class="cls-2" points="423.56 903.08 361.71 903.08 423.56 964.93 423.56 903.08"></polygon><polygon class="cls-3" points="299.85 903.08 299.85 964.93 361.71 903.08 299.85 903.08"></polygon><polygon class="cls-2" points="299.85 903.08 238 903.08 299.85 964.93 299.85 903.08"></polygon><polygon class="cls-2" points="238 686.59 299.85 686.59 238 624.74 238 686.59"></polygon><polygon class="cls-2" points="299.85 624.74 299.85 686.59 361.71 624.74 299.85 624.74"></polygon><polygon class="cls-3" points="299.85 624.74 238 624.74 299.85 686.59 299.85 624.74"></polygon><polygon class="cls-2" points="299.85 748.45 299.85 686.59 238 748.45 299.85 748.45"></polygon><polygon class="cls-2" points="361.71 686.59 299.85 686.59 361.71 748.45 361.71 686.59"></polygon><polygon class="cls-3" points="238 686.59 238 748.45 299.85 686.59 238 686.59"></polygon><polygon class="cls-3" points="485.41 562.97 423.56 562.97 485.41 501.12 485.41 562.97"></polygon><polygon class="cls-2" points="485.41 563.02 485.41 624.87 423.56 563.02 485.41 563.02"></polygon><polygon class="cls-2" points="516.34 563.02 516.34 501.17 578.19 563.02 516.34 563.02"></polygon><polygon class="cls-3" points="578.24 562.97 578.24 624.83 516.38 562.97 578.24 562.97"></polygon><polygon class="cls-3" points="516.34 624.78 578.19 624.78 516.34 686.64 516.34 624.78"></polygon><polygon class="cls-2" points="516.3 624.83 516.3 562.97 578.15 624.83 516.3 624.83"></polygon><polygon class="cls-2" points="578.19 686.55 516.34 686.55 578.19 624.7 578.19 686.55"></polygon><polygon class="cls-3" points="578.19 686.46 578.19 748.31 516.34 686.46 578.19 686.46"></polygon><polygon class="cls-2" points="578.19 686.46 640.05 686.46 578.19 748.31 578.19 686.46"></polygon><polygon class="cls-3" points="640.05 748.31 578.19 748.31 640.05 686.46 640.05 748.31"></polygon><polygon class="cls-3" points="701.8 563.02 701.61 501.17 639.95 563.21 701.8 563.02"></polygon><polygon class="cls-3" points="701.9 624.69 701.71 562.83 640.05 624.88 701.9 624.69"></polygon><polygon class="cls-2" points="732.83 563.02 794.68 563.02 732.83 501.17 732.83 563.02"></polygon><polygon class="cls-3" points="732.83 562.93 732.83 624.78 794.68 562.93 732.83 562.93"></polygon><polygon class="cls-2" points="732.83 686.5 794.68 686.5 732.83 624.65 732.83 686.5"></polygon><polygon class="cls-3" points="732.83 686.41 732.83 748.27 794.68 686.41 732.83 686.41"></polygon><polygon class="cls-2" points="794.73 748.27 794.73 686.41 732.87 748.27 794.73 748.27"></polygon><polygon class="cls-3" points="794.64 748.27 856.49 748.27 794.64 686.41 794.64 748.27"></polygon><polygon class="cls-3" points="856.45 686.41 856.45 748.27 918.3 686.41 856.45 686.41"></polygon><polygon class="cls-2" points="856.53 686.41 794.68 686.41 856.53 748.27 856.53 686.41"></polygon><polygon class="cls-3" points="1011.17 500.99 949.32 500.99 1011.17 562.84 1011.17 500.99"></polygon><polygon class="cls-2" points="887.78 500.75 887.78 562.61 949.64 500.75 887.78 500.75"></polygon><polygon class="cls-3" points="949.08 562.61 949.08 500.75 887.23 562.61 949.08 562.61"></polygon><polygon class="cls-2" points="949.32 562.93 1011.17 562.93 949.32 501.08 949.32 562.93"></polygon><polygon class="cls-3" points="1165.93 748.11 1165.93 686.25 1104.08 748.11 1165.93 748.11"></polygon><polygon class="cls-3" points="1227.94 748.03 1227.94 686.17 1166.09 748.03 1227.94 748.03"></polygon><polygon class="cls-2" points="1166.17 841.55 1166.17 779.7 1104.32 841.55 1166.17 841.55"></polygon><polygon class="cls-3" points="1165.75 841.55 1103.9 841.55 1165.75 903.4 1165.75 841.55"></polygon><polygon class="cls-2" points="1165.93 965.31 1165.93 903.46 1104.08 965.31 1165.93 965.31"></polygon><polygon class="cls-3" points="1227.89 1027.27 1227.89 965.42 1166.04 1027.27 1227.89 1027.27"></polygon><polygon class="cls-3" points="1166.17 841.23 1228.02 841.23 1166.17 779.37 1166.17 841.23"></polygon><polygon class="cls-2" points="1228.02 779.37 1166.17 779.37 1228.02 841.23 1228.02 779.37"></polygon><polygon class="cls-2" points="1165.92 965.24 1165.92 1027.09 1227.77 965.24 1165.92 965.24"></polygon><polygon class="cls-3" points="1165.68 964.91 1103.83 964.91 1165.68 1026.76 1165.68 964.91"></polygon><polygon class="cls-2" points="1104.22 903.34 1166.07 903.34 1104.22 841.49 1104.22 903.34"></polygon><polygon class="cls-3" points="1103.9 903.58 1103.9 965.43 1165.75 903.58 1103.9 903.58"></polygon><polygon class="cls-3" points="1228.15 841.2 1290 841.2 1228.15 779.34 1228.15 841.2"></polygon><polygon class="cls-2" points="1227.82 841.43 1227.82 903.29 1289.68 841.43 1227.82 841.43"></polygon><polygon class="cls-2" points="1289.68 902.94 1227.82 902.94 1289.68 964.79 1289.68 902.94"></polygon><polygon class="cls-3" points="1290 902.7 1290 840.85 1228.15 902.7 1290 902.7"></polygon><polygon class="cls-3" points="1228.15 965.05 1290 965.05 1228.15 903.2 1228.15 965.05"></polygon><polygon class="cls-2" points="1227.82 965.29 1227.82 1027.14 1289.68 965.29 1227.82 965.29"></polygon><polygon class="cls-2" points="1227.77 686.58 1227.77 748.43 1289.63 686.58 1227.77 686.58"></polygon><polygon class="cls-2" points="1165.77 686.66 1165.77 748.51 1227.62 686.66 1165.77 686.66"></polygon><polygon class="cls-3" points="949.27 562.84 949.27 624.7 1011.12 562.84 949.27 562.84"></polygon><polygon class="cls-2" points="949.32 686.55 1011.17 686.55 949.32 624.7 949.32 686.55"></polygon><polygon class="cls-2" points="1011.21 624.7 1011.21 562.84 949.36 624.7 1011.21 624.7"></polygon><polygon class="cls-3" points="1011.17 624.61 949.32 624.61 1011.17 686.46 1011.17 624.61"></polygon><polygon class="cls-3" points="1228.05 624.7 1228.05 562.84 1166.19 624.7 1228.05 624.7"></polygon><polygon class="cls-2" points="1228 624.61 1166.15 624.61 1228 686.46 1228 624.61"></polygon><polygon class="cls-2" points="1166.15 562.97 1166.15 624.83 1228 562.97 1166.15 562.97"></polygon><polygon class="cls-3" points="1166.19 563.06 1228.05 563.06 1166.19 501.21 1166.19 563.06"></polygon><polygon class="cls-2" points="1227.58 500.73 1165.73 500.73 1227.58 562.58 1227.58 500.73"></polygon><polygon class="cls-3" points="1227.49 500.77 1227.49 562.63 1289.35 500.77 1227.49 500.77"></polygon><polygon class="cls-2" points="1165.73 562.58 1165.73 500.73 1103.88 562.58 1165.73 562.58"></polygon><polygon class="cls-3" points="1166.15 686.25 1228 686.25 1166.15 624.4 1166.15 686.25"></polygon><polygon class="cls-3" points="949.27 686.46 949.27 748.31 1011.12 686.46 949.27 686.46"></polygon><polygon class="cls-3" points="1072.98 562.88 1072.98 501.03 1011.12 562.88 1072.98 562.88"></polygon><polygon class="cls-2" points="1011.12 501.03 1011.12 562.88 1072.98 501.03 1011.12 501.03"></polygon><polygon class="cls-3" points="640.05 686.55 701.9 686.55 640.05 624.7 640.05 686.55"></polygon><polygon class="cls-2" points="640.05 562.84 640.05 624.7 701.9 562.84 640.05 562.84"></polygon><polygon class="cls-3" points="794.68 624.78 732.83 624.78 794.68 686.64 794.68 624.78"></polygon><polygon class="cls-2" points="794.68 624.87 794.68 563.02 732.83 624.87 794.68 624.87"></polygon><polygon class="cls-2" points="701.9 624.78 640.05 624.78 701.9 686.64 701.9 624.78"></polygon><polygon class="cls-2" points="640.05 686.46 640.05 748.31 701.9 686.46 640.05 686.46"></polygon><polygon class="cls-3" points="423.56 624.74 423.56 562.88 485.41 624.74 423.56 624.74"></polygon><polygon class="cls-2" points="361.71 686.59 361.71 624.74 423.56 686.59 361.71 686.59"></polygon><polygon class="cls-2" points="423.56 624.74 361.71 624.74 423.56 562.88 423.56 624.74"></polygon><polygon class="cls-3" points="485.41 686.59 423.56 686.59 485.41 624.74 485.41 686.59"></polygon><polygon class="cls-3" points="423.56 624.74 423.56 686.59 361.71 624.74 423.56 624.74"></polygon><polygon class="cls-2" points="423.56 624.74 485.41 624.74 423.56 686.59 423.56 624.74"></polygon><polygon class="cls-2" points="485.41 686.59 485.41 748.45 423.56 686.59 485.41 686.59"></polygon><polygon class="cls-3" points="361.71 686.59 423.56 686.59 361.71 748.45 361.71 686.59"></polygon><polygon class="cls-3" points="423.56 748.45 423.56 686.59 485.41 748.45 423.56 748.45"></polygon></g></g></svg>