<svg xmlns="http://www.w3.org/2000/svg" viewBox="0 0 1528 1528"><defs><style>.cls-1{fill:#e6ff02;}.cls-2{fill:#f6f7f7;}.cls-3{fill:#1a1f23;}.cls-4{fill:#00dcc4;}.cls-5{fill:#fc5454;}.cls-6{fill:#a03636;}.cls-7{fill:#fdfd00;}</style></defs><g id="Camada_2" data-name="Camada 2"><g id="Camada_1-2" data-name="Camada 1"><circle class="cls-1" cx="764" cy="764" r="764"></circle><path class="cls-2" d="M775.44,500.08H389.27c-2.18,0-4.36.06-6.54.07a23.36,23.36,0,0,0-17,7.36c-6.79,6.83-13.48,13.78-20.47,20.39-6.23,5.88-8.8,12.84-8.79,21.37q.16,164.28.07,328.58,0,62.94,0,125.87c0,8.38,3.15,15.12,10,20.07,5.5,4,11.79,4.16,18.22,4.16q387.53,0,775.05,0c1.82,0,3.64-.06,5.46-.06a23.37,23.37,0,0,0,17-7.37c6.79-6.83,13.48-13.76,20.47-20.39,6.21-5.88,8.8-12.83,8.79-21.37q-.16-165.37-.07-330.76,0-61.85,0-123.69c0-8.38-3.14-15.12-10-20.07-5.33-3.84-11.41-4.16-17.67-4.16Q969.6,500.1,775.44,500.08Z"></path><path class="cls-3" d="M775.44,500.08q194.17,0,388.34,0c6.26,0,12.34.32,17.67,4.16,6.87,5,10,11.69,10,20.07q0,61.85,0,123.69,0,165.38.07,330.76c0,8.54-2.58,15.49-8.79,21.37-7,6.63-13.68,13.56-20.47,20.39a23.37,23.37,0,0,1-17,7.37c-1.82,0-3.64.06-5.46.06q-387.52,0-775,0c-6.43,0-12.72-.19-18.22-4.16-6.86-4.95-10-11.69-10-20.07q0-62.94,0-125.87,0-164.29-.07-328.58c0-8.53,2.56-15.49,8.79-21.37,7-6.61,13.68-13.56,20.47-20.39a23.36,23.36,0,0,1,17-7.36c2.18,0,4.36-.07,6.54-.07ZM1119.5,719.56H386.37c-5.53-1.16-3.71,3.09-3.72,5.43q-.11,125.21-.06,250.39c0,.91.07,1.82,0,2.72-.24,2.81,1,3.87,3.8,3.77,5.08-.19,10.17-.12,15.25-.15h746.54c4.72,0,9.47-.23,14.16.19,4.89.44,6.38-1,6.37-6.18q-.26-125.25-.12-250.51c0-1.45.05-2.91-.07-4.35-.17-2-1.71-1.36-2.89-1.31H1119.5Zm-344-11.31q193.37,0,386.72.12c5.35,0,6.53-1.42,6.52-6.61q-.3-86.1,0-172.2c0-5.19-1.16-6.57-6.49-6.56q-386.73.21-773.44,0c-5,0-6.3,1.19-6.29,6.22q.28,86.1,0,172.19c0,5.36,1.11,7,6.81,7Q582.38,708.11,775.47,708.25Z"></path><path class="cls-4" d="M775.47,708.25q-193.08,0-386.17.14c-5.7,0-6.83-1.6-6.81-7q.28-86.08,0-172.19c0-5,1.33-6.23,6.29-6.22q386.72.18,773.44,0c5.33,0,6.51,1.37,6.49,6.56q-.3,86.1,0,172.2c0,5.19-1.17,6.62-6.52,6.61Q968.84,708.13,775.47,708.25Zm-69.26-69.54-.1-.1c0,6.35.17,12.7,0,19-.07,2.92.58,4.15,3.85,4.13,20.7-.13,41.4-.1,62.1,0,2.76,0,3.82-.78,3.81-3.69q-.15-31,0-62c0-3.36-1.44-3.9-4.26-3.83-5.08.14-10.17-.07-15.25.08-2.84.08-3.87-1-3.79-3.8.15-5.08-.05-10.16.08-15.24.06-2.64-.56-4-3.6-3.94q-19.61.19-39.22,0c-2.82,0-3.84.86-3.74,3.73.19,5.25,0,10.52.1,15.78.07,2.59-.84,3.53-3.44,3.46-5.08-.14-10.18.1-15.25-.09-3.11-.11-4.56.58-4.51,4.14.2,12.88.18,25.76,0,38.64,0,3.21,1.14,4,4.11,3.91C693.5,638.67,699.85,638.75,706.21,638.71ZM452,615.39c0,9.44-.09,18.89,0,28.33.08,5.77-2.43,13.41.92,16.83,3.63,3.71,11.36.58,17.26,1.22,4.37.48,5.48-1.18,5.43-5.42-.21-19.61,0-39.23-.17-58.84,0-3.83,1.1-5,4.9-4.88,11.82.22,23.64.27,35.45,0,4.29-.1,5.51,1.14,5.46,5.44-.22,19.62,0,39.23-.17,58.85,0,3.62.72,5.28,4.74,5a100,100,0,0,1,14.17,0c3.84.27,4.83-1,4.8-4.81-.18-19.79,0-39.59-.19-59.38-.05-4.15,1.12-5.18,5.16-5.09,12,.28,24,.25,36,0,3.79-.07,4.9,1,4.86,4.82-.19,20,0,39.95-.14,59.93,0,3.13.51,4.64,4.12,4.42a136.29,136.29,0,0,1,15.26,0c3.43.18,4.3-1.11,4.28-4.37q-.18-30.51,0-61c0-3.5-1.28-4.36-4.47-4.2-4.35.21-8.74-.21-13.08.13s-6.3-.94-5.89-5.67c.39-4.5-.05-9.07.13-13.61.11-2.86-.92-3.76-3.76-3.74q-19.64.18-39.26,0c-2.66,0-3.48,1-3.42,3.52.13,5.08-.09,10.17.08,15.25.11,3-.86,4.3-4,4.2-5.08-.17-10.18-.18-15.27,0-3,.11-3.71-1.2-3.63-3.89.15-4.72-.18-9.46.11-14.17.23-3.74-.9-5-4.8-5-20,.18-40,.22-60,0-4.28,0-5.08,1.37-5,5.28C452.12,588.14,452,601.77,452,615.39Zm577.36,23.27c-1.63,0-3.28-.11-4.9,0-5.9.45-14.16-2.72-17.09,1.25s-.78,11.84-1,18c-.11,2.75.69,3.87,3.64,3.85q31.35-.13,62.71,0c2.64,0,3.45-.92,3.38-3.48-.15-5.26.09-10.53-.09-15.79-.1-2.86.88-3.82,3.74-3.72,5.26.19,10.54,0,15.8.1,2.57.07,3.55-.76,3.46-3.4a122.17,122.17,0,0,1,0-14.7c.41-4.57-1.47-5.33-5.52-5.25-12.18.23-24.36,0-36.53.14-3,0-4.24-.82-4.09-4a126.2,126.2,0,0,0,0-14.16c-.25-3.78.93-5,4.81-4.9,12.18.25,24.36-.07,36.53.18,3.9.08,5-1.14,4.8-4.9-.3-4.89-.19-9.81,0-14.7.09-2.69-.56-3.91-3.57-3.9q-31.35.16-62.71,0c-2.58,0-3.54.9-3.46,3.5.16,4.9-.2,9.82.12,14.71.26,4-1.29,5-5,4.78-4.35-.28-8.73.14-13.08-.13-3.67-.23-5.29.75-5,4.76a98.28,98.28,0,0,1,0,14.15c-.29,4,1.24,4.82,4.93,4.76,12.36-.21,24.72,0,37.08-.13,2.83,0,4.38.46,4.23,3.81-.24,5.25-.17,10.53,0,15.79.08,2.67-1,3.43-3.53,3.38C1042.43,638.57,1035.89,638.66,1029.34,638.66Zm-127,6.05h.4c0-4.36.18-8.73-.06-13.08-.17-3.31,1-4.45,4.33-4.38,8.9.18,17.82,0,26.72.1,2.75,0,3.92-.72,3.81-3.67-.2-5.26-.22-10.54,0-15.8.14-3.12-.95-4-4-4-8.72.18-17.45-.09-26.17.13-3.51.09-4.79-.84-4.68-4.52.25-8.71,0-17.44.14-26.16.06-3.1-1-4.16-4-4-5.09.2-10.19.2-15.27,0-3.1-.12-4.11,1-4.05,4.05.18,8.54-.18,17.09.17,25.61.17,4.23-1.27,5.22-5.26,5.08-8.53-.29-17.09,0-25.63-.15-3.09-.07-4.16.89-4,4,.22,5.08.27,10.18,0,15.25-.19,3.48,1.14,4.3,4.37,4.23,8.73-.18,17.46.06,26.18-.12,3.37-.08,4.41,1.09,4.33,4.39-.2,8,.27,16-.19,24-.28,5.08,1.36,6.75,6.3,6.16,5.52-.65,13,2.37,16.11-1.28C904.44,657.36,902.32,650.13,902.32,644.71Z"></path><path class="cls-5" d="M1095.8,719.56h23.7c3.6,5.52,7.62,5.52,11.22,0h23.7c3.6,5.52,7.61,5.52,11.21,0,1.18,0,2.72-.74,2.89,1.31.12,1.44.07,2.9.07,4.35q0,125.26.12,250.51c0,5.14-1.48,6.62-6.37,6.18-4.69-.42-9.44-.16-14.16-.19a36.75,36.75,0,0,0-.22-3.8c-.58-3.48-2.64-5.57-6.21-5.69-3.84-.13-6.09,2-6.76,5.69a31.91,31.91,0,0,0-.22,3.8h-21.51a34.16,34.16,0,0,0-.21-3.8c-.59-3.48-2.64-5.57-6.21-5.69-3.84-.13-6.09,2-6.76,5.69a31.91,31.91,0,0,0-.22,3.8h-21.51a31.91,31.91,0,0,0-.22-3.8c-.58-3.48-2.63-5.57-6.21-5.69-3.83-.13-6.08,2-6.75,5.69a31.91,31.91,0,0,0-.22,3.8h-21.51a31.91,31.91,0,0,0-.22-3.8c-.58-3.48-2.64-5.57-6.21-5.69-3.83-.13-6.08,2-6.75,5.69a31.91,31.91,0,0,0-.22,3.8h-21.51a31.91,31.91,0,0,0-.22-3.8c-.58-3.48-2.64-5.57-6.21-5.69-3.84-.13-6.09,2-6.75,5.69a31.91,31.91,0,0,0-.22,3.8H973.62a34.16,34.16,0,0,0-.22-3.8c-.58-3.48-2.64-5.57-6.21-5.69-3.84-.13-6.09,2-6.75,5.69a29.94,29.94,0,0,0-.22,3.8H938.71a34.16,34.16,0,0,0-.22-3.8c-.58-3.48-2.64-5.57-6.21-5.69-3.84-.13-6.09,2-6.75,5.69a29.94,29.94,0,0,0-.22,3.8H903.8a34.16,34.16,0,0,0-.22-3.8c-.58-3.48-2.64-5.57-6.21-5.69-3.84-.13-6.09,2-6.75,5.69a29.94,29.94,0,0,0-.22,3.8H868.89a34.16,34.16,0,0,0-.22-3.8c-.58-3.48-2.64-5.57-6.21-5.69-3.84-.13-6.09,2-6.75,5.69a29.94,29.94,0,0,0-.22,3.8H834a36.75,36.75,0,0,0-.22-3.8c-.58-3.48-2.64-5.57-6.21-5.69-3.84-.13-6.09,2-6.75,5.69a28.2,28.2,0,0,0-.22,3.8H799.07a36.75,36.75,0,0,0-.22-3.8c-.58-3.48-2.64-5.57-6.21-5.69-3.84-.13-6.09,2-6.76,5.69a31.91,31.91,0,0,0-.22,3.8H764.15a31.91,31.91,0,0,0-.22-3.8c-.58-3.48-2.63-5.57-6.21-5.69-3.83-.13-6.08,2-6.75,5.69a31.91,31.91,0,0,0-.22,3.8H729.24a31.91,31.91,0,0,0-.22-3.8c-.58-3.48-2.64-5.57-6.21-5.69-3.83-.13-6.08,2-6.75,5.69a31.91,31.91,0,0,0-.22,3.8H694.33a31.91,31.91,0,0,0-.22-3.8c-.58-3.48-2.64-5.57-6.21-5.69-3.84-.13-6.08,2-6.75,5.69a31.91,31.91,0,0,0-.22,3.8H659.42a31.91,31.91,0,0,0-.22-3.8c-.58-3.48-2.64-5.57-6.21-5.69-3.84-.13-6.09,2-6.75,5.69a29.94,29.94,0,0,0-.22,3.8H624.51a34.16,34.16,0,0,0-.22-3.8c-.58-3.48-2.64-5.57-6.21-5.69-3.84-.13-6.09,2-6.75,5.69a29.94,29.94,0,0,0-.22,3.8H589.6a34.16,34.16,0,0,0-.22-3.8c-.58-3.48-2.64-5.57-6.21-5.69-3.84-.13-6.09,2-6.75,5.69a29.94,29.94,0,0,0-.22,3.8H554.69a34.16,34.16,0,0,0-.22-3.8c-.58-3.48-2.64-5.57-6.21-5.69-3.84-.13-6.09,2-6.75,5.69a29.94,29.94,0,0,0-.22,3.8H519.78a34.16,34.16,0,0,0-.22-3.8c-.58-3.48-2.64-5.57-6.21-5.69-3.84-.13-6.09,2-6.75,5.69a28.2,28.2,0,0,0-.22,3.8H484.87a36.75,36.75,0,0,0-.22-3.8c-.58-3.48-2.64-5.57-6.21-5.69-3.84-.13-6.09,2-6.76,5.69a31.91,31.91,0,0,0-.22,3.8H450a36.75,36.75,0,0,0-.22-3.8c-.59-3.48-2.64-5.57-6.21-5.69-3.84-.13-6.09,2-6.76,5.69a31.91,31.91,0,0,0-.22,3.8H415a31.91,31.91,0,0,0-.22-3.8c-.58-3.48-2.63-5.57-6.21-5.69-3.83-.13-6.08,2-6.75,5.69a31.91,31.91,0,0,0-.22,3.8c-5.08,0-10.17,0-15.25.15-2.83.1-4-1-3.8-3.77.07-.9,0-1.81,0-2.72q0-125.19.06-250.39c0-2.34-1.81-6.59,3.72-5.43,3.6,5.52,7.61,5.52,11.21,0h23.7c3.6,5.52,7.61,5.52,11.21,0h23.7c3.6,5.52,7.62,5.52,11.22,0h23.7c3.6,5.52,7.61,5.52,11.21,0H526c3.6,5.52,7.61,5.52,11.21,0h23.7c3.6,5.52,7.61,5.52,11.21,0h23.7c3.6,5.52,7.61,5.52,11.21,0h23.7c3.6,5.52,7.61,5.52,11.21,0h23.7c3.6,5.52,7.61,5.52,11.21,0h23.7c3.6,5.52,7.61,5.52,11.21,0h23.7c3.6,5.52,7.61,5.52,11.21,0h23.7c3.6,5.52,7.62,5.52,11.21,0h23.7c3.6,5.52,7.62,5.52,11.22,0h23.7c3.6,5.52,7.61,5.52,11.21,0h23.7c3.6,5.52,7.61,5.52,11.21,0H910c3.6,5.52,7.61,5.52,11.21,0H945c3.6,5.52,7.61,5.52,11.21,0h23.7c3.6,5.52,7.61,5.52,11.21,0h23.7c3.6,5.52,7.61,5.52,11.21,0h23.7c3.6,5.52,7.61,5.52,11.21,0h23.7C1088.19,725.08,1092.2,725.08,1095.8,719.56Zm-628.49,38c-.41-1.52.54-2.78.79-4.17.59-3.22-.73-5.58-3.62-7.12a5.66,5.66,0,0,0-7,1.09c-2.12,2-3,4.5-1.47,7.35s3.89,4.21,7.12,3.63c1.39-.25,2.65-1.2,4.17-.8L450.88,772a20.8,20.8,0,0,0-.63-4.79,5.91,5.91,0,0,0-6.86-4.11,6.14,6.14,0,0,0-5.4,5.4,5.91,5.91,0,0,0,4.11,6.85c1.47.55,3.19.44,4.8.63l-13.48,13.46a18.24,18.24,0,0,0-.11-3.23c-.74-3.61-3-5.92-6.72-5.72a6,6,0,0,0-6.11,6.31c-.06,3.73,2.3,5.9,5.94,6.53a20.43,20.43,0,0,0,3.23.06c-.71.83-1.39,1.68-2.12,2.48A90.83,90.83,0,0,0,405.05,840c-4.15,21.18-2.49,42.29,5.91,62.51-2-.05-4-.23-5.73.95-3.06,2.05-4.42,4.79-2.59,8.25s4.69,4.67,8.55,3c1.79-.77,2.43-2.57,3.81-3.67l6.81,11c-3.67,2.73-3.26,6-.51,8.79,2.18,2.19,5.15,3.87,7.77.09a40.77,40.77,0,0,1,9.95,8.56c-3.73,3.46-2.75,6.81.64,9.6,3.23,2.63,6.51,1.44,9.07-2.84,12.79,6.5,26,11.73,40.27,14.1,0,4.09,1.7,7,6,7.42s6.55-2.1,7.35-6.13l21.66-.52c.53,4.39,3,7.21,7.41,6.48,4.65-.76,6.31-4.2,5.25-8.82,14.32-4,27.77-9.79,39.87-18.53-.06,2.15-.52,4.3.6,6.37,1.45,2.66,3.66,4.07,6.64,3.63a6.21,6.21,0,0,0,5.46-5.3c.54-3-.79-5.22-3.42-6.73a9.61,9.61,0,0,0-5.27-.87l13.26-12.14c-.07,4.14,1.77,7,6,7.61,3.19.45,5.5-1.36,6.65-4.35,1.65-4.3-1.28-7.69-7.3-8.57l11-11.68c0,11.43.21,21.31,0,31.19-.34,12.71,0,19.81,18.3,19.27.33,4.38,1.16,8.65,6.58,9,3.76.27,6-2.17,6.73-5.8.22-1.06.26-2.16.38-3.23h21.22c.33,4.38,1.16,8.65,6.58,9,3.76.27,6-2.17,6.73-5.8.22-1.06.26-2.16.38-3.23h21.22c.33,4.38,1.16,8.65,6.58,9,3.76.27,6-2.17,6.73-5.8.22-1.06.26-2.16.38-3.23h21.22c.33,4.38,1.16,8.65,6.58,9,3.76.27,6-2.17,6.73-5.8a32,32,0,0,0,.38-3.23c7.17.78,12.31-2.52,16.92-7.68,3.24-3.62,6.49-7.42,11.28-10.48-.34,5.46-.52,10.18,2.44,14.27a17.6,17.6,0,0,0-3.79.23c-3.36.9-5.44,3.18-5.2,6.7a6.09,6.09,0,0,0,6,6c3.79.24,6.1-2,6.84-5.68a25.05,25.05,0,0,0,.12-4.34c7.12,1.72,14.39.17,21.55,1,.33,4.38,1.15,8.65,6.57,9,3.76.27,6-2.17,6.74-5.8.22-1.06.25-2.16.37-3.23h21.23c.33,4.38,1.15,8.65,6.58,9,3.75.27,6-2.17,6.73-5.8.22-1.06.25-2.16.38-3.23H872.8c.33,4.38,1.15,8.65,6.58,9,3.75.27,6-2.17,6.73-5.8.22-1.06.26-2.16.38-3.23h21.22c.43,2.81.28,5.86,3,7.76,2.27,1.58,4.62,1.9,7.07.35,3.5-2.21,3.6-5.51,2.93-9.07a199.28,199.28,0,0,0,19.06-17.48c-.48,6.82-.58,12.45,4.47,16.5a21,21,0,0,0-1,3.07c-.76,4.09,1.17,6.83,5,7.76s6.27-1.13,7.49-4.63a23.05,23.05,0,0,0,.65-4.26h21.22c.33,4.38,1.16,8.65,6.58,9,3.76.27,6-2.17,6.73-5.8.22-1.06.26-2.16.38-3.23a36.84,36.84,0,0,1,5.93-.15c7.42,1,13.22-1.46,18-7.31,3.28-4,7.45-7.31,11-11.17,3.34-3.68,5.13-3.21,6,1.62-3,1-1.87,3.06-1.09,4.79,1.36,3,3.8,4.24,7.09,3.71,2.74,3.19,4.69,7.29,9.43,8.16a25.14,25.14,0,0,0,.4,4.28c.83,3.08,2.92,5,6.15,5.13s5.41-1.76,6.37-4.82a28.33,28.33,0,0,0,.63-4.24h21.23c.32,4.38,1.15,8.65,6.57,9,3.76.27,6-2.17,6.74-5.8.22-1.06.25-2.16.37-3.23l21.54-.64c.14,2.12-.36,4.34.94,6.31,2,3.09,4.75,4.47,8.27,2.69,3.31-1.68,4.68-4.43,3.23-8.07-1.33-3.32-4.14-4.27-7.45-4.23a107.73,107.73,0,0,1,12.42-12.4c-.08,4.07,1.5,7.14,5.72,7.89,3.19.57,5.55-1.11,6.81-4.08,1.9-4.49-1.14-8-7.5-8.84,9.84-11.62,10-12.36,4.36-22.85,4-2.13,4.91-5.46,2.4-8.95s-6.06-4.43-9.59-.83c-2.84-2.4-4.58-5.66-6.77-8.58.48-8.89-.86-10.8-7.64-10.81-11.67-15.62-23.14-31.38-35.11-46.76-3.54-4.56-3.15-7.46,1.26-10.48,6.56.06,8.19-2,7.63-9.71,2.31-3.18,4.57-6.4,7.62-8.94,3.17,2.53,6.17,1.74,8.46-1s2.51-5.85-.74-8.38a37.33,37.33,0,0,1,7.84-9.8c1.93,2.87,4.49,4,7.82,2.65a5.89,5.89,0,0,0,4-5.76c-.06-2.76-.93-5.36-4.45-5.6a40.43,40.43,0,0,1,8.89-11.25c.2.51.37,1,.6,1.51,1.35,2.95,3.64,4.58,6.89,4.11a6.15,6.15,0,0,0,5.46-5.31c.55-3.23-1-5.53-3.93-7a22.66,22.66,0,0,1-2.6-1.79c6-10.51.9-19.31-11.29-19.33-18.54,0-37.08.19-55.61-.12-6.15-.1-11.43,1-15.82,5.45-2.89-3.21-6.12-2.89-8.84-.16s-3,5.94.16,8.83a38.22,38.22,0,0,1-8.77,8.77c-1-1.57-2.62-2-4.33-2.27-.07-2-.19-4-.21-6-.09-10.3-4.3-14.52-14.58-14.53-11.09,0-22.22.63-33.25-.16-13-.93-24.54.66-32.74,12-.4-7.21-2.5-9-10-8.53a15.75,15.75,0,0,0-10.6-3.41q-62.12.12-124.24,0c-5.31,0-9.39,1.6-13,5.52-4.06,4.47-8.51,8.58-13.38,13.43-.15-1.93-.25-2.64-.26-3.35-.26-12.43-3.47-15.53-16.13-15.53-39.78,0-79.56.21-119.33-.17-8.35-.08-14.23,2.95-19.38,8.86a107.1,107.1,0,0,1-10.15,10.6c-4.6,4-9.1,8-11,14.47-2.14-2.54-3.84-4.66-5.64-6.67-14.12-15.78-32.07-24.53-52.58-28.58a9,9,0,0,1,.78-.73c3.47-2.48,4.52-5.66,2-9.23-2.12-3-5.23-3.88-8.48-1.74-3.62,2.39-4,5.65-1.84,9.32.28.46.49,1,.72,1.44a177.94,177.94,0,0,0-26,0c2.19-3.66,3.4-7.33-.7-10.47a5.78,5.78,0,0,0-8.27.66c-3.58,3.71-1.81,7.18,1,10.44a1.53,1.53,0,0,1,.2.49c-4,.93-8.06,1.82-12.08,2.78C487.45,746.52,477.5,752.29,467.31,757.53Zm-68.78,64.34C398,818,396,815.4,392,815.37a6,6,0,0,0-6.39,6c-.22,4,2.21,6.58,6.14,6.77S397.86,825.75,398.53,821.87Zm726.8,6.44c3.87-.75,6.41-2.92,6.18-6.92a6,6,0,0,0-6.38-6c-4,0-6.47,2.55-6.41,6.51S1121.45,827.89,1125.33,828.31Zm34.7,0c3.88-.59,6.46-2.69,6.4-6.69a6,6,0,0,0-6.15-6.24c-4-.13-6.55,2.32-6.65,6.27S1156.15,827.73,1160,828.31ZM1100,839c.41,3.88,2.44,6.51,6.43,6.63a6,6,0,0,0,6.5-5.89c.32-4-2.1-6.62-6-6.9S1100.77,835.11,1100,839Zm34.91,0c.42,3.88,2.44,6.51,6.43,6.63a6,6,0,0,0,6.5-5.89c.32-4-2.1-6.62-6-6.9S1135.68,835.11,1134.93,839ZM391.85,863.19c3.88-.49,6.49-2.54,6.53-6.53a6,6,0,0,0-6-6.4c-4-.25-6.6,2.18-6.8,6.11S388,862.51,391.85,863.19Zm738.72-6.45c-.51-3.86-2.57-6.47-6.57-6.49a6,6,0,0,0-6.38,6c-.22,4,2.22,6.58,6.15,6.77S1129.91,860.62,1130.57,856.74Zm34.94-.38c-.74-3.6-2.76-6.26-6.81-6.11a6,6,0,0,0-6.17,6.22c-.07,4,2.41,6.52,6.36,6.56S1165,860.44,1165.51,856.36ZM1148,873.86c-.75-3.87-2.93-6.41-6.93-6.17a6,6,0,0,0-6,6.38c0,4,2.56,6.47,6.52,6.4S1147.6,877.74,1148,873.86ZM390.81,885c-3.89.65-6.45,2.77-6.32,6.77a6,6,0,0,0,6.22,6.17c4,.06,6.53-2.41,6.57-6.36S394.68,885.51,390.81,885Zm774.69,6.14c-.83-3.59-2.88-6.24-6.93-6-3.66.23-6.07,2.65-6,6.36,0,4,2.53,6.48,6.49,6.43S1165,895.2,1165.5,891.12ZM397.46,926c-.84-3.62-2.91-6.27-6.95-6-3.66.24-6.06,2.66-6,6.38,0,4,2.55,6.47,6.51,6.41S397,930.06,397.46,926Zm768,.52c-.49-3.87-2.54-6.48-6.54-6.53a6,6,0,0,0-6.41,6c-.24,4,2.19,6.59,6.12,6.8S1164.8,930.41,1165.48,926.53ZM408.35,950.39c3.88-.6,6.46-2.69,6.4-6.69a6,6,0,0,0-6.15-6.25c-4-.13-6.55,2.33-6.65,6.27S404.47,949.8,408.35,950.39Zm-10.88,10.89c-.55-3.62-2.47-6.32-6.5-6.4a6,6,0,0,0-6.47,5.91c-.3,4,2.13,6.61,6,6.87S396.7,965.34,397.47,961.28Zm34.88,0c-.61-3.88-2.72-6.45-6.72-6.37a6,6,0,0,0-6.23,6.17c-.11,4,2.35,6.53,6.3,6.62S431.78,965.12,432.35,961.25Zm28.3,6.57c3.87-.53,6.47-2.6,6.46-6.6a6,6,0,0,0-6.05-6.33c-4-.19-6.58,2.25-6.74,6.18S456.76,967.18,460.65,967.82ZM572,961.15c-.64-3.55-2.56-6.27-6.6-6.28a6,6,0,0,0-6.38,6c-.22,4,2.21,6.59,6.14,6.77S571.33,965.26,572,961.15Zm28.26,6.67c3.87-.53,6.47-2.6,6.47-6.6a6,6,0,0,0-6.06-6.33c-4-.2-6.58,2.25-6.74,6.18S596.4,967.18,600.29,967.82Zm425.58-6.5c-.52-3.63-2.45-6.34-6.47-6.44a6,6,0,0,0-6.5,5.88c-.32,4,2.1,6.62,6,6.9S1025.08,965.37,1025.87,961.32Zm139.61,0c-.56-3.88-2.64-6.46-6.64-6.44a6,6,0,0,0-6.31,6.08c-.17,4,2.28,6.57,6.22,6.71S1164.86,965.2,1165.48,961.32ZM416,734.5c-.65-3.89-2.78-6.45-6.78-6.32A6,6,0,0,0,403,734.4c-.06,4,2.41,6.52,6.36,6.56S415.45,738.36,416,734.5Zm34.9-.15c-.75-3.87-2.93-6.41-6.93-6.17a6,6,0,0,0-6,6.38c.05,4,2.56,6.47,6.52,6.4S450.47,738.23,450.89,734.35ZM479,728c-3.87.75-6.41,2.93-6.17,6.93a6,6,0,0,0,6.38,6c4-.05,6.47-2.56,6.41-6.52S482.91,728.45,479,728Zm111.51,6.38c-.71-3.87-2.86-6.42-6.87-6.23a6,6,0,0,0-6.08,6.3c0,4,2.48,6.5,6.45,6.48S590.07,738.29,590.54,734.41ZM619,741.12c3.88-.69,6.44-2.83,6.27-6.83a6,6,0,0,0-6.28-6.11c-4,0-6.51,2.46-6.51,6.41S615.16,740.63,619,741.12ZM653.65,728c-3.88.7-6.43,2.86-6.24,6.86a6,6,0,0,0,6.31,6.08c4,0,6.5-2.49,6.49-6.44S657.53,728.5,653.65,728Zm35.48,13.11c3.59-.84,6.24-2.88,6-6.93a6,6,0,0,0-6.37-6c-4,0-6.48,2.53-6.43,6.49S685,740.68,689.13,741.14Zm34.46,0c3.87-.55,6.47-2.63,6.45-6.63a6,6,0,0,0-6.09-6.31c-4-.17-6.57,2.27-6.71,6.21S719.71,740.5,723.59,741.12ZM758.71,728c-3.88.46-6.5,2.5-6.57,6.49a6,6,0,0,0,6,6.44c4,.27,6.61-2.16,6.85-6.07S762.59,728.74,758.71,728Zm34.67,0c-3.89.65-6.45,2.77-6.33,6.77a6,6,0,0,0,6.23,6.17c4,.06,6.53-2.41,6.57-6.36S797.25,728.56,793.38,728Zm41.54,6.48c-.64-3.89-2.77-6.45-6.77-6.33a6,6,0,0,0-6.18,6.21c-.08,4,2.39,6.52,6.35,6.57S834.38,738.37,834.92,734.51ZM863.05,728c-3.87.75-6.41,2.93-6.17,6.93a6,6,0,0,0,6.38,6c4-.05,6.48-2.56,6.41-6.52S866.93,728.45,863.05,728Zm41.73,6.39c-.65-3.58-2.61-6.27-6.65-6.25a6,6,0,0,0-6.34,6.06c-.19,4,2.25,6.57,6.19,6.73S904.1,738.52,904.78,734.42Zm28.31,6.7c3.88-.58,6.46-2.67,6.41-6.67a6,6,0,0,0-6.12-6.27c-4-.14-6.56,2.31-6.67,6.25S929.21,740.52,933.09,741.12Zm35,0c3.89-.64,6.45-2.76,6.33-6.76a6,6,0,0,0-6.22-6.18c-4-.07-6.52,2.39-6.57,6.35S964.21,740.58,968.08,741.12Zm35,0c3.59-.66,6.28-2.62,6.24-6.66a6,6,0,0,0-6.09-6.31c-4-.17-6.57,2.27-6.71,6.21S999,740.5,1003.09,741.15ZM1038,728c-3.88.45-6.5,2.48-6.59,6.46a6,6,0,0,0,5.92,6.47c4,.29,6.62-2.14,6.87-6S1041.9,728.76,1038,728Zm41.31,6.27c-.74-3.61-2.76-6.27-6.8-6.13a6,6,0,0,0-6.18,6.22c-.08,4,2.39,6.52,6.35,6.57S1078.76,738.37,1079.33,734.3Zm34.87.06c-.74-3.88-2.92-6.41-6.92-6.18a6,6,0,0,0-6,6.37c0,4,2.56,6.47,6.52,6.41S1113.78,738.23,1114.2,734.36Zm28.41-6.36c-3.64.52-6.35,2.44-6.45,6.45a6,6,0,0,0,5.89,6.5c4,.32,6.62-2.1,6.91-6S1146.66,728.78,1142.61,728ZM391.85,758.56c3.88-.49,6.49-2.54,6.53-6.53a6,6,0,0,0-6-6.41c-4-.24-6.6,2.19-6.8,6.11S388,757.87,391.85,758.56Zm35.45,0c3.58-.84,6.24-2.88,6-6.93a6,6,0,0,0-6.36-6c-4,0-6.48,2.53-6.44,6.48S423.21,758.12,427.3,758.58ZM608,751.84c-.66-3.59-2.64-6.27-6.67-6.23a6,6,0,0,0-6.31,6.09c-.17,4,2.27,6.56,6.21,6.7S607.38,755.93,608,751.84Zm558.54,0c-.7-3.87-2.85-6.42-6.85-6.24a6,6,0,0,0-6.1,6.29c0,4,2.48,6.5,6.44,6.49S1166.09,755.74,1166.57,751.86ZM416,769.64c-.44-3.88-2.48-6.5-6.47-6.59A6,6,0,0,0,403,769c-.29,4,2.14,6.61,6,6.87S415.25,773.51,416,769.64Zm-17.45,17.24c-.6-3.88-2.7-6.46-6.7-6.39a6,6,0,0,0-6.25,6.15c-.12,4,2.34,6.54,6.28,6.64S398,790.75,398.53,786.88Zm768-.2c-.74-3.86-2.9-6.41-6.91-6.18a6,6,0,0,0-6,6.35c0,4,2.53,6.47,6.49,6.43S1166.13,790.57,1166.57,786.68ZM416,804.31c-.6-3.88-2.71-6.45-6.71-6.38a6,6,0,0,0-6.25,6.15c-.12,4,2.34,6.54,6.29,6.64S415.41,808.19,416,804.31Zm733.13-.13c-.7-3.87-2.85-6.42-6.86-6.25a6,6,0,0,0-6.09,6.3c0,4,2.47,6.49,6.43,6.49S1148.64,808.05,1149.12,804.18Z"></path><path class="cls-6" d="M611.11,981.72a29.94,29.94,0,0,1,.22-3.8c.66-3.73,2.91-5.82,6.75-5.69,3.57.12,5.63,2.21,6.21,5.69a34.16,34.16,0,0,1,.22,3.8Z"></path><path class="cls-6" d="M506.38,981.72a28.2,28.2,0,0,1,.22-3.8c.66-3.73,2.91-5.82,6.75-5.69,3.57.12,5.63,2.21,6.21,5.69a34.16,34.16,0,0,1,.22,3.8Z"></path><path class="cls-6" d="M576.2,981.72a29.94,29.94,0,0,1,.22-3.8c.66-3.73,2.91-5.82,6.75-5.69,3.57.12,5.63,2.21,6.21,5.69a34.16,34.16,0,0,1,.22,3.8Z"></path><path class="cls-6" d="M541.29,981.72a29.94,29.94,0,0,1,.22-3.8c.66-3.73,2.91-5.82,6.75-5.69,3.57.12,5.63,2.21,6.21,5.69a34.16,34.16,0,0,1,.22,3.8Z"></path><path class="cls-6" d="M1134.77,981.72a31.91,31.91,0,0,1,.22-3.8c.67-3.73,2.92-5.82,6.76-5.69,3.57.12,5.63,2.21,6.21,5.69a36.75,36.75,0,0,1,.22,3.8Z"></path><path class="cls-6" d="M471.46,981.72a31.91,31.91,0,0,1,.22-3.8c.67-3.73,2.92-5.82,6.76-5.69,3.57.12,5.63,2.21,6.21,5.69a36.75,36.75,0,0,1,.22,3.8Z"></path><path class="cls-6" d="M436.55,981.72a31.91,31.91,0,0,1,.22-3.8c.67-3.73,2.92-5.82,6.76-5.69,3.57.12,5.62,2.21,6.21,5.69a36.75,36.75,0,0,1,.22,3.8Z"></path><path class="cls-6" d="M820.58,981.72a28.2,28.2,0,0,1,.22-3.8c.66-3.73,2.91-5.82,6.75-5.69,3.57.12,5.63,2.21,6.21,5.69a36.75,36.75,0,0,1,.22,3.8Z"></path><path class="cls-6" d="M401.64,981.72a31.91,31.91,0,0,1,.22-3.8c.67-3.73,2.92-5.82,6.75-5.69,3.58.12,5.63,2.21,6.21,5.69a31.91,31.91,0,0,1,.22,3.8Z"></path><path class="cls-6" d="M1099.86,981.72a31.91,31.91,0,0,1,.22-3.8c.67-3.73,2.92-5.82,6.76-5.69,3.57.12,5.62,2.21,6.21,5.69a34.16,34.16,0,0,1,.21,3.8Z"></path><path class="cls-6" d="M1065,981.72a31.91,31.91,0,0,1,.22-3.8c.67-3.73,2.92-5.82,6.75-5.69,3.58.12,5.63,2.21,6.21,5.69a31.91,31.91,0,0,1,.22,3.8Z"></path><path class="cls-6" d="M1030,981.72a31.91,31.91,0,0,1,.22-3.8c.67-3.73,2.92-5.82,6.75-5.69,3.57.12,5.63,2.21,6.21,5.69a31.91,31.91,0,0,1,.22,3.8Z"></path><path class="cls-6" d="M995.13,981.72a31.91,31.91,0,0,1,.22-3.8c.66-3.73,2.91-5.82,6.75-5.69,3.57.12,5.63,2.21,6.21,5.69a31.91,31.91,0,0,1,.22,3.8Z"></path><path class="cls-6" d="M960.22,981.72a29.94,29.94,0,0,1,.22-3.8c.66-3.73,2.91-5.82,6.75-5.69,3.57.12,5.63,2.21,6.21,5.69a34.16,34.16,0,0,1,.22,3.8Z"></path><path class="cls-6" d="M925.31,981.72a29.94,29.94,0,0,1,.22-3.8c.66-3.73,2.91-5.82,6.75-5.69,3.57.12,5.63,2.21,6.21,5.69a34.16,34.16,0,0,1,.22,3.8Z"></path><path class="cls-6" d="M890.4,981.72a29.94,29.94,0,0,1,.22-3.8c.66-3.73,2.91-5.82,6.75-5.69,3.57.12,5.63,2.21,6.21,5.69a34.16,34.16,0,0,1,.22,3.8Z"></path><path class="cls-6" d="M855.49,981.72a29.94,29.94,0,0,1,.22-3.8c.66-3.73,2.91-5.82,6.75-5.69,3.57.12,5.63,2.21,6.21,5.69a34.16,34.16,0,0,1,.22,3.8Z"></path><path class="cls-6" d="M785.66,981.72a31.91,31.91,0,0,1,.22-3.8c.67-3.73,2.92-5.82,6.76-5.69,3.57.12,5.63,2.21,6.21,5.69a36.75,36.75,0,0,1,.22,3.8Z"></path><path class="cls-6" d="M750.75,981.72a31.91,31.91,0,0,1,.22-3.8c.67-3.73,2.92-5.82,6.75-5.69,3.58.12,5.63,2.21,6.21,5.69a31.91,31.91,0,0,1,.22,3.8Z"></path><path class="cls-6" d="M715.84,981.72a31.91,31.91,0,0,1,.22-3.8c.67-3.73,2.92-5.82,6.75-5.69,3.57.12,5.63,2.21,6.21,5.69a31.91,31.91,0,0,1,.22,3.8Z"></path><path class="cls-6" d="M680.93,981.72a31.91,31.91,0,0,1,.22-3.8c.67-3.73,2.91-5.82,6.75-5.69,3.57.12,5.63,2.21,6.21,5.69a31.91,31.91,0,0,1,.22,3.8Z"></path><path class="cls-6" d="M646,981.72a29.94,29.94,0,0,1,.22-3.8c.66-3.73,2.91-5.82,6.75-5.69,3.57.12,5.63,2.21,6.21,5.69a31.91,31.91,0,0,1,.22,3.8Z"></path><path class="cls-6" d="M572.14,719.56c-3.6,5.52-7.61,5.52-11.21,0Z"></path><path class="cls-6" d="M607.05,719.56c-3.6,5.52-7.61,5.52-11.21,0Z"></path><path class="cls-6" d="M642,719.56c-3.6,5.52-7.61,5.52-11.21,0Z"></path><path class="cls-6" d="M676.87,719.56c-3.6,5.52-7.61,5.52-11.21,0Z"></path><path class="cls-6" d="M781.6,719.56c-3.59,5.52-7.61,5.52-11.21,0Z"></path><path class="cls-6" d="M711.78,719.56c-3.6,5.52-7.61,5.52-11.21,0Z"></path><path class="cls-6" d="M816.52,719.56c-3.6,5.52-7.62,5.52-11.22,0Z"></path><path class="cls-6" d="M397.58,719.56c-3.6,5.52-7.61,5.52-11.21,0Z"></path><path class="cls-6" d="M432.49,719.56c-3.6,5.52-7.61,5.52-11.21,0Z"></path><path class="cls-6" d="M467.41,719.56c-3.6,5.52-7.62,5.52-11.22,0Z"></path><path class="cls-6" d="M502.32,719.56c-3.6,5.52-7.61,5.52-11.21,0Z"></path><path class="cls-6" d="M537.23,719.56c-3.6,5.52-7.61,5.52-11.21,0Z"></path><path class="cls-6" d="M1165.63,719.56c-3.6,5.52-7.61,5.52-11.21,0Z"></path><path class="cls-6" d="M1130.72,719.56c-3.6,5.52-7.62,5.52-11.22,0Z"></path><path class="cls-6" d="M746.69,719.56c-3.6,5.52-7.61,5.52-11.21,0Z"></path><path class="cls-6" d="M1095.8,719.56c-3.6,5.52-7.61,5.52-11.21,0Z"></path><path class="cls-6" d="M1060.89,719.56c-3.6,5.52-7.61,5.52-11.21,0Z"></path><path class="cls-6" d="M1026,719.56c-3.6,5.52-7.61,5.52-11.21,0Z"></path><path class="cls-6" d="M991.07,719.56c-3.6,5.52-7.61,5.52-11.21,0Z"></path><path class="cls-6" d="M956.16,719.56c-3.6,5.52-7.61,5.52-11.21,0Z"></path><path class="cls-6" d="M921.25,719.56c-3.6,5.52-7.61,5.52-11.21,0Z"></path><path class="cls-6" d="M886.34,719.56c-3.6,5.52-7.61,5.52-11.21,0Z"></path><path class="cls-6" d="M851.43,719.56c-3.6,5.52-7.61,5.52-11.21,0Z"></path><path class="cls-3" d="M452,615.39c0-13.62.14-27.25-.09-40.86-.06-3.91.74-5.33,5-5.28,20,.24,40,.2,60,0,3.9,0,5,1.22,4.8,5-.29,4.71,0,9.45-.11,14.17-.08,2.69.64,4,3.63,3.89,5.09-.19,10.19-.18,15.27,0,3.14.1,4.11-1.2,4-4.2-.17-5.08,0-10.17-.08-15.25-.06-2.53.76-3.54,3.42-3.52q19.62.15,39.26,0c2.84,0,3.87.88,3.76,3.74-.18,4.54.26,9.11-.13,13.61-.41,4.73,1.5,6,5.89,5.67s8.73.08,13.08-.13c3.19-.16,4.49.7,4.47,4.2q-.23,30.51,0,61c0,3.26-.85,4.55-4.28,4.37a136.29,136.29,0,0,0-15.26,0c-3.61.22-4.14-1.29-4.12-4.42.11-20-.05-40,.14-59.93,0-3.85-1.07-4.89-4.86-4.82-12,.24-24,.27-36,0-4-.09-5.21.94-5.16,5.09.23,19.79,0,39.59.19,59.38,0,3.78-1,5.08-4.8,4.81a100,100,0,0,0-14.17,0c-4,.29-4.77-1.37-4.74-5,.16-19.62-.05-39.23.17-58.85,0-4.3-1.17-5.54-5.46-5.44-11.81.29-23.63.24-35.45,0-3.8-.07-4.94,1-4.9,4.88.18,19.61,0,39.23.17,58.84.05,4.24-1.06,5.9-5.43,5.42-5.9-.64-13.63,2.49-17.26-1.22-3.35-3.42-.84-11.06-.92-16.83C451.89,634.28,452,624.83,452,615.39Z"></path><path class="cls-3" d="M1029.34,638.66c6.55,0,13.09-.09,19.63,0,2.52,0,3.61-.71,3.53-3.38-.14-5.26-.21-10.54,0-15.79.15-3.35-1.4-3.83-4.23-3.81-12.36.11-24.72-.08-37.08.13-3.69.06-5.22-.79-4.93-4.76a98.28,98.28,0,0,0,0-14.15c-.29-4,1.33-5,5-4.76,4.35.27,8.73-.15,13.08.13,3.69.23,5.24-.83,5-4.78-.32-4.89,0-9.81-.12-14.71-.08-2.6.88-3.5,3.46-3.5q31.35.1,62.71,0c3,0,3.66,1.21,3.57,3.9-.16,4.89-.27,9.81,0,14.7.24,3.76-.9,5-4.8,4.9-12.17-.25-24.35.07-36.53-.18-3.88-.08-5.06,1.12-4.81,4.9a126.2,126.2,0,0,1,0,14.16c-.15,3.16,1.06,4,4.09,4,12.17-.14,24.35.09,36.53-.14,4-.08,5.93.68,5.52,5.25a122.17,122.17,0,0,0,0,14.7c.09,2.64-.89,3.47-3.46,3.4-5.26-.15-10.54.09-15.8-.1-2.86-.1-3.84.86-3.74,3.72.18,5.26-.06,10.53.09,15.79.07,2.56-.74,3.49-3.38,3.48q-31.37-.13-62.71,0c-3,0-3.75-1.1-3.64-3.85.24-6.14-2-13.94,1-18s11.19-.8,17.09-1.25C1026.06,638.55,1027.71,638.66,1029.34,638.66Z"></path><path class="cls-3" d="M706.21,638.71c-6.36,0-12.71,0-19.06.17-3,.09-4.15-.7-4.11-3.91.16-12.88.18-25.76,0-38.64,0-3.56,1.4-4.25,4.51-4.14,5.07.19,10.17-.05,15.25.09,2.6.07,3.51-.87,3.44-3.46-.15-5.26.09-10.53-.1-15.78-.1-2.87.92-3.76,3.74-3.73q19.6.16,39.22,0c3,0,3.66,1.3,3.6,3.94-.13,5.08.07,10.16-.08,15.24-.08,2.81.95,3.88,3.79,3.8,5.08-.15,10.17.06,15.25-.08,2.82-.07,4.28.47,4.26,3.83q-.21,31,0,62c0,2.91-1,3.7-3.81,3.69-20.7-.08-41.4-.11-62.1,0-3.27,0-3.92-1.21-3.85-4.13.16-6.34,0-12.69,0-19,13.81,0,27.61-.12,41.41.14,4,.08,4.79-1.27,4.73-4.94-.21-12.15-.18-24.31,0-36.47,0-3.36-.64-4.79-4.42-4.72q-18.52.36-37,0c-3.77-.07-4.51,1.32-4.48,4.71C706.39,611.13,706.25,624.92,706.21,638.71Z"></path><path class="cls-3" d="M902.32,644.71c0,5.42,2.12,12.65-.56,15.78-3.11,3.65-10.59.63-16.11,1.28-4.94.59-6.58-1.08-6.3-6.16.46-8,0-16,.19-24,.08-3.3-1-4.47-4.33-4.39-8.72.18-17.45-.06-26.18.12-3.23.07-4.56-.75-4.37-4.23.28-5.07.23-10.17,0-15.25-.14-3.11.93-4.07,4-4,8.54.18,17.1-.14,25.63.15,4,.14,5.43-.85,5.26-5.08-.35-8.52,0-17.07-.17-25.61-.06-3.09,1-4.17,4.05-4.05,5.08.2,10.18.2,15.27,0,3.09-.12,4.11.94,4,4-.17,8.72.11,17.45-.14,26.16-.11,3.68,1.17,4.61,4.68,4.52,8.72-.22,17.45.05,26.17-.13,3.08-.06,4.17.87,4,4-.22,5.26-.2,10.54,0,15.8.11,3-1.06,3.71-3.81,3.67-8.9-.12-17.82.08-26.72-.1-3.35-.07-4.5,1.07-4.33,4.38.24,4.35.06,8.72.06,13.08Z"></path><path class="cls-3" d="M957.1,754.26c8.2-11.39,19.74-13,32.74-12,11,.79,22.16.16,33.25.16,10.28,0,14.49,4.23,14.58,14.53,0,2,.14,4,.21,6s-.47,4,.35,6.09a8.51,8.51,0,0,0,4-3.82,38.22,38.22,0,0,0,8.77-8.77,41.24,41.24,0,0,0,8.68-8.67c4.39-4.4,9.67-5.55,15.82-5.45,18.53.31,37.07.09,55.61.12,12.19,0,17.3,8.82,11.29,19.33-2.22,2.76-4.91,5.18-6.42,8.48a40.43,40.43,0,0,0-8.89,11.25c-3.28,2.22-5.35,5.47-7.42,8.71a37.33,37.33,0,0,0-7.84,9.8c-3.31,2.53-5.48,6-7.72,9.41-3,2.54-5.31,5.76-7.62,8.94a48.42,48.42,0,0,0-7.63,9.71c-4.41,3-4.8,5.92-1.26,10.48,12,15.38,23.44,31.14,35.11,46.76l7.64,10.81c2.19,2.92,3.93,6.18,6.77,8.58a34.15,34.15,0,0,0,7.19,9.78c5.63,10.49,5.48,11.23-4.35,22.85a14.88,14.88,0,0,0-5,5,107.73,107.73,0,0,0-12.42,12.4l-5,3.3-21.54.64a49.74,49.74,0,0,0-13.68,0H1061l-13.55-.35c-4.74-.87-6.69-5-9.43-8.16-1.52-3.17-2.83-6.49-6-8.5-.82-4.83-2.61-5.3-6-1.62-3.51,3.86-7.68,7.15-11,11.17-4.78,5.85-10.58,8.27-18,7.31a36.84,36.84,0,0,0-5.93.15,49.82,49.82,0,0,0-13.69,0H956.31c-4-1-8.32.47-12-1.94-5-4.05-5-9.68-4.47-16.5a199.28,199.28,0,0,1-19.06,17.48l-13,1H886.49a49.82,49.82,0,0,0-13.69,0H851.58a49.82,49.82,0,0,0-13.69,0H816.66a49.74,49.74,0,0,0-13.68,0c-7.16-.81-14.43.74-21.55-1l-3.95-2.91c-3-4.09-2.78-8.81-2.44-14.27-4.79,3.06-8,6.86-11.28,10.48-4.61,5.16-9.75,8.46-16.92,7.68a49.82,49.82,0,0,0-13.69,0H711.93a49.82,49.82,0,0,0-13.69,0H677a49.82,49.82,0,0,0-13.69,0H642.11a49.82,49.82,0,0,0-13.69,0c-18.34.54-18.64-6.56-18.3-19.27.26-9.88,0-19.76,0-31.19l-11,11.68a16.83,16.83,0,0,0-5.31,5.31l-13.26,12.14a8.75,8.75,0,0,0-4,2.9c-12.1,8.74-25.55,14.56-39.87,18.53L524,961.08l-21.66.52L489,960.31c-14.25-2.37-27.48-7.6-40.27-14.1a41.54,41.54,0,0,0-9.71-6.76,40.77,40.77,0,0,0-9.95-8.56c-1.49-3.72-4.43-6.25-7.26-8.88L415,911l-4-8.54c-8.4-20.22-10.06-41.33-5.91-62.51a90.83,90.83,0,0,1,22.48-44.09c.73-.8,1.41-1.65,2.12-2.48,1.26-1.31,2.51-2.63,3.77-3.95L446.9,776a12,12,0,0,0,4-4l16.44-14.49v0c10.19-5.24,20.14-11,31.44-13.72,4-1,8.05-1.85,12.08-2.78l7.79-1.12a177.94,177.94,0,0,1,26,0c2.25.54,4.45,1.37,6.83.94,20.51,4,38.46,12.8,52.58,28.58,1.8,2,3.5,4.13,5.64,6.67,1.88-6.5,6.38-10.46,11-14.47a107.1,107.1,0,0,0,10.15-10.6c5.15-5.91,11-8.94,19.38-8.86,39.77.38,79.55.17,119.33.17,12.66,0,15.87,3.1,16.13,15.53,0,.71.11,1.42.26,3.35,4.87-4.85,9.32-9,13.38-13.43,3.56-3.92,7.64-5.53,13-5.52q62.12.19,124.24,0a15.75,15.75,0,0,1,10.6,3.41c2,2.85,3.61,5.81,3.43,9.5-.07,1.34-.79,3.28.78,3.94,1.92.8,2.61-1.45,3.76-2.44A17.51,17.51,0,0,0,957.1,754.26ZM568,824.12c-12.37,0-24.73.12-37.09-.07-3.51-.06-4.72.86-4.64,4.52q.35,16.6,0,33.23c-.08,3.72.83,5.08,4.77,4.93,8-.31,16,.1,24-.18,3.61-.13,4.14,1.3,4.16,4.43s-1.72,4.16-3.91,5.18c-11.23,5.22-22.92,7-35,3.71-20.94-5.64-32.74-25.57-29.16-48.77,2.53-16.44,14.08-29.61,29.77-33.18,16.64-3.79,30.62.45,40.44,15.05,1.71,2.54,3,1.62,4.78.71,12-6.11,23.84-12.33,35.88-18.24,3.9-1.91,4.17-3.55,1.84-7.2-16.23-25.34-40.17-36.49-69.36-37.22-50.65-1.25-91.75,28.91-96.16,78.6-2.54,28.71,5.23,54,27.09,73.73,17,15.39,37.54,22.29,60.14,23.45,31.42,1.61,58.55-8.28,80.79-30.84,1.8-1.83,3-3.68,3-6.58q-.24-30.51,0-61c0-3.3-.85-4.36-4.26-4.31C592.71,824.24,580.35,824.12,568,824.12ZM644.9,838.8c0,26.89.05,53.77-.07,80.65,0,3.4.68,4.69,4.45,4.68q60.27-.21,120.54,0c3.41,0,4.3-1,4.25-4.32-.18-11.44-.24-22.89,0-34.32.09-3.94-1.21-4.8-4.93-4.76-19.09.17-38.18.1-57.27.06-4.88,0-11.38,1.63-14.24-.84-3.33-2.88-.53-9.58-1.16-14.56-.56-4.49,1-5.8,5.57-5.75,21.81.25,43.63,0,65.45.21,4.11,0,5.24-1.07,5.14-5.16-.29-11.25-.25-22.52,0-33.78.07-3.72-1.23-4.51-4.69-4.48-19.08.15-38.18.12-57.27,0-4.5,0-10.28,1.92-13.17-.8s-.37-8.63-1-13.07c-.76-5.13,1.56-5.85,6.09-5.81,22.18.22,44.36,0,66.54.18,3.57,0,5.1-.56,5-4.63-.29-11.25-.29-22.53,0-33.78.11-4.09-1.45-4.62-5-4.61q-59.73.16-119.45,0c-3.79,0-4.87.92-4.84,4.78C645,785.4,644.9,812.1,644.9,838.8Zm164.74.44c0,26.69.07,53.38-.09,80.07,0,3.82,1.06,4.83,4.86,4.82q59.7-.21,119.4,0c4.27,0,5.11-1.31,5-5.23-.26-10.89-.34-21.8,0-32.68.16-4.7-1.45-5.59-5.82-5.55-22.17.23-44.35,0-66.52.22-4.41.05-5.71-1.28-5.3-5.48a52.54,52.54,0,0,0,0-10.34c-.43-4.23.94-5.51,5.32-5.46,21.81.24,43.62,0,65.43.18,3.64,0,5.11-.77,5-4.75-.25-11.25-.23-22.51,0-33.77.08-3.8-1.07-4.92-4.89-4.88-18.9.18-37.8.14-56.7,0-4.5,0-10.28,1.94-13.16-.81s-.43-8.63-1-13.08.89-5.84,5.54-5.79c22.17.25,44.35,0,66.51.23,4.7.06,5.69-1.35,5.55-5.75-.33-10.52-.32-21.07,0-31.59.13-4.36-.79-5.8-5.53-5.77q-59.14.32-118.31,0c-4.84,0-5.49,1.58-5.46,5.84C809.73,786.22,809.64,812.73,809.64,839.24ZM1026.81,816l-1-.45c0-18.88-.09-37.77.08-56.66,0-3.61-.58-5-4.64-5-14.17.27-28.36.18-42.54.05-3.08,0-4.45.42-4.44,4.06q.18,80.93,0,161.85c0,3.36,1,4.3,4.3,4.26q21.55-.25,43.1,0c3.47,0,4.25-1.07,4.19-4.33-.19-10.35.67-20.77-.28-31-.91-9.89,2.82-17.11,9.77-23.76.9,1.3,1.85,2.59,2.71,3.93,8.7,13.6,18.27,26.74,25.8,41,6.06,11.45,13.64,15.58,26.52,14.46,14.89-1.3,30-.3,45-.3,0-2.36-1.48-3.37-2.41-4.62Q1102.7,878.2,1072.25,837c-2.14-2.87-2.51-4.71,0-7.75,19.54-23.67,38.86-47.52,58.21-71.34.84-1,2.3-1.85,1.93-3.58a4.13,4.13,0,0,0-1-.32c-13.82,0-27.64-.07-41.46,0-6.53,0-14.11-1.81-19.29.89s-8,10-11.73,15.3Q1042.81,793.06,1026.81,816Z"></path><path class="cls-6" d="M777.48,954.75l3.95,2.91a25.05,25.05,0,0,1-.12,4.34c-.74,3.65-3,5.92-6.84,5.68a6.09,6.09,0,0,1-6-6c-.24-3.52,1.84-5.8,5.2-6.7A17.6,17.6,0,0,1,777.48,954.75Z"></path><path class="cls-6" d="M576.54,940.21a8.75,8.75,0,0,1,4-2.9,9.61,9.61,0,0,1,5.27.87c2.63,1.51,4,3.77,3.42,6.73a6.21,6.21,0,0,1-5.46,5.3c-3,.44-5.19-1-6.64-3.63C576,944.51,576.48,942.36,576.54,940.21Z"></path><path class="cls-6" d="M1117.49,958l5-3.3c3.31,0,6.12.91,7.45,4.23,1.45,3.64.08,6.39-3.23,8.07-3.52,1.78-6.23.4-8.27-2.69C1117.13,962.34,1117.63,960.12,1117.49,958Z"></path><path class="cls-6" d="M433.42,789.44c-1.26,1.32-2.51,2.64-3.77,3.95a20.43,20.43,0,0,1-3.23-.06c-3.64-.63-6-2.8-5.94-6.53a6,6,0,0,1,6.11-6.31c3.74-.2,6,2.11,6.72,5.72A18.24,18.24,0,0,1,433.42,789.44Z"></path><path class="cls-6" d="M450.88,772a12,12,0,0,1-4,4c-1.61-.19-3.33-.08-4.8-.63A5.91,5.91,0,0,1,438,768.5a6.14,6.14,0,0,1,5.4-5.4,5.91,5.91,0,0,1,6.86,4.11A20.8,20.8,0,0,1,450.88,772Z"></path><path class="cls-6" d="M467.32,757.51c-1.52-.4-2.78.55-4.17.8-3.23.58-5.61-.72-7.12-3.63s-.65-5.36,1.47-7.35a5.66,5.66,0,0,1,7-1.09c2.89,1.54,4.21,3.9,3.62,7.12-.25,1.39-1.2,2.65-.79,4.17Z"></path><path class="cls-6" d="M398.53,821.87c-.67,3.88-2.81,6.48-6.81,6.28s-6.36-2.8-6.14-6.77a6,6,0,0,1,6.39-6C396,815.4,398,818,398.53,821.87Z"></path><path class="cls-6" d="M1125.33,828.31c-3.88-.42-6.55-2.45-6.61-6.43s2.45-6.47,6.41-6.51a6,6,0,0,1,6.38,6C1131.74,825.39,1129.2,827.56,1125.33,828.31Z"></path><path class="cls-6" d="M1160,828.31c-3.88-.58-6.5-2.67-6.4-6.66s2.68-6.4,6.65-6.27a6,6,0,0,1,6.15,6.24C1166.49,825.62,1163.91,827.72,1160,828.31Z"></path><path class="cls-6" d="M1100,839c.75-3.87,2.93-6.44,6.93-6.16s6.32,2.92,6,6.9a6,6,0,0,1-6.5,5.89C1102.46,845.49,1100.43,842.86,1100,839Z"></path><path class="cls-6" d="M1134.93,839c.75-3.87,2.93-6.44,6.93-6.16s6.32,2.92,6,6.9a6,6,0,0,1-6.5,5.89C1137.37,845.49,1135.35,842.86,1134.93,839Z"></path><path class="cls-6" d="M391.85,863.19c-3.88-.68-6.48-2.83-6.26-6.82s2.83-6.36,6.8-6.11a6,6,0,0,1,6,6.4C398.34,860.65,395.73,862.7,391.85,863.19Z"></path><path class="cls-6" d="M1130.57,856.74c-.66,3.88-2.8,6.48-6.8,6.29s-6.37-2.8-6.15-6.77a6,6,0,0,1,6.38-6C1128,850.27,1130.06,852.88,1130.57,856.74Z"></path><path class="cls-6" d="M1165.51,856.36c-.56,4.08-2.62,6.72-6.62,6.67s-6.43-2.6-6.36-6.56a6,6,0,0,1,6.17-6.22C1162.75,850.1,1164.77,852.76,1165.51,856.36Z"></path><path class="cls-6" d="M1148,873.86c-.42,3.88-2.45,6.55-6.43,6.61s-6.47-2.44-6.52-6.4a6,6,0,0,1,6-6.38C1145.09,867.45,1147.27,870,1148,873.86Z"></path><path class="cls-6" d="M551.47,740.88c-2.38.43-4.58-.4-6.83-.94-.23-.48-.44-1-.72-1.44-2.21-3.67-1.78-6.93,1.84-9.32,3.25-2.14,6.36-1.27,8.48,1.74,2.53,3.57,1.48,6.75-2,9.23A9,9,0,0,0,551.47,740.88Z"></path><path class="cls-6" d="M390.81,885c3.87.53,6.52,2.59,6.47,6.58s-2.6,6.42-6.57,6.36a6,6,0,0,1-6.22-6.17C384.36,887.75,386.92,885.63,390.81,885Z"></path><path class="cls-6" d="M1165.5,891.12c-.46,4.08-2.49,6.74-6.48,6.79s-6.46-2.47-6.49-6.43c0-3.71,2.38-6.13,6-6.36C1162.62,884.88,1164.67,887.53,1165.5,891.12Z"></path><path class="cls-6" d="M397.46,926c-.45,4-2.48,6.72-6.46,6.78s-6.47-2.45-6.51-6.41c0-3.72,2.36-6.14,6-6.38C394.55,919.74,396.62,922.39,397.46,926Z"></path><path class="cls-6" d="M1165.48,926.53c-.68,3.88-2.83,6.47-6.83,6.26s-6.36-2.83-6.12-6.8a6,6,0,0,1,6.41-6C1162.94,920.05,1165,922.66,1165.48,926.53Z"></path><path class="cls-6" d="M408.35,950.39c-3.88-.59-6.5-2.68-6.4-6.67s2.68-6.4,6.65-6.27a6,6,0,0,1,6.15,6.25C414.81,947.7,412.23,949.79,408.35,950.39Z"></path><path class="cls-6" d="M1134.9,942.3a14.88,14.88,0,0,1,5-5c6.35.8,9.39,4.35,7.49,8.84-1.26,3-3.62,4.65-6.81,4.08C1136.4,949.44,1134.82,946.37,1134.9,942.3Z"></path><path class="cls-6" d="M397.47,961.28c-.77,4.06-2.94,6.65-6.93,6.38s-6.34-2.88-6-6.87a6,6,0,0,1,6.47-5.91C395,955,396.92,957.66,397.47,961.28Z"></path><path class="cls-6" d="M432.35,961.25c-.57,3.87-2.65,6.5-6.65,6.42s-6.41-2.66-6.3-6.62a6,6,0,0,1,6.23-6.17C429.63,954.8,431.74,957.37,432.35,961.25Z"></path><path class="cls-6" d="M460.65,967.82c-3.89-.64-6.5-2.76-6.33-6.75s2.76-6.37,6.74-6.18a6,6,0,0,1,6.05,6.33C467.12,965.22,464.52,967.29,460.65,967.82Z"></path><path class="cls-6" d="M572,961.15c-.7,4.11-2.84,6.71-6.84,6.51s-6.36-2.79-6.14-6.77a6,6,0,0,1,6.38-6C569.47,954.88,571.39,957.6,572,961.15Z"></path><path class="cls-6" d="M600.29,967.82c-3.89-.64-6.49-2.76-6.33-6.75s2.76-6.38,6.74-6.18a6,6,0,0,1,6.06,6.33C606.76,965.22,604.16,967.29,600.29,967.82Z"></path><path class="cls-6" d="M1025.87,961.32c-.79,4-3,6.63-7,6.34s-6.32-2.91-6-6.9a6,6,0,0,1,6.5-5.88C1023.42,955,1025.35,957.69,1025.87,961.32Z"></path><path class="cls-6" d="M1165.48,961.32c-.62,3.88-2.73,6.49-6.73,6.35s-6.39-2.74-6.22-6.71a6,6,0,0,1,6.31-6.08C1162.84,954.86,1164.92,957.44,1165.48,961.32Z"></path><path class="cls-6" d="M416,734.5c-.54,3.86-2.6,6.51-6.6,6.46s-6.42-2.6-6.36-6.56a6,6,0,0,1,6.18-6.22C413.21,728.05,415.34,730.61,416,734.5Z"></path><path class="cls-6" d="M450.89,734.35c-.42,3.88-2.45,6.55-6.43,6.61s-6.47-2.45-6.52-6.4a6,6,0,0,1,6-6.38C448,727.94,450.14,730.48,450.89,734.35Z"></path><path class="cls-6" d="M479,728c3.88.42,6.55,2.45,6.62,6.42s-2.45,6.47-6.41,6.52a6,6,0,0,1-6.38-6C472.62,731,475.16,728.78,479,728Z"></path><path class="cls-6" d="M518.62,739.91,510.83,741a1.53,1.53,0,0,0-.2-.49c-2.79-3.26-4.56-6.73-1-10.44a5.78,5.78,0,0,1,8.27-.66C522,732.58,520.81,736.25,518.62,739.91Z"></path><path class="cls-6" d="M590.54,734.41c-.47,3.88-2.52,6.54-6.5,6.55s-6.46-2.51-6.45-6.48a6,6,0,0,1,6.08-6.3C587.68,728,589.83,730.54,590.54,734.41Z"></path><path class="cls-6" d="M619,741.12c-3.87-.49-6.53-2.54-6.52-6.53s2.54-6.44,6.51-6.41a6,6,0,0,1,6.28,6.11C625.47,738.29,622.91,740.43,619,741.12Z"></path><path class="cls-6" d="M653.65,728c3.88.47,6.54,2.51,6.56,6.5s-2.52,6.44-6.49,6.44a6,6,0,0,1-6.31-6.08C647.22,730.89,649.77,728.73,653.65,728Z"></path><path class="cls-6" d="M689.13,741.14c-4.09-.46-6.76-2.49-6.8-6.47s2.47-6.46,6.43-6.49a6,6,0,0,1,6.37,6C695.37,738.26,692.72,740.3,689.13,741.14Z"></path><path class="cls-6" d="M723.59,741.12c-3.88-.62-6.5-2.74-6.35-6.73S720,728,724,728.18a6,6,0,0,1,6.09,6.31C730.06,738.49,727.46,740.57,723.59,741.12Z"></path><path class="cls-6" d="M758.71,728c3.88.71,6.47,2.87,6.23,6.86s-2.87,6.34-6.85,6.07a6,6,0,0,1-6-6.44C752.21,730.53,754.83,728.49,758.71,728Z"></path><path class="cls-6" d="M793.38,728c3.87.53,6.52,2.59,6.47,6.58s-2.6,6.42-6.57,6.36a6,6,0,0,1-6.23-6.17C786.93,730.8,789.49,728.68,793.38,728Z"></path><path class="cls-6" d="M834.92,734.51c-.54,3.86-2.61,6.5-6.6,6.45s-6.43-2.6-6.35-6.57a6,6,0,0,1,6.18-6.21C832.15,728.06,834.28,730.62,834.92,734.51Z"></path><path class="cls-6" d="M863.05,728c3.88.42,6.56,2.45,6.62,6.42s-2.45,6.47-6.41,6.52a6,6,0,0,1-6.38-6C856.64,731,859.18,728.78,863.05,728Z"></path><path class="cls-6" d="M904.78,734.42c-.68,4.1-2.81,6.7-6.8,6.54s-6.38-2.76-6.19-6.73a6,6,0,0,1,6.34-6.06C902.17,728.15,904.13,730.84,904.78,734.42Z"></path><path class="cls-6" d="M933.09,741.12c-3.88-.6-6.5-2.7-6.38-6.69s2.7-6.39,6.67-6.25a6,6,0,0,1,6.12,6.27C939.55,738.45,937,740.54,933.09,741.12Z"></path><path class="cls-6" d="M968.08,741.12c-3.87-.54-6.51-2.6-6.46-6.59s2.6-6.42,6.57-6.35a6,6,0,0,1,6.22,6.18C974.53,738.36,972,740.48,968.08,741.12Z"></path><path class="cls-6" d="M1003.09,741.15c-4.1-.65-6.71-2.77-6.56-6.76s2.74-6.38,6.71-6.21a6,6,0,0,1,6.09,6.31C1009.37,738.53,1006.68,740.49,1003.09,741.15Z"></path><path class="cls-6" d="M1038,728c3.88.73,6.46,2.89,6.2,6.89s-2.88,6.33-6.87,6a6,6,0,0,1-5.92-6.47C1031.52,730.51,1034.14,728.48,1038,728Z"></path><path class="cls-6" d="M1079.33,734.3c-.57,4.07-2.64,6.71-6.63,6.66s-6.43-2.6-6.35-6.57a6,6,0,0,1,6.18-6.22C1076.57,728,1078.59,730.69,1079.33,734.3Z"></path><path class="cls-6" d="M1114.2,734.36c-.42,3.87-2.45,6.54-6.43,6.6s-6.47-2.45-6.52-6.41a6,6,0,0,1,6-6.37C1111.28,728,1113.46,730.48,1114.2,734.36Z"></path><path class="cls-6" d="M1142.61,728c4.05.78,6.63,3,6.35,7s-2.92,6.32-6.91,6a6,6,0,0,1-5.89-6.5C1136.26,730.44,1139,728.52,1142.61,728Z"></path><path class="cls-6" d="M391.85,758.56c-3.88-.69-6.48-2.83-6.26-6.83s2.83-6.35,6.8-6.11a6,6,0,0,1,6,6.41C398.34,756,395.73,758.07,391.85,758.56Z"></path><path class="cls-6" d="M427.3,758.58c-4.09-.46-6.76-2.5-6.81-6.48s2.48-6.45,6.44-6.48a6,6,0,0,1,6.36,6C433.54,755.7,430.88,757.74,427.3,758.58Z"></path><path class="cls-6" d="M608,751.84c-.65,4.09-2.77,6.7-6.77,6.56s-6.38-2.73-6.21-6.7a6,6,0,0,1,6.31-6.09C605.39,745.57,607.37,748.25,608,751.84Z"></path><path class="cls-6" d="M1166.57,751.86c-.48,3.88-2.52,6.53-6.51,6.54s-6.45-2.53-6.44-6.49a6,6,0,0,1,6.1-6.29C1163.72,745.44,1165.87,748,1166.57,751.86Z"></path><path class="cls-6" d="M416,769.64c-.73,3.87-2.89,6.45-6.89,6.2s-6.34-2.89-6-6.87a6,6,0,0,1,6.47-5.92C413.5,763.14,415.54,765.76,416,769.64Z"></path><path class="cls-6" d="M398.53,786.88c-.58,3.87-2.67,6.49-6.67,6.4s-6.4-2.67-6.28-6.64a6,6,0,0,1,6.25-6.15C395.83,780.42,397.93,783,398.53,786.88Z"></path><path class="cls-6" d="M1166.57,786.68c-.44,3.89-2.47,6.55-6.46,6.6s-6.46-2.47-6.49-6.43a6,6,0,0,1,6-6.35C1163.67,780.27,1165.83,782.82,1166.57,786.68Z"></path><path class="cls-6" d="M416,804.31c-.58,3.88-2.68,6.5-6.67,6.41s-6.41-2.67-6.29-6.64a6,6,0,0,1,6.25-6.15C413.28,797.86,415.39,800.43,416,804.31Z"></path><path class="cls-6" d="M1149.12,804.18c-.48,3.87-2.53,6.53-6.52,6.54s-6.45-2.53-6.43-6.49a6,6,0,0,1,6.09-6.3C1146.27,797.76,1148.42,800.31,1149.12,804.18Z"></path><path class="cls-6" d="M593.81,925.17a16.83,16.83,0,0,1,5.31-5.31c6,.88,9,4.27,7.3,8.57-1.15,3-3.46,4.8-6.65,4.35C595.58,932.2,593.74,929.31,593.81,925.17Z"></path><path class="cls-6" d="M411,902.47l4,8.54c-1.38,1.1-2,2.9-3.81,3.67-3.86,1.66-6.71.48-8.55-3s-.47-6.2,2.59-8.25C407,902.24,409,902.42,411,902.47Z"></path><path class="cls-6" d="M1136,770.19c1.51-3.3,4.2-5.72,6.42-8.48a22.66,22.66,0,0,0,2.6,1.79c2.91,1.47,4.48,3.77,3.93,7a6.15,6.15,0,0,1-5.46,5.31c-3.25.47-5.54-1.16-6.89-4.11C1136.33,771.21,1136.16,770.7,1136,770.19Z"></path><path class="cls-6" d="M944.26,956.7c3.73,2.41,8.08,1,12,1.94a23.05,23.05,0,0,1-.65,4.26c-1.22,3.5-3.78,5.54-7.49,4.63s-5.72-3.67-5-7.76A21,21,0,0,1,944.26,956.7Z"></path><path class="cls-6" d="M628.42,958.64a49.82,49.82,0,0,1,13.69,0c-.12,1.07-.16,2.17-.38,3.23-.76,3.63-3,6.07-6.73,5.8C629.58,967.29,628.75,963,628.42,958.64Z"></path><path class="cls-6" d="M663.33,958.64a49.82,49.82,0,0,1,13.69,0c-.12,1.07-.16,2.17-.38,3.23-.76,3.63-3,6.07-6.73,5.8C664.49,967.29,663.66,963,663.33,958.64Z"></path><path class="cls-6" d="M698.24,958.64a49.82,49.82,0,0,1,13.69,0c-.12,1.07-.16,2.17-.38,3.23-.76,3.63-3,6.07-6.73,5.8C699.4,967.29,698.57,963,698.24,958.64Z"></path><path class="cls-6" d="M733.15,958.64a49.82,49.82,0,0,1,13.69,0,32,32,0,0,1-.38,3.23c-.75,3.63-3,6.07-6.73,5.8C734.31,967.29,733.48,963,733.15,958.64Z"></path><path class="cls-6" d="M803,958.64a49.74,49.74,0,0,1,13.68,0c-.12,1.07-.15,2.17-.37,3.23-.76,3.63-3,6.07-6.74,5.8C804.13,967.29,803.31,963,803,958.64Z"></path><path class="cls-6" d="M837.89,958.64a49.82,49.82,0,0,1,13.69,0c-.13,1.07-.16,2.17-.38,3.23-.76,3.63-3,6.07-6.73,5.8C839,967.29,838.22,963,837.89,958.64Z"></path><path class="cls-6" d="M872.8,958.64a49.82,49.82,0,0,1,13.69,0c-.12,1.07-.16,2.17-.38,3.23-.76,3.63-3,6.07-6.73,5.8C874,967.29,873.13,963,872.8,958.64Z"></path><path class="cls-6" d="M907.71,958.64l13-1c.67,3.56.57,6.86-2.93,9.07-2.45,1.55-4.8,1.23-7.07-.35C908,964.5,908.14,961.45,907.71,958.64Z"></path><path class="cls-6" d="M1047.49,958.29l13.55.35a28.33,28.33,0,0,1-.63,4.24c-1,3.06-3.14,4.91-6.37,4.82s-5.32-2.05-6.15-5.13A25.14,25.14,0,0,1,1047.49,958.29Z"></path><path class="cls-6" d="M1082.27,958.64a49.74,49.74,0,0,1,13.68,0c-.12,1.07-.15,2.17-.37,3.23-.76,3.63-3,6.07-6.74,5.8C1083.42,967.29,1082.59,963,1082.27,958.64Z"></path><path class="cls-6" d="M977.53,958.64a49.82,49.82,0,0,1,13.69,0c-.12,1.07-.16,2.17-.38,3.23-.76,3.63-3,6.07-6.73,5.8C978.69,967.29,977.86,963,977.53,958.64Z"></path><path class="cls-6" d="M1119.65,790.15c2.07-3.24,4.14-6.49,7.42-8.71,3.52.24,4.39,2.84,4.45,5.6a5.89,5.89,0,0,1-4,5.76C1124.14,794.13,1121.58,793,1119.65,790.15Z"></path><path class="cls-6" d="M524,961.08l12.66-2.34c1.06,4.62-.6,8.06-5.25,8.82C527,968.29,524.54,965.47,524,961.08Z"></path><path class="cls-6" d="M439,939.45a41.54,41.54,0,0,1,9.71,6.76c-2.56,4.28-5.84,5.47-9.07,2.84C436.27,946.26,435.29,942.91,439,939.45Z"></path><path class="cls-6" d="M1144.29,914.42a34.15,34.15,0,0,1-7.19-9.78c3.53-3.6,7-2.73,9.59.83S1148.31,912.29,1144.29,914.42Z"></path><path class="cls-6" d="M957.1,754.26a17.51,17.51,0,0,1-2,2.47c-1.15,1-1.84,3.24-3.76,2.44-1.57-.66-.85-2.6-.78-3.94.18-3.69-1.41-6.65-3.43-9.5C954.6,745.26,956.7,747.05,957.1,754.26Z"></path><path class="cls-6" d="M489,960.31l13.35,1.29c-.8,4-3.07,6.53-7.35,6.13S489,964.4,489,960.31Z"></path><path class="cls-6" d="M1059.66,747.71a41.24,41.24,0,0,1-8.68,8.67c-3.21-2.89-2.89-6.11-.16-8.83S1056.77,744.5,1059.66,747.71Z"></path><path class="cls-6" d="M421.81,922c2.83,2.63,5.77,5.16,7.26,8.88-2.62,3.78-5.59,2.1-7.77-.09C418.55,928,418.14,924.74,421.81,922Z"></path><path class="cls-6" d="M1104.09,809.36c2.24-3.41,4.41-6.88,7.72-9.41,3.25,2.53,3,5.59.74,8.38S1107.26,811.89,1104.09,809.36Z"></path><path class="cls-6" d="M1130.33,896.06l-7.64-10.81C1129.47,885.26,1130.81,887.17,1130.33,896.06Z"></path><path class="cls-6" d="M1032.06,941.63c3.17,2,4.48,5.33,6,8.5-3.29.53-5.73-.71-7.09-3.71C1030.19,944.69,1029.07,942.62,1032.06,941.63Z"></path><path class="cls-6" d="M1088.84,828a48.42,48.42,0,0,1,7.63-9.71C1097,826,1095.4,828.07,1088.84,828Z"></path><path class="cls-6" d="M1042.21,765.15a8.51,8.51,0,0,1-4,3.82c-.82-2.08-.41-4.11-.35-6.09C1039.59,763.12,1041.19,763.58,1042.21,765.15Z"></path><path class="cls-4" d="M706.21,638.71c0-13.79.18-27.58.07-41.37,0-3.39.71-4.78,4.48-4.71q18.51.33,37,0c3.78-.07,4.47,1.36,4.42,4.72-.16,12.16-.19,24.32,0,36.47.06,3.67-.76,5-4.73,4.94-13.8-.26-27.6-.12-41.41-.14Z"></path><path class="cls-7" d="M568,824.12c12.36,0,24.72.12,37.08-.08,3.41,0,4.28,1,4.26,4.31q-.2,30.51,0,61c0,2.9-1.21,4.75-3,6.58C584.1,918.52,557,928.41,525.55,926.8c-22.6-1.16-43.14-8.06-60.14-23.45-21.86-19.78-29.63-45-27.09-73.73,4.41-49.69,45.51-79.85,96.16-78.6,29.19.73,53.13,11.88,69.36,37.22,2.33,3.65,2.06,5.29-1.84,7.2-12,5.91-23.93,12.13-35.88,18.24-1.78.91-3.07,1.83-4.78-.71-9.82-14.6-23.8-18.84-40.44-15.05-15.69,3.57-27.24,16.74-29.77,33.18-3.58,23.2,8.22,43.13,29.16,48.77,12.06,3.24,23.75,1.51,35-3.71,2.19-1,3.93-2.15,3.91-5.18s-.55-4.56-4.16-4.43c-8,.28-16-.13-24,.18-3.94.15-4.85-1.21-4.77-4.93q.35-16.6,0-33.23c-.08-3.66,1.13-4.58,4.64-4.52C543.26,824.24,555.62,824.12,568,824.12Z"></path><path class="cls-7" d="M644.9,838.8c0-26.7.08-53.4-.09-80.1,0-3.86,1.05-4.79,4.84-4.78q59.72.21,119.45,0c3.55,0,5.11.52,5,4.61-.29,11.25-.29,22.53,0,33.78.11,4.07-1.42,4.65-5,4.63-22.18-.15-44.36,0-66.54-.18-4.53,0-6.85.68-6.09,5.81.66,4.44-1.92,10.31,1,13.07s8.67.78,13.17.8c19.09.08,38.19.11,57.27,0,3.46,0,4.76.76,4.69,4.48-.24,11.26-.28,22.53,0,33.78.1,4.09-1,5.2-5.14,5.16-21.82-.21-43.64,0-65.45-.21-4.6,0-6.13,1.26-5.57,5.75.63,5-2.17,11.68,1.16,14.56,2.86,2.47,9.36.83,14.24.84,19.09,0,38.18.11,57.27-.06,3.72,0,5,.82,4.93,4.76-.26,11.43-.2,22.88,0,34.32,0,3.3-.84,4.33-4.25,4.32q-60.27-.18-120.54,0c-3.77,0-4.46-1.28-4.45-4.68C645,892.57,644.9,865.69,644.9,838.8Z"></path><path class="cls-7" d="M809.64,839.24c0-26.51.09-53-.1-79.52,0-4.26.62-5.87,5.46-5.84q59.16.35,118.31,0c4.74,0,5.66,1.41,5.53,5.77-.32,10.52-.33,21.07,0,31.59.14,4.4-.85,5.81-5.55,5.75-22.16-.27-44.34,0-66.51-.23-4.65,0-6.09,1.38-5.54,5.79s-1.93,10.29,1,13.08,8.66.79,13.16.81c18.9.1,37.8.14,56.7,0,3.82,0,5,1.08,4.89,4.88-.22,11.26-.24,22.52,0,33.77.09,4-1.38,4.78-5,4.75-21.81-.14-43.62.06-65.43-.18-4.38,0-5.75,1.23-5.32,5.46a52.54,52.54,0,0,1,0,10.34c-.41,4.2.89,5.53,5.3,5.48,22.17-.24,44.35,0,66.52-.22,4.37,0,6,.85,5.82,5.55-.36,10.88-.28,21.79,0,32.68.09,3.92-.75,5.25-5,5.23q-59.7-.27-119.4,0c-3.8,0-4.88-1-4.86-4.82C809.71,892.62,809.64,865.93,809.64,839.24Z"></path><path class="cls-7" d="M1026.81,816q16-22.87,32.06-45.75c3.75-5.33,6.56-12.6,11.73-15.3s12.76-.87,19.29-.89c13.82,0,27.64,0,41.46,0a4.13,4.13,0,0,1,1,.32c.37,1.73-1.09,2.54-1.93,3.58-19.35,23.82-38.67,47.67-58.21,71.34-2.5,3-2.13,4.88,0,7.75q30.52,41.1,60.81,82.39c.93,1.25,2.36,2.26,2.41,4.62-15.07,0-30.16-1-45,.3-12.88,1.12-20.46-3-26.52-14.46-7.53-14.22-17.1-27.36-25.8-41-.86-1.34-1.81-2.63-2.71-3.93-7,6.65-10.68,13.87-9.77,23.76,1,10.27.09,20.69.28,31,.06,3.26-.72,4.38-4.19,4.33q-21.56-.3-43.1,0c-3.32,0-4.31-.9-4.3-4.26q.13-80.93,0-161.85c0-3.64,1.36-4.09,4.44-4.06,14.18.13,28.37.22,42.54-.05,4.06-.07,4.68,1.34,4.64,5-.17,18.89-.08,37.78-.08,56.66Z"></path></g></g></svg>