<svg xmlns="http://www.w3.org/2000/svg" viewBox="0 0 640 640"><defs><style>.cls-1{fill:#09094b;}.cls-2{fill:#fff;}.cls-3{fill:#010101;}.cls-4{fill:#f432b6;}.cls-5{fill:#ffcb05;}</style></defs><g id="Camada_2" data-name="Camada 2"><g id="Camada_1-2" data-name="Camada 1"><circle class="cls-1" cx="320" cy="320" r="320"/><polygon class="cls-2" points="266.76 402.91 318.15 402.91 318.27 378.24 327.39 378.24 327.74 402.91 434.86 402.91 442.12 390.97 444.4 402.91 471.63 402.91 482.4 389.1 480.02 379.57 501.02 391.94 541.18 391.94 557 378.59 532.52 312.53 494.54 312.53 467.88 330.89 464.45 317.1 458.9 312.69 478.51 312.69 478.75 312.34 478.89 312.34 479.12 312 479.27 312 479.5 311.64 479.65 311.64 479.88 311.29 480.03 311.29 480.26 310.95 480.41 310.95 480.65 310.6 480.79 310.6 481.03 310.25 481.18 310.25 481.41 309.9 481.56 309.9 481.8 309.56 481.94 309.56 482.18 309.21 482.33 309.21 482.56 308.87 482.71 308.87 482.95 308.52 483.1 308.52 483.34 308.17 483.49 308.17 483.73 307.83 483.88 307.83 484.12 307.49 484.27 307.49 484.51 307.14 484.66 307.14 484.9 306.8 485.05 306.8 485.29 306.46 485.45 306.46 485.69 306.12 485.84 306.12 486.08 305.77 486.23 305.77 486.48 305.43 486.63 305.43 486.87 305.09 487.03 305.09 487.27 304.74 487.42 304.74 487.67 304.41 487.82 304.41 488.07 304.07 488.23 304.07 488.47 303.73 488.63 303.73 488.87 303.39 489.03 303.39 489.28 303.05 489.44 303.05 489.69 302.72 489.84 302.72 490.09 302.38 490.24 302.38 499.55 289.75 485.64 247.06 470.93 237.09 441.39 237.09 441.14 237.35 441.08 237.35 440.84 237.62 440.78 237.62 440.54 237.89 440.48 237.89 440.24 238.15 440.18 238.15 439.94 238.42 439.88 238.42 439.64 238.69 439.58 238.69 439.33 238.96 439.29 238.96 439.05 239.23 438.99 239.23 438.75 239.5 438.69 239.5 438.45 239.76 438.4 239.76 438.16 240.04 438.11 240.04 437.87 240.31 437.81 240.31 437.57 240.57 437.51 240.57 437.28 240.85 437.22 240.85 436.98 241.11 436.93 241.11 436.7 241.39 436.64 241.39 436.4 241.66 436.34 241.66 436.12 241.92 436.06 241.92 435.82 242.2 435.77 242.2 435.56 242.45 434.34 237.09 351.4 237.09 348.76 246.33 348.93 249.31 334.29 237.09 320.65 237.09 305.85 249.76 305.85 249.55 305.81 249.5 305.81 249.27 305.77 249.22 305.77 248.99 305.73 248.95 305.73 248.71 305.7 248.66 305.71 248.43 305.66 248.38 305.67 248.15 305.62 248.11 305.62 247.87 305.58 247.83 305.59 247.59 305.54 247.56 305.54 247.32 294.11 237.09 264.59 237.09 260.48 240.3 258.74 237.09 209.66 237.09 208.08 244.25 200.61 237.09 154.93 237.09 148.48 256.64 155.18 261.25 149.63 278.89 141.12 278.89 133.63 301.55 147.47 312.69 182.14 312.69 176.6 317.11 172.99 331.71 145.14 312.53 107.15 312.53 83 377.72 99.79 391.94 138.66 391.94 165.31 376.24 183.67 402.91 257.19 402.91 259.28 381.34 263.73 381.34 263.06 389.1 266.76 402.91"/><path class="cls-3" d="M303.17,248.59l-10-9H265.36l-6,4.67-2.58-4.67H211.51l-2.14,9.81-9.93-9.81H156.61l-5.21,15.9,6.66,4.59-6.71,21.47h-8.56l-6.16,18.75,12.7,10.28h39.58l-10.13,8.08-4.33,17.7-1.09-.75-29.31-20.26H108.84L86.39,376.19,102,389.51h36.38l27.93-16.43,9.23,13.61h0l.31.44h0l.3.46h0l.3.45h0l.31.44h0l.3.46h0l.3.45h0l.3.45h0l.3.45h0l.3.46h0l.3.45h0l.29.45h0l.3.46h0l.29.46h0l.29.45h0l.29.46h0l.3.47h0l.28.45h0l.3.46h0l.28.46h0l.3.46h0l.29.46h0l.29.47h0l.29.45h0l.28.47h0l.29.47h0l.29.46h0l.28.47h0l.28.46h0l.29.47h0l.27.47h46.1v-.29l.06-.46.07-.47.06-.47.06-.46.06-.46.07-.47v-.19h.07l1.14,3.27h22v-.29l.05-.46,0-.47,2-20.26h9.52l-.65,7.74,4.57,13.73h22V388.05h0l1.09,8.2.5,4.19h22.49V388.19l.11-16.52,1.65,4.18h10.71l1.62-4.18.45,28.73h22l1.9-11.94h.09l.7,12h77l7.74-15.23,4.89,4.84,2,10.39h22L479,386.68l-2.94-12,25.21,14.83h36.37l15.65-13.32-22.44-60.82H495.65l-29.23,20.19-.37-1.48-3.81-15.38-10.15-8.08H477l.23-.35h.14l.23-.36h.15l.23-.34h.15l.23-.35h.15l.23-.34h.16l.24-.36h.15l.23-.34h.15l.23-.34h.15l.23-.34h.15l.24-.36h.14l.23-.34h.15l.23-.34h.16l.23-.34H482l.24-.35h.15l.24-.34h.15l.24-.34h.15l.24-.34h.15l.24-.35H484l.24-.34h.15l.25-.33h.15l.24-.35h.16l.24-.34h.21l.25-.33H486l.25-.34h.15l.25-.35h.15l.25-.33h.16l.25-.34h.15l.25-.33H488l.25-.35h.15l.25-.33h.16l8.06-10.91-13.21-40.81-13.29-9H442.6l-.25.28h-.05l-.25.26H442l-.25.27h-.06l-.24.27h-.05l-.25.26h-.06l-.23.27h-.06l-.25.28h-.05l-.24.26h-.06L440,242h0l-.23.27h-.06l-.24.27h-.06l-.23.27H439l-.24.27h-.06l-.23.27h-.05l-.24.28h-.06l-.24.26h-.05l-.23.28h-.06l-.24.27h0l-.23.27H437l-.23.28h-.06l-.23.26h0l-.24.28h-.12l-.24.28h0l-.24.27h-.05l-.23.27h-.05l-.23.27H435l-.23.28h0l-.23.28h0l-.17.21-.08-.32-1.77-7.49h-79l-2.4,8.15.43,7-18.1-15.12H321.55L304,254.64v-.18ZM445.27,244h24.15l9.74,6.66L490.8,287.8l-6,7.93h-26.6l-10.3-7.92-8.72-37.11Zm-16.89,0,1.65,7.61h-9.68l6.92,35.1h10.36l1.9,9h-30.8l-1.46-9h10.35l-6.26-35.07h-9.72l-1.23-7.62Zm-34.82,0,1.12,7.61h-27L369,264.72h19.36l1,7.83H369.68l2.19,23.18h-9.81L358.12,244ZM258,250.69l8.47-6.66h24.11l7.37,6.66-.32,7.32h-9.13l.24-4-2.51-2.33H269.56L266.71,254l-.84,8.1,2.46,2.42h21.1l7.62,7.25-.7,16.08-8.79,7.91H261l-7.48-7.92,1-8.18H264l-.46,4.46,2.56,2.64h17.83l3-2.64.53-8.8-2.6-2.52H263.39l-7.15-7.24ZM214.92,244h36.23l-1,7.61H222.34l-2.51,13.08h20.23l-1.2,7.83H218.33l-2.71,14.19H245.3l-1.24,9h-40Zm-31.66,51.73H143l2.85-9h8.62l10.67-35.1h-8.07l2.45-7.61H196l6.11,6.66-8.56,37.11Zm-15.63,52.34-42.52,22.27H94l17.68-49.13h28.69l28.94,20.29Zm59.44-16.49H216.6l1.05-5.93-2.49-3h-19l-3.66,3-8.56,39.54,2.49,3.48h23.79L213,352.91h-9.73l2-10.26h20.15l-6,38H178.93l-7.25-10.51,11.49-48.71,10.75-8.67h27.42l7.3,8.67Zm56.21,49H272l1.51-20.15H246.84l-2.4,20.17H233.13l6.77-49.82,20.29-18.08h9.15l16.8,18.08Zm53.14,0-1-38.63-3.61-.84-7.23,16.35H320.5l-7.37-16.35-3.59.84-.67,38.63h-11.3l2.37-67.87h10.37l12.15,25.95,11.92-25.95h10.36l3,67.87Zm3.45-84.87-.55-15.23H316.1L316,295.73h-9.8l.95-37.84,16-13.9h8.05l16.38,13.94,2.07,37.8Zm22.64,84.85L358,312.71h41.21l1.38,9.91H368.92l1.43,17h23.11L394.73,350H371.22l1.59,18.7H407l1.66,12Zm97.23,0-1.32-6-27.78-24.39h-3.8l5.34,30.36h-11.3l-10.75-67.87H446.3L457,321.43l4.58,19.29-7,9.52h-8.7l22.55,19.41,2.6,11Zm53.88-10.27-42.49-22.24-1.65-6.59,29-20.29h28.69l17.6,49.14Z"/><path class="cls-3" d="M174.15,251.67l-10,35.1h17.22l3.47-2.64L192.32,254l-2.06-2.33Z"/><polygon class="cls-3" points="327.28 251.5 316.23 261.31 316.15 271.98 339 271.98 338.63 261.31 327.28 251.5"/><polygon class="cls-3" points="460.13 286.76 477.96 286.76 480.01 284.13 471.1 254 467.77 251.67 451.08 251.67 449.02 254 456.63 284.13 460.13 286.76"/><polygon class="cls-4" points="118.17 331.6 108.94 358.55 125.97 358.55 152.65 344.78 134.45 331.6 118.17 331.6"/><polygon class="cls-3" points="249.8 335.2 248.15 349.18 274.34 349.18 275.38 335.2 263.82 322.44 249.8 335.2"/><polygon class="cls-3" points="450 336.23 447.69 325.68 444.01 322.65 421.98 322.65 424.93 339.39 447.59 339.39 450 336.23"/><polygon class="cls-4" points="504.34 331.6 486.13 344.78 512.78 358.55 529.81 358.55 520.62 331.6 504.34 331.6"/><polygon class="cls-5" points="193.92 312.75 183.17 321.42 171.68 370.11 178.93 380.61 219.35 380.61 225.34 342.62 205.19 342.62 203.23 352.89 212.91 352.89 210.14 368.66 186.36 368.66 183.87 365.17 192.5 325.68 196.17 322.65 215.19 322.65 217.66 325.68 216.63 331.6 227.07 331.6 228.68 321.42 221.34 312.75 193.92 312.75"/><path class="cls-5" d="M260.19,312.75,239.9,330.83l-6.77,49.82h11.31l2.38-20.2h26.65L272,380.67h11.3l2.86-49.82-16.8-18.08Zm14.13,36.43H248.15l1.65-14,14.05-12.76,11.56,12.76Z"/><path class="cls-5" d="M111.66,321.21,94,370.34h31.13l42.52-22.27,1.66-6.59-28.94-20.29Zm14.27,37.34h-17l9.23-26.95h16.25l18.2,13.18Z"/><polygon class="cls-5" points="284.83 272.81 287.43 275.33 286.9 284.13 283.91 286.76 266.08 286.76 263.52 284.13 263.98 279.67 254.47 279.67 253.48 287.85 260.95 295.77 287.55 295.77 296.33 287.85 297.03 271.77 289.38 264.52 268.27 264.52 265.81 262.1 266.65 254 269.54 251.67 286.22 251.67 288.73 254 288.49 258.05 297.62 258.05 297.93 250.72 290.57 244.03 266.46 244.03 257.99 250.72 256.19 265.52 263.39 272.81 284.83 272.81"/><path class="cls-5" d="M331.2,244h-8.05l-16,13.9-.95,37.84H316l.11-15.23H339.3l.55,15.23h9.8l-2-37.84Zm-15,28,.08-10.68,11.05-9.81,11.34,9.81L339,272Z"/><path class="cls-5" d="M202.14,250.72,196,244.05H159.51l-2.45,7.62h8.07l-10.67,35.1h-8.62l-2.85,9h40.3l10.28-7.92ZM184.8,284.13l-3.47,2.64H164.11l10-35.1h16.11l2.06,2.33Z"/><polygon class="cls-5" points="245.3 286.76 215.62 286.76 218.33 272.58 238.84 272.58 240.04 264.75 219.83 264.75 222.34 251.67 250.11 251.67 251.16 244.03 214.92 244.03 204.09 295.77 244.06 295.77 245.3 286.76"/><polygon class="cls-5" points="334.38 312.75 322.46 338.7 310.31 312.75 299.94 312.75 297.57 380.61 308.88 380.61 309.54 341.98 313.13 341.15 320.5 357.5 324.58 357.5 331.82 341.15 335.42 341.98 336.42 380.61 347.72 380.61 344.75 312.75 334.38 312.75"/><polygon class="cls-5" points="372.81 368.66 371.22 349.96 394.73 349.96 393.46 339.69 370.35 339.69 368.92 322.65 400.56 322.65 399.18 312.75 357.97 312.75 362.51 380.61 408.62 380.61 406.96 368.66 372.81 368.66"/><polygon class="cls-5" points="371.87 295.77 369.68 272.58 389.34 272.58 388.32 264.75 368.95 264.75 367.72 251.67 394.68 251.67 393.56 244.03 358.12 244.03 362.06 295.77 371.87 295.77"/><path class="cls-5" d="M498.46,321.21l-29,20.29,1.65,6.57,42.49,22.26h31.13l-17.6-49.14Zm14.32,37.33-26.64-13.77,18.21-13.18h16.28l9.18,27Z"/><path class="cls-5" d="M445.87,350.25h8.7l7-9.51L457,321.43l-10.75-8.67H410.13l10.75,67.86h11.31l-5.34-30.37h3.8l27.78,24.4,1.32,6H471l-2.57-11ZM424.93,339.4,422,322.66h22l3.67,3L450,336.23l-2.41,3.17Z"/><polygon class="cls-5" points="411.32 251.67 417.63 286.76 407.27 286.76 408.73 295.77 439.58 295.77 437.63 286.76 427.26 286.76 420.35 251.67 430.04 251.67 428.38 244.03 400.41 244.03 401.64 251.67 411.32 251.67"/><path class="cls-5" d="M458.21,295.73h26.6l6-7.92L479.13,250.7,469.39,244H445.27l-6.08,6.66,8.72,37.11Zm-7.13-44.1h16.69L471.1,254,480,284.09l-2,2.68H460.13l-3.5-2.64L449,254Z"/><path class="cls-2" d="M217.22,379.36H180.29a1.27,1.27,0,0,1,0-2.53h35.85l4.76-30.46H208.32l-.8,4.19a1.26,1.26,0,0,1-2.48-.48l1-5.2a1.27,1.27,0,0,1,1.24-1h15.11a1.27,1.27,0,0,1,1.26,1.25,1.49,1.49,0,0,1,0,.21l-5.18,32.94A1.27,1.27,0,0,1,217.22,379.36Z"/><path class="cls-2" d="M224.91,330.34h-5.28a1.27,1.27,0,0,1,0-2.53h4.25l.83-5.27-5.09-6H195.26l-9,7.29a1.27,1.27,0,0,1-1.58-2l9.37-7.57a1.3,1.3,0,0,1,.8-.28h25.36a1.29,1.29,0,0,1,1,.45l5.83,6.89a1.24,1.24,0,0,1,.29,1l-1.1,6.91A1.25,1.25,0,0,1,224.91,330.34Z"/><path class="cls-2" d="M280.89,379.36H274.7a1.27,1.27,0,1,1,0-2.53h5l2.55-44.64-14.6-15.65h-6.54a1.27,1.27,0,0,1-.22-2.53h7.31a1.25,1.25,0,0,1,1,.4l15.31,16.46a1.28,1.28,0,0,1,.35.95l-2.66,46.37A1.27,1.27,0,0,1,280.89,379.36Z"/><path class="cls-2" d="M124.48,369.08H97.58a1.26,1.26,0,0,1-.22-2.52h26.82l40.2-21,.6-2.41L139.15,325H113.48a1.26,1.26,0,0,1-1.37-1.15,1.27,1.27,0,0,1,1.15-1.37H139.6a1.23,1.23,0,0,1,.72.23l26.88,18.84a1.26,1.26,0,0,1,.49,1.34l-.95,3.8a1.26,1.26,0,0,1-.65.81L125.17,369A1.17,1.17,0,0,1,124.48,369.08Z"/><path class="cls-2" d="M286.58,294.51H262a1.27,1.27,0,0,1,0-2.53h24l6.53-5.88.55-12.77-5.31-5H267.24a1.26,1.26,0,1,1-.22-2.52h21.35a1.29,1.29,0,0,1,.87.34l6.08,5.77a1.28,1.28,0,0,1,.39.95l-.6,13.88a1.22,1.22,0,0,1-.41.88l-7.28,6.57A1.21,1.21,0,0,1,286.58,294.51Z"/><path class="cls-2" d="M295.2,256.78h-4a1.27,1.27,0,0,1,0-2.53H294l.08-1.91-5-4.51H267.77l-6.61,5.23a1.26,1.26,0,0,1-1.56-2h0l6.95-5.5a1.26,1.26,0,0,1,.78-.28h22.26a1.35,1.35,0,0,1,.86.33l5.76,5.24a1.37,1.37,0,0,1,.42.95l-.17,3.73A1.26,1.26,0,0,1,295.2,256.78Z"/><path class="cls-2" d="M347,294.51h-4.7a1.27,1.27,0,1,1,0-2.53h3.39L344,259.77l-14.12-12h-5.71a1.27,1.27,0,0,1,0-2.53h6.19a1.3,1.3,0,0,1,.81.31L346,258.19a1.29,1.29,0,0,1,.45.89l1.83,34.1a1.26,1.26,0,0,1-1.19,1.33H347Z"/><path class="cls-2" d="M182.4,294.51h-36a1.27,1.27,0,0,1,0-2.53H182l8.18-6.3L198,251.8l-3.65-4h-33a1.27,1.27,0,0,1,0-2.53h33.58a1.27,1.27,0,0,1,.95.42l4.46,4.88a1.3,1.3,0,0,1,.3,1.15l-8.17,35a1.2,1.2,0,0,1-.45.71l-8.88,6.85A1.3,1.3,0,0,1,182.4,294.51Z"/><path class="cls-2" d="M241.87,294.51h-.18a1.26,1.26,0,0,1-1.08-1.42h0l.35-2.53h-28.4a1.27,1.27,0,0,1,0-2.53h29.85a1.28,1.28,0,0,1,1.26,1.28c0,.05,0,.11,0,.16l-.55,4A1.25,1.25,0,0,1,241.87,294.51Z"/><path class="cls-2" d="M236.67,271.31h-.19a1.26,1.26,0,0,1-1.06-1.43h0l.2-1.32H216.78a1.27,1.27,0,1,1,0-2.53H237.1a1.25,1.25,0,0,1,1,.45,1.22,1.22,0,0,1,.29,1l-.42,2.78A1.26,1.26,0,0,1,236.67,271.31Z"/><path class="cls-2" d="M247.91,250.4h-.18a1.27,1.27,0,0,1-1.08-1.42l.16-1.16H217a1.27,1.27,0,1,1,0-2.53h31.29a1.28,1.28,0,0,1,1.26,1.28.92.92,0,0,1,0,.16l-.35,2.59A1.26,1.26,0,0,1,247.91,250.4Z"/><path class="cls-2" d="M345.08,379.36h-6.2a1.27,1.27,0,0,1,0-2.53h4.91l-2.63-60.29h-4.32l-13.2,28.68a1.27,1.27,0,0,1-1.16.73h0a1.24,1.24,0,0,1-1.14-.72l-13.45-28.7h-5.52a1.27,1.27,0,0,1-.21-2.53h6.54a1.31,1.31,0,0,1,1.15.73l12.62,27,12.38-26.95A1.25,1.25,0,0,1,336,314h6.34a1.28,1.28,0,0,1,1.26,1.21L346.33,378a1.28,1.28,0,0,1-1.2,1.33h-.05Z"/><path class="cls-2" d="M405.72,379.36a1.26,1.26,0,0,1-1.25-1.1l-.82-5.81H370.49a1.27,1.27,0,1,1,0-2.53h34.26L406,371l1,6.91a1.28,1.28,0,0,1-1.08,1.43Z"/><path class="cls-2" d="M391.86,348.69a1.25,1.25,0,0,1-1.24-1.11l-.52-4.1H368a1.27,1.27,0,0,1,0-2.53h23.19l1.26,1.11.64,5.22a1.26,1.26,0,0,1-1.1,1.4Z"/><path class="cls-2" d="M397.65,321.43a1.26,1.26,0,0,1-1.25-1.09l-.52-3.8H360.67a1.27,1.27,0,0,1-.22-2.53H397l1.25,1.09.68,4.85a1.26,1.26,0,0,1-1.07,1.43h0Z"/><path class="cls-2" d="M369.09,294.51h0l-4.69-.17a1.27,1.27,0,0,1-.12-2.53h.2l3.26.11L366,274.45a1.26,1.26,0,0,1,2.51-.28v0l1.84,18.92a1.26,1.26,0,0,1-1.11,1.39Z"/><path class="cls-2" d="M386.47,270.47a1.26,1.26,0,0,1-1.25-1l-.17-1H366.63a1.25,1.25,0,0,1-1.25-1.14l-1.71-18.13a1.28,1.28,0,0,1,1.16-1.38h25.45l-.17-1.14a1.26,1.26,0,0,1,2.5-.36l.38,2.59a1.25,1.25,0,0,1-1.24,1.44H366.33l1.46,15.6H386.1a1.27,1.27,0,0,1,1.24,1l.36,1.9a1.26,1.26,0,0,1-1,1.48h0A.85.85,0,0,1,386.47,270.47Z"/><path class="cls-2" d="M541.16,369.08H514.24a1.26,1.26,0,0,1,0-2.52h25.13L524.48,325H499.25a1.27,1.27,0,0,1,0-2.53h26.12a1.27,1.27,0,0,1,1.15.86l15.8,44.08a1.28,1.28,0,0,1-.78,1.62,1.41,1.41,0,0,1-.41.07Z"/><path class="cls-2" d="M467.85,379.36H461.8a1.27,1.27,0,0,1,0-2.53h4.48l-1.21-5.12-26.79-23a1.26,1.26,0,0,1-.16-1.77,1.25,1.25,0,0,1,1-.44h13.59l4.85-6.59-3.87-16.33-8.7-7H413.09a1.27,1.27,0,1,1-.21-2.53h32.49a1.29,1.29,0,0,1,.79.28l9.38,7.57a1.27,1.27,0,0,1,.44.69l4.1,17.31a1.31,1.31,0,0,1-.21,1.05l-5.56,7.56a1.25,1.25,0,0,1-1,.52H442.46L467,370.07a1.35,1.35,0,0,1,.41.66l1.67,7.07a1.25,1.25,0,0,1-.93,1.52,1,1,0,0,1-.29,0Z"/><path class="cls-2" d="M436.44,294.51a1.25,1.25,0,0,1-1.23-1l-.65-3h-9.37a1.27,1.27,0,0,1-1.24-1l-7.46-39a1.29,1.29,0,0,1,1.06-1.46h8.16l-.34-1.26h-22a1.27,1.27,0,1,1,0-2.53h23a1.28,1.28,0,0,1,1.22.95l1,3.81a1.27,1.27,0,0,1-.22,1.1,1.25,1.25,0,0,1-1,.5h-8.11l7,36.42h9.35a1.26,1.26,0,0,1,1.23,1l.86,4a1.27,1.27,0,0,1-.95,1.5A1,1,0,0,1,436.44,294.51Z"/><path class="cls-2" d="M483.56,294.51H459.07a1.27,1.27,0,0,1,0-2.53h23.85l3.63-4.81L475.91,253.1l-7.7-5.29H447l-4.06,4.47a1.27,1.27,0,0,1-1.9-1.7l4.43-4.88a1.29,1.29,0,0,1,1-.42h22.21a1.39,1.39,0,0,1,.71.23l8.39,5.71a1.32,1.32,0,0,1,.49.67l11,35.07a1.21,1.21,0,0,1-.2,1.13L484.56,294A1.26,1.26,0,0,1,483.56,294.51Z"/></g></g></svg>