<svg xmlns="http://www.w3.org/2000/svg" viewBox="0 0 580 580"><defs><style>.cls-1{fill:#41009c;}.cls-2{fill:#fff;}</style></defs><g id="Layer_2" data-name="Layer 2"><g id="Layer_1-2" data-name="Layer 1"><circle class="cls-1" cx="290" cy="290" r="290"/><path class="cls-2" d="M483.71,289.07c.23,17.06-14.26,31-30.79,31.33-16.07.29-31.52-12.42-32-30.58a31.4,31.4,0,1,1,62.79-.75Zm-43.24,10.61a4.52,4.52,0,0,0,.06.72,4.27,4.27,0,0,0,.25.79,10.67,10.67,0,0,0,6,6.08,17.11,17.11,0,0,0,7.13.85,11.74,11.74,0,0,0,6.81-2.44,10.23,10.23,0,0,0,3.75-6Z"/><path class="cls-2" d="M224.06,259.56h8v7.91l.27.06c.4-.51.81-1,1.2-1.53,5.16-6.72,12.15-8.87,20.28-8a17.67,17.67,0,0,1,11.46,5.32,27.18,27.18,0,0,1,2.47,3.5c.23.34.42.71.67,1.14.27-.38.48-.65.68-.94,4.07-6,9.91-8.74,17-9.14a25.88,25.88,0,0,1,8.84.92c6.6,1.93,10.46,6.42,11.83,13a41.73,41.73,0,0,1,.8,8.13c.11,13.2.09,26.41.12,39.61,0,.25,0,.49-.05.8h-8.76V319c0-13.31,0-26.63-.11-39.93a25.25,25.25,0,0,0-.92-6.41,9.23,9.23,0,0,0-7.69-6.88,19.23,19.23,0,0,0-9.05.1c-5.41,1.5-8.31,5.37-9.8,10.54a28.82,28.82,0,0,0-1,7.89q-.07,17.39-.13,34.78c0,1.06-.26,1.38-1.34,1.33-2.09-.09-4.2,0-6.3,0-.34,0-.68,0-1.14,0v-1.21q-.08-21.37-.14-42.76a10.77,10.77,0,0,0-10.34-11c-9.13-.53-15.23,4.19-17.4,13.55a24.29,24.29,0,0,0-.64,5.09c-.12,11.66-.17,23.32-.25,35v1.31h-8.53Z"/><path class="cls-2" d="M324.36,279h-9c.41-2.16.67-4.27,1.21-6.31A18.16,18.16,0,0,1,329,259.55a36,36,0,0,1,21.72-.38c6.44,1.85,10.41,6.34,11.87,12.9a22.39,22.39,0,0,1,.28,4.71q.15,15.35.26,30.68c0,.73,0,1.47.05,2.2a3,3,0,0,0,3.61,3.11,23.27,23.27,0,0,0,2.8-.63v7.68a22,22,0,0,1-8.82.16c-3.26-.71-5.31-3.48-5.62-7.15,0-.37-.06-.75-.12-1.4-.41.43-.67.68-.9.94-1,1.13-1.94,2.3-3,3.38a20.09,20.09,0,0,1-11.74,5.8,31.77,31.77,0,0,1-14.34-.82c-7.22-2.25-11.6-7.87-11.88-15.43a26.75,26.75,0,0,1,.51-6.25c1.06-5.18,4.6-8.35,9.18-10.47,4.11-1.92,8.53-2.62,13-3.2,4.64-.61,9.3-1.2,13.93-1.9a4.87,4.87,0,0,0,4.36-4.56,19.63,19.63,0,0,0-.21-5.63,8.91,8.91,0,0,0-6.91-7A25.77,25.77,0,0,0,334,266c-6,1.49-9.27,5.52-9.52,11.71C324.41,278.16,324.39,278.57,324.36,279Zm30.18,10a31.2,31.2,0,0,1-3.39,1c-4.65.81-9.32,1.53-14,2.34a32.33,32.33,0,0,0-10.39,3.15c-4.66,2.59-5.5,5.79-4.67,10.2s4,7.22,8.23,8.21a20.28,20.28,0,0,0,17.88-4,14.25,14.25,0,0,0,5.56-8.9C354.39,297.09,354.31,293.1,354.54,289Z"/><path class="cls-2" d="M151.66,259.57h8.72v7.71a6,6,0,0,0,.53-.5,21.09,21.09,0,0,1,17-8.91,30.79,30.79,0,0,1,9.37.86c7.48,2,12,6.87,13.32,14.46a46.32,46.32,0,0,1,.54,7.63c.1,12.89.12,25.78.17,38.67,0,.27,0,.54-.07.87h-8.55V319c-.08-12.89-.12-25.78-.27-38.67a22.6,22.6,0,0,0-.82-5.78,11.47,11.47,0,0,0-10.23-8.94c-6.34-.86-12,.52-16.29,5.62a19.5,19.5,0,0,0-4.58,12.58c-.1,7.18-.12,14.36-.15,21.54,0,4.58,0,9.17,0,13.76v1.24h-8.7Z"/><path class="cls-2" d="M540.46,320.35h-8.77V319c0-10.33,0-20.66,0-31,0-3.6-.06-7.22-.38-10.8-.65-7.22-5.59-11.6-12.84-11.85-5.08-.18-9.59,1.06-13.24,4.71a19,19,0,0,0-5.61,13.43c-.2,11.84-.18,23.68-.24,35.51,0,.42,0,.83,0,1.31h-8.54V259.6h8.58v7.49l.24.06c.2-.26.41-.51.62-.77a21.32,21.32,0,0,1,16.92-8.53,30.87,30.87,0,0,1,10,1.13c7.05,2.12,11.21,6.85,12.53,14.06a31.85,31.85,0,0,1,.58,5.41c.12,13.73.18,27.47.25,41.2C540.51,319.85,540.48,320.06,540.46,320.35Z"/><path class="cls-2" d="M94.84,259.38h8.43v1.38q0,18.54.08,37.08a16.48,16.48,0,0,0,2,8.38c2.4,4.17,6.25,6.3,10.7,7.51a16,16,0,0,0,14.21-2.83c3.84-2.81,5.38-6.9,5.45-11.53.09-6.79.06-13.59.07-20.38q0-9.19,0-18.39v-1.2h8.94c0,.29.06.6.06.9,0,11.8,0,23.6,0,35.4,0,3.86-.19,7.69-1.58,11.37-3.17,8.38-9.23,13.1-18,14.45a30.66,30.66,0,0,1-15.83-1.34c-7.31-2.8-11.59-8.31-13.46-15.77a26,26,0,0,1-.8-6c-.14-12.78-.17-25.56-.24-38.34C94.79,259.85,94.82,259.65,94.84,259.38Z"/><path class="cls-2" d="M84.7,287.12v8.13H64.48v25.07h-9v-1.14q.09-19.28.17-38.55a27.6,27.6,0,0,1,1.5-10.11c2.43-6.21,7.09-9.82,13.34-11.58A39.83,39.83,0,0,1,88,258.29c.3.06.79.44.79.68.06,2.51,0,5,0,7.45-3-.11-5.81-.28-8.66-.32a18.55,18.55,0,0,0-9.28,2.27,11.9,11.9,0,0,0-6.43,10.07c-.21,2.81,0,5.66,0,8.68Z"/><path class="cls-2" d="M377.57,267.06H367.2V259.6h31.13v7.45H386.25c0,.46-.05.83-.05,1.19q0,18.24.07,36.46c0,1.5.09,3,.22,4.51.21,2.6,1.5,4,4.12,4.15,2.15.12,4.33-.08,6.5-.15.38,0,.75-.07,1.22-.12v7.57c-.84,0-1.7.13-2.56.15-3.57.09-7.14.39-10.66-.52-4.47-1.16-7-4.12-7.25-8.76-.19-3.66-.24-7.34-.25-11,0-10.68,0-21.36,0-32Z"/><path class="cls-2" d="M216.54,320.36h-8.68V259.59h8.68Z"/><path class="cls-2" d="M413.94,320.36h-8.49V259.58h8.49Z"/></g></g></svg>