<svg xmlns="http://www.w3.org/2000/svg" viewBox="0 0 638.07 638.07"><defs><style>.cls-1{fill:#2e5aa5;}.cls-2{fill:#0b0b3a;}.cls-3{fill:#0f0f49;}.cls-4{fill:#31c2dd;}.cls-5{fill:#fff;}.cls-6{fill:#ff7bac;}</style></defs><g id="Camada_2" data-name="Camada 2"><g id="Camada_1-2" data-name="Camada 1"><circle class="cls-1" cx="319.04" cy="319.04" r="319.04"/><path class="cls-2" d="M575.17,364.86l.62.1-23.1-50.36-1.94-1.52-.23-.17.82-1.25-16.41-35.79-5.37-.85c-5.94-.94-9-1.41-14.93-2.28l-17.94-2.64.05.12-7-.92L473,267.15l0,.11c-8.91-1-17.71-2-26.27-2.8v0l-5.11-.46L430,262.87l0,.08c-8.61-.73-17.1-1.37-25.33-1.9l-2-.14v0l-8-.47c-5.94-.34-9-.51-15.05-.79L367.32,259v.06c-4.61-.18-7.63-.28-12.84-.44l-6.11-.18h-.21l-5.08-.15v.05c-9.43-.17-19-.28-28.37-.3V258l-10.47.1c-13.32.14-26.81.43-40.1.88l-8.77.3,0,.38h-.13l0,.38H255l0,.38h-.13l0,.38h-.13l-.05.38h-.13l0,.38h-.13l0,.38h-.14l0,.38H254l0,.38h-.13l0,.38h-.13l0,.38h-.13l0,.37h-.13l-.05.38h-.13v.1c-3.12.14-5.84.27-9.83.48h-.17l-.86-1L239,260.12l-5,.3c-10.13.62-20.36,1.34-30.53,2.15l0-.1-11,1-5.7.49v0c-9,.83-17.8,1.74-26.41,2.71l.05-.15-16.56,2.11c-13.23,1.69-26.63,3.56-39.82,5.56l-2.74.42-2.14,1.75c-2.89,2.35-4.34,3.53-7.27,5.89l-1.85,1.5L63,342.9l.08.11-.09.21.08.11-.09.2.08.11-.1.21.08.1-.09.21.08.11-.1.21.09.1-.1.21.08.11-.09.2.08.11-.1.21.08.11-.09.2.08.11-.09.21.08.11-.1.2.08.11-.09.21.08.11-.09.2.08.11-.1.21.08.11-.09.2.08.11-.09.21.08.1-.1.21.08.11-.09.2.08.11-.1.21.09.11-.1.2.08.11-.09.21.08.11-.1.2.08.11-.09.21.08.11-.09.2.08.11-.1.21.08.11-.09.2.08.11-.09.21.08.1-.1.21.08.11-.09.21.08.1-.09.21.08.11-.1.2.08.11-.09.21.08.11-.1.2.09.11-.1.21.08.11-.09.2.08.11-.1.21.08.11-.09.2.08.11-.09.21.08.11-.1.2.08.11-.09.21.08.1-.09.21.08.11-.1.2.08.11-.09.21.08.11-.09.2.08.11-.1.21.08.11-.09.2.08.11-.1.21.09.11-.1.2.08.11-.09.21.08.11-.1.2.08.11-.09.21,3.43,4.61c1.24,1.67,1.9,2.54,3.19,4.22l3.5,4.55,5.67-.88,8.76-1.32,0,.08.09,0-.13.32.09,0-.12.32.09,0-.13.32h.09l-.12.31h.09l-.12.31h.09l-.13.31h.09l-.12.31h.09l-.13.31h.09l-.12.31h.09l-.13.31h.09l-.12.31h.09l-.13.32.09,0-.12.32.09,0-.12.32h.09l-.13.31,16.5-2.25c5.37-.74,10.81-1.45,16.15-2.11l5.87-.73,1.79-4.85c5.12-.62,10.33-1.23,15.5-1.79l5.24-.58,5.47-.56c5.31-.55,10.7-1.07,16-1.56l2.53-.23,2.83-.25c5.31-.47,10.71-.91,16.06-1.32l5.44-.42,5.29-.37c4.93-.34,9.93-.66,14.89-.95l-.73,4.73,11.91-.62c5.41-.28,10.87-.53,16.25-.74l8.25-.33,0-.31h.14l0-.31h.14l0-.3h.14l0-.31h.14l0-.31h.14l0-.31h.14l0-.31h.14l0-.3H253l0-.31h.14l0-.31h.15l0-.31h.14l0-.31h.14l0-.31h.14l0-.31h.14l0-.31h.14V355c12.64-.4,25.39-.67,38-.79l7-.07,0,0H303c10.38,0,21.22.11,32.21.35l2.12.05.42,4.74,8.63.24c5.36.16,10.83.35,16.25.57l11.41.46,0-.32h.32l0-.33.33,0,0-.33h.32l0-.32h.33l0-.33.32,0,0-.33h.33l0-.32H376l0-.33.33,0,0-.33h.32l0-.32h.33l0-.33.32,0,0-.33h.33l0-.32h.32l0-.32H378v-.11c3.63.18,7.26.37,10.86.59l2.77.16,2.61.16c5.32.33,10.73.69,16.07,1.09l5.28.39,5.44.43c5.32.43,10.73.89,16.06,1.38l2.6.24,2.76.26c5.3.5,10.7,1,16,1.62l4.57.49,1.63,4.84,6.13.69c5.36.61,10.8,1.26,16.18,1.93l15.82,2-.13-.37.53.07-.14-.37.54.07-.14-.37.53.06-.13-.37.53.07-.14-.37.54.07-.14-.37.53.06-.13-.37.53.07-.14-.37.54.07-.14-.37.53.07-.13-.37.53.06-.14-.37.54.07-.14-.37.53.07-.09-.26,4.35.61,2.11,4.91,5.37.78c5.35.79,10.77,1.61,16.12,2.47l17.9,2.84-.18-.39.62.1-.18-.4.62.1-.18-.39.62.09-.18-.39.63.1-.19-.4.63.1-.19-.39.63.1-.18-.4.62.1-.18-.4.62.1-.18-.39.62.1-.18-.4.62.1-.18-.39.62.09-.18-.39.62.1-.18-.4.62.1-.18-.39.62.1-.18-.4.62.1-.18-.4.62.1-.18-.39.63.1-.19-.4.63.1-.19-.39.63.09-.18-.39.62.1-.18-.4.62.1-.18-.39.62.1-.18-.4.62.1-.18-.39.62.09-.18-.39.62.1-.18-.4.62.1-.18-.39.62.1-.18-.4.62.1-.18-.4.62.1-.18-.39.63.1-.19-.4.63.1-.19-.39.63.09-.18-.39.62.1-.18-.4.62.1-.18-.39.62.1-.18-.4.62.1L569,369l.62.1-.18-.39.62.1-.18-.4.62.1-.18-.39.62.09-.18-.39.62.1-.18-.4.62.1-.18-.39.63.1-.19-.4.63.1-.19-.4.63.1-.18-.39.62.1-.18-.4.62.1-.18-.39.62.09-.18-.39.62.1-.18-.4.62.1Z"/><path class="cls-3" d="M552.69,314.6l-1.94-1.52-.23-.17.82-1.25-16.41-35.79-5.37-.85c-5.94-.94-9-1.41-14.93-2.28l-17.94-2.64.05.12-7-.92L473,267.15l0,.11c-8.91-1-17.71-2-26.27-2.8v0l-5.11-.46L430,262.87l0,.08c-8.61-.73-17.1-1.37-25.33-1.9l-2-.14v0l-8-.47c-5.94-.34-9-.51-15.05-.79L367.32,259v.06c-4.61-.18-7.63-.28-12.84-.44l-6.11-.18h-.21l-5.08-.15v.05c-9.43-.17-19-.28-28.37-.3V258l-10.47.1c-13.32.14-26.81.43-40.1.88l-8.77.3-.55,5c-3.91.17-6.85.31-11.55.55h-.17l-.86-1L239,260.12l-5,.3c-10.13.62-20.36,1.34-30.53,2.15l0-.1-11,1-5.7.49v0c-9,.83-17.8,1.74-26.41,2.71l.05-.15-16.56,2.11c-13.23,1.69-26.63,3.56-39.82,5.56l-2.74.42-2.14,1.75c-2.89,2.35-4.34,3.53-7.27,5.89l-1.85,1.5L63,342.9l3.58,4.82c1.3,1.75,2,2.65,3.34,4.41l3.65,4.75,5.93-.92L90,354.37l-2,5L105.27,357c5.61-.76,11.29-1.5,16.87-2.2l6.13-.76,1.86-5.07c5.35-.65,10.79-1.28,16.2-1.87l5.47-.6,5.71-.59c5.54-.57,11.18-1.11,16.75-1.62l2.64-.24,3-.26c5.54-.49,11.18-1,16.77-1.38l5.69-.44,5.52-.38c5.15-.36,10.37-.7,15.55-1l-.77,4.93,12.45-.64c5.64-.29,11.35-.55,17-.77l8.62-.34.61-5c13.92-.45,28-.75,41.87-.89l7.34-.07,0,0h3.83c10.84,0,22.16.12,33.64.37l2.21.05.44,4.95,9,.26c5.61.16,11.32.36,17,.59l11.92.48-.6-4.93c5.35.25,10.76.54,16.09.85l2.89.17,2.72.17c5.57.34,11.21.73,16.79,1.14l5.52.4,5.68.46c5.56.44,11.2.93,16.77,1.44l2.72.25,2.88.27c5.54.53,11.17,1.09,16.75,1.69l4.77.51,1.7,5.05,6.41.73c5.6.63,11.28,1.31,16.89,2L523,356.89l-1.84-5,5.73.79,5.53.78,2.2,5.12,5.61.82c5.58.82,11.24,1.68,16.83,2.57l18.7,3Z"/><path class="cls-4" d="M264.49,266.81q-3.3,29.83-6.61,59.68h0v.11h0v.11h0v.11h0v.11h0v.12h0v.11h0v.11h0v.11h0v.11h0v.11h0v.11h0v.12h0v.12h0v.11h0v.11h0v.11h0v.11h0v.11h0v.12h0v.12h0v.11h0v.11h0v.11h0v.11h0v.11h0v.12q22.58-.78,45.15-1l.35-15.48h0v-.11h0v-.11h0v-.11h0v-.12h0v-.11h0v-.11h0v-.11h0V312h0v-.11h0v-.11h0v-.11h0v-.12h0v-.11h0v-.11h0v-.11h0v-.11h0V311h0v-.11h0v-.12h0v-.11h0v-.11h0v-.11h0v-.11h0v-.11h0v-.11h0V310q-13.58.09-27.14.45c.16-2.1.29-3.81.5-6.45,6.44-.17,9.66-.23,16.11-.33.17-4,.26-5.95.44-9.93h0v-.11h0v-.11h0v-.11h0v-.11h0v-.11h0v-.11h0V293h0v-.11h0v-.11h0v-.11h0v-.11h0v-.11h0v-.11h0v-.12h0v-.12h0V292h0v-.11h0v-.11h0v-.11h0v-.11h0v-.11h0v-.12h0v-.11h0v-.11h0V291h0v-.11c-6.24.09-9.4.15-15.55.31.18-2.31.32-4.15.54-7q12.87-.28,25.75-.42c.13-6,.19-8.93.33-14.89h0v-.11h0v-.11h0v-.11h0v-.12h0v-.11h0v-.11h0v-.11h0v-.11h0v-.11h0v-.11h0v-.12h0v-.11h0v-.11h0v-.11h0v-.11h0v-.11h0v-.11h0v-.12h0v-.11h0v-.11h0v-.11h0v-.11h0v-.11h0v-.11h0v-.11h0v-.12Q284.41,266.14,264.49,266.81Z"/><path class="cls-4" d="M351.52,296.15c-2.28-2-3.4-3.06-5.64-5.09q-10.51-.22-21-.31c-.06-2.88-.1-4.72-.15-7,4.07,0,6.13,0,10.23.11.09,2,.13,3,.22,5,6.25.09,9.37.15,15.61.31V289h0v-.11h0v-.11h0v-.11h0v-.11h0v-.12h0v-.11h0v-.11h0v-.11h0V288h0v-.11h0v-.11h0v-.12h0v-.11h0v-.11h0v-.11h0v-.11h0v-.11h0V287h0v-.12h0v-.11h0v-.11h0v-.11h0v-.11h0v-.11h0v-.11h0l-1.15-14.91c-2.17-2-3.25-3.05-5.37-5.09q-15-.29-29.91-.32c-2,2-3,3-5,5q-.15,12.4-.28,24.82h0v.11h0v.11h0V296h0v.11h0v.11h0v.11h0v.11h0v.11h0v.11h0v.11h0v.11h0V297h0v.11h0v.11h0v.11h0v.11h0v.11h0v.11h0v.11h0v.11h0V298h0v.11h0v.11h0v.11h0v.11h0v.11c2.1,2,3.17,3,5.31,5q10.74,0,21.48.15c.13,2.89.21,4.73.31,7-4.29-.07-6.49-.09-10.83-.12,0-2-.06-3-.11-5q-8.13-.06-16.27,0l-.17,14.9h0v.11h0v.11h0v.11h0V321h0v.11h0v.11h0v.11h0v.11h0v.11h0v.11h0v.11h0v.11h0V322h0v.11h0v.11h0v.11h0v.11h0v.11h0v.11h0v.11h0v.11h0V323h0v.11h0v.11h0v.11h0v.11c2.22,2,3.34,3,5.59,5q16.94,0,33.87.38c2.13-1.94,3.18-2.91,5.26-4.84v-.1h0v-.1h0v-.11h0v-.11h0v-.11h0v-.1h0v-.1h0V323h0v-.1h0v-.11h0v-.11h0v-.11h0v-.1h0v-.1h0v-.1h0v-.1h0V322h0v-.11h0v-.11h0v-.1h0v-.1h0v-.1h0v-.1h0v-.1h0v-.11h0V321h0Q352.49,308.57,351.52,296.15Z"/><path class="cls-4" d="M394,268.23c-6-.35-9-.51-14.93-.8v.12h0v.11h0v.11h0v.11h0V268h0v.11h0v.11h0v.12h0v.11h0v.11h0v.11h0v.11h0v.11h0V269h0v.12h0v.11h0v.11h0v.11h0v.11h0v.11h0v.11h0v.12h0V270h0v.11h0v.11h0v.11h0q1.57,11,3.16,22c-3.93-.19-6-.28-10.09-.44l-3-24.88c-6-.24-9-.35-14.95-.52v.11h0v.11h0v.11h0v.12h0V267h0v.11h0v.11h0v.11h0v.11h0v.11h0v.11h0v.12h0v.11h0V268h0v.11h0v.11h0v.11h0v.11h0v.12h0v.11h0v.11h0v.11h0V269h0v.11h0v.11h0v.12h0l5.73,64.6c5.7.17,11.4.36,17.09.6v-.11h0v-.12h0v-.11h0v-.11h0V334h0v-.11h0v-.11h0v-.11h0v-.12h0v-.11h0v-.11h0v-.11h0v-.11h0V333h0v-.11h0v-.12h0v-.11h0v-.11h0v-.11h0v-.11h0v-.11h0v-.11h0V332h0v-.11h0v-.11h0v-.11h0l-2.67-22c4.1.17,6.27.26,10.49.46q1.43,10,2.86,19.93,8.46.39,16.92.89l0-.11h0l0-.11h0l0-.11h0l0-.11h0l0-.12h0l0-.12h0l0-.11h0l0-.11h0l0-.11h0l0-.11h0l0-.11h0l0-.12h0l0-.12h0l0-.11h0l0-.11h0l0-.11h0l0-.11h0l0-.11h0l0-.12h0l0-.12h0l0-.11h0l0-.11h0l0-.11h0l0-.11h0l0-.11h0l0-.12h0Q399.31,298.16,394,268.23Z"/><path class="cls-4" d="M497,313.16l-5.08-3.58,2-1.89,0-.08,0,0,0-.08,0,0,0-.08,0,0,0-.08,0,0,0-.09,0,0,0-.09,0,0,0-.08,0,0,0-.08,0,0,0-.08,0,0,0-.08,0,0,0-.08,0,0,0-.09,0,0,0-.09,0,0,0-.08,0,0,0-.08,0,0,0-.08,0,0,0-.08,0,0,0-.08,0,0,0-.08,0,0,0-.09,0,0,0-.09,0,0,0-.08,0,0,0-.08,0,0,0-.08,0,0,0-.08,0,0,0-.08,0,0-8.58-23.31c-2.75-2.28-4.11-3.42-6.82-5.69q-17.34-2.1-34.74-3.76l0,.12h0l0,.11h0l0,.11h0l0,.11h0l0,.12h0l0,.12h0l0,.12h0l0,.12h0l0,.11h0l0,.11h0l0,.11h0l0,.11h0l0,.12h0l0,.12h0l0,.12h0l0,.11h0l0,.11h0l0,.11h0l0,.11h0l0,.12h0l0,.12h0l0,.12h0l0,.11h0l0,.11h0l0,.11h0l0,.11h0q8.6,30.19,17.17,60.38,8.44.8,16.88,1.7l0-.12h0l0-.12h0l0-.12h0l0-.11h0l0-.11h0l0-.11h0l0-.12h0l0-.12h0l0-.12h0l0-.12h0l0-.11h0l0-.11h0l0-.11h0l0-.12h0l0-.12h0l0-.12h0l0-.12h0l0-.11h0l0-.11h0l0-.11h0l0-.12h0l0-.12h0l0-.12h0l0-.12h0l0-.11h0l0-.11h0q-3.53-11.12-7-22.24l4.39.48,6.75,4.76q4.43,13.1,8.83,26.19,8.5,1,17,2l0-.11h0l0-.12h0l0-.12h0l0-.12h0l0-.12h0l0-.12h0l0-.11h0l0-.11h0l0-.12h0l0-.12h0l0-.12h0l0-.12h0l0-.12h0l0-.11h0l0-.11h0l0-.12h0l0-.12h0l0-.12h0l0-.12h0l0-.12h0l0-.11h0l0-.11h0l0-.11h0l0-.12h0l0-.12h0l0-.12h0Q502.38,327.81,497,313.16Zm-20.89-13.34c-3.53-.4-5.62-.63-9.45-1-.92-2.91-1.51-4.78-2.25-7.1,3.5.37,5.54.59,9.31,1Z"/><path class="cls-4" d="M438.8,271.58Q421.42,270,404,268.84c-1.6,1.87-2.4,2.81-4,4.68l0,.09,0,0,0,.09,0,0,0,.09,0,0,0,.09,0,0,0,.1,0,0,0,.09,0,0,0,.09,0,0,0,.09,0,0,0,.09,0,0,0,.09,0,0,0,.09,0,0,0,.1h0l0,.1,0,0,0,.09,0,0,0,.09,0,0,0,.09,0,0,0,.09,0,0,0,.09,0,0,0,.1h0l0,.1,0,0,0,.09,0,0,0,.09,0,0,0,.09,0,0,0,.09,0,0,0,.09,0,0,0,.09,0,0q5.15,27.46,10.3,54.92,8.44.53,16.9,1.15l0-.12h0l0-.11h0l0-.11h0l0-.11h0l0-.11h0l0-.11h0l0-.12h0l0-.12h0l0-.11h0l0-.11h0l0-.11h0l0-.11h0l0-.11h0l0-.12h0l0-.12h0l0-.11h0l0-.11h0l0-.11h0l0-.11h0l0-.11h0l0-.12h0l0-.12h0l0-.11h0l0-.11h0l0-.11h0l0-.11h0q-2.29-10.45-4.6-20.9c3.88.29,6,.45,10.1.78q2.88,11.94,5.77,23.88,8.44.68,16.89,1.45l0-.11h0l0-.11h0l0-.11h0l0-.12h0l0-.12h0l0-.12h0l0-.11h0l0-.11h0l0-.11h0l0-.11h0l0-.12h0l0-.12h0l0-.12h0l0-.11h0l0-.11h0l0-.11h0l0-.11h0l0-.11h0l0-.12h0l0-.12h0l0-.12h0l0-.11h0l0-.11h0l0-.11h0l0-.11h0l0-.12h0Q447,301.74,438.8,271.58Zm-9.57,23.72c-3.74-.3-5.83-.46-9.79-.75-.63-2.89-1-4.74-1.55-7.06,3.69.27,5.74.43,9.63.74Z"/><path class="cls-4" d="M558.63,349.64h0q-7.08-15.45-14.17-30.89l-6.35-5c.51-.74,1-1.45,1.63-2.43l0-.07,0-.05,0-.06,0-.05,0-.06,0-.05,0-.06,0,0,0-.07,0,0,0-.07,0,0,0-.07,0,0,0-.07,0-.05,0-.06,0,0,0-.06,0-.05,0-.06,0-.05,0-.07,0,0,0-.07,0,0,0-.07,0,0,0-.07,0-.05,0-.06,0-.05,0-.06,0-.05,0-.06,0,0,0-.07,0,0,0-.07,0,0,0-.07,0,0,0-.07,0-.05,0-.06,0,0,0-.06,0-.05,0-.06,0-.05,0-.07,0,0q-5.91-12.87-11.81-25.75c-5.93-.94-8.89-1.39-14.83-2.26l.05.12h-.05l.05.12h-.05l.05.12h-.05l.05.12h-.05l.05.12h-.05l.05.12h-.05l.05.12h-.05l.05.12h-.05l.05.12h-.05l.05.12h-.05l.05.12h-.05l.05.12h-.05l.05.12h-.05l.05.11h-.05l.05.12h-.05l.05.12h-.05l.05.12h-.05l.05.12h-.05l.05.12h-.05l.05.12h-.05l.05.11h-.05l.05.12h-.05l.05.12h-.05l.05.12h-.05l.05.12h-.05l.05.12h-.05q4,9.36,8,18.72c-.74,1.09-1.32,1.92-2.25,3.25l-5.23-.74L503.26,279c-5.94-.83-8.91-1.23-14.85-2l0,.11h0l0,.12h0l0,.12h0l0,.12h0l0,.12h0l0,.12h0l0,.11h0l0,.11h0l0,.12h0l0,.12h0l0,.12h0l0,.12h0l0,.12h0l0,.11h0l0,.11h0l0,.12h0l0,.12h0l0,.12h0l0,.12h0l0,.12h0l0,.11h0l0,.11h0l0,.12h0l0,.12h0l0,.12h0l0,.12h0Q500,310.45,511.5,341q8.41,1.08,16.83,2.26l-.05-.12h.05l-.05-.12h.05l-.05-.12h.05l-.05-.11h.05l-.05-.11h.05l-.05-.12h.05l-.05-.12h.05l-.05-.12h.05l-.05-.12h.05l-.05-.12h.05l-.05-.12h.05l-.05-.11h.05l-.05-.12h.05l-.05-.12h.05l-.05-.12h.05l-.05-.12h.05l-.05-.12h.05l-.05-.12h.05l-.05-.11h.05l-.05-.12h.05l-.05-.12h.05l-.05-.12h.05l-.05-.12h.05l-.05-.12h.05l-.05-.12h.05l-.05-.11h.05q-4.61-11.24-9.19-22.47l4.07.58,7.14,5L541.73,350q8.47,1.25,16.95,2.59l0-.12h0l0-.12h0l0-.12h0l0-.12h0l0-.12h0l0-.12h0l0-.12h0l0-.12h0l0-.12h0l0-.12h0l0-.12h0l0-.12h0l0-.12h0l0-.12h0l0-.12h0l0-.12h0l0-.12h0l0-.12h0l0-.12h0l0-.12h0l0-.12h0l0-.12h0l0-.12h0l0-.12h0l0-.12h0Z"/><path class="cls-4" d="M189.82,274.48l0-.11h0l0-.12h0l0-.12h0l0-.12h0l0-.12h0l0-.11h0l0-.11h0l0-.11h0l0-.11h0l0-.12h0l0-.12h0l0-.12h0l0-.11h0l0-.11h0l0-.11h0l0-.11h0l0-.12h0l0-.12h0l0-.12h0l0-.11h0l0-.11h0l0-.11h0l0-.11h0l0-.12h0l0-.12h0l0-.12q-17.39,1.59-34.74,3.63c-2.69,2.26-4.05,3.39-6.78,5.66l-20,55.81h0l0,.12h0l0,.12h0l0,.12h0l0,.12h0l0,.11h0l0,.11h0l0,.12h0l0,.12h0l0,.12h0l0,.12h0l0,.12h0l0,.11h0l0,.11h0l0,.12h0l0,.12h0l0,.12h0l0,.12h0l0,.12h0l0,.11h0l0,.11h0l0,.12h0l0,.12h0l0,.12h0l0,.12h0l0,.12h0l0,.11q8.41-1,16.85-1.94,3.93-12,7.87-24.08c4-.44,6.1-.67,9.8-1.05q-3.21,10.51-6.43,21h0l0,.12h0l0,.12h0l0,.12h0l0,.12h0l0,.11h0l0,.11h0l0,.11h0l0,.12h0l0,.12h0l0,.12h0l0,.12h0l0,.11h0l0,.11h0l0,.11h0l0,.11h0l0,.12h0l0,.12h0l0,.12h0l0,.11h0l0,.11h0l0,.11h0l0,.11h0l0,.12h0l0,.12h0l0,.12h0l0,.11q8.44-.87,16.88-1.64l16.51-60.31Zm-32.06,24.76c.76-2.32,1.36-4.19,2.32-7.1,3.78-.42,5.82-.63,9.34-1l-2.17,7.1C163.4,298.63,161.31,298.85,157.76,299.24Z"/><path class="cls-4" d="M258.89,274.87v-.11h0v-.11h0v-.11h0v-.12h0v-.11h0v-.11h0v-.11h0V274h0v-.11h0v-.11h0v-.12h0v-.12h0v-.11h0v-.11h0v-.11h0v-.11h0V273h0v-.12h0v-.12h0v-.11h0v-.11h0v-.11h0v-.11h0v-.11h0v-.11h0V272c-6,.25-9.06.38-15.1.69l-5,.27c-1.69-1.88-2.52-2.83-4.16-4.7q-19.92,1.22-39.79,2.91L179,331.39h0l0,.11h0l0,.11h0l0,.12h0l0,.12h0l0,.12h0l0,.11h0l0,.11h0l0,.11h0l0,.11h0l0,.12h0l0,.12h0l0,.12h0l0,.11h0l0,.11h0l0,.11h0l0,.11h0l0,.12h0l0,.12h0l0,.12h0l0,.11h0l0,.11h0l0,.11h0l0,.11h0l0,.11h0l0,.12h0l0,.12q8.44-.75,16.89-1.39l10.41-45.07c3.9-.3,5.95-.45,9.66-.71q-4.4,21-8.8,42.06h0l0,.11h0l0,.11h0l0,.11h0l0,.11h0l0,.11h0l0,.12h0l0,.12h0l0,.11h0l0,.11h0l0,.11h0l0,.11h0l0,.11h0l0,.12h0l0,.12h0l0,.12h0l0,.11h0l0,.11h0l0,.11h0l0,.11h0l0,.11h0l0,.12h0l0,.12h0l0,.11h0l0,.11h0l0,.11h0l0,.11q8.44-.58,16.91-1.08l7.05-39.91c4-.24,6.08-.35,9.94-.55l-6.48,41.93h0v.11h0v.11h0v.11h0v.12h0V333h0v.11h0v.11h0v.11h0v.11h0v.11h0v.12h0v.11h0v.11h0V334h0v.11h0v.11h0v.11h0v.12h0v.11h0v.11h0v.11h0v.11h0V335h0v.11h0v.12h0v.12q8.53-.45,17.08-.78,3.65-29.86,7.27-59.71Z"/><path class="cls-4" d="M137.67,299.63l0-.12h0l0-.12h0l0-.12h0l0-.12h0l0-.12h0l0-.11h0l0-.11h0l0-.12h0l0-.12h0l0-.12h0l0-.12h0l0-.12h0l0-.11h0l0-.11h0l0-.12h0l0-.12h0l0-.12h0l0-.12h0l0-.12h0l0-.11h0l0-.11h0l0-.12h0l0-.12h0l0-.12h0l0-.12h0l0-.12q-12.93,1.65-25.84,3.46-3.23,7.68-6.43,15.35h0l0,.12h0l0,.12h0l0,.12h0l0,.12h0l0,.12h0l0,.12h0l0,.11h0l0,.12h0l0,.12h0l0,.12h0l0,.12h0l0,.12h0l0,.12h0l0,.12h0l0,.11h0l0,.12h0l0,.12h0l0,.12h0l0,.12h0l0,.12h0l0,.12h0l0,.11h0l0,.12h0l0,.12h0l0,.12h0l0,.12c3.83-.55,6-.85,9.44-1.32L112,324.26q-7.5,1-15,2.11,5.92-13.81,11.86-27.65,15.33-2.22,30.68-4.17l5.61-15.24h0l0-.11h0l0-.12h0l0-.12h0l0-.12h0l0-.12h0l0-.12h0l0-.11h0l0-.11h0l0-.12h0l0-.12h0l0-.12h0l0-.12h0l0-.12h0l0-.11h0l0-.11h0l0-.12h0l0-.12h0l0-.12h0l0-.12h0l0-.12h0l0-.11h0l0-.11h0l0-.12h0l0-.12h0l0-.12h0l0-.12q-19.83,2.54-39.58,5.53c-2.9,2.36-4.36,3.55-7.3,5.92q-11.81,25.75-23.62,51.49l0,0,0,.07,0,0,0,.07,0,0,0,.07,0,0,0,.07,0,0,0,.07,0,0,0,.07,0,.05,0,.06,0,.05,0,.07,0,0,0,.07,0,0,0,.07,0,0,0,.07,0,0,0,.07,0,0,0,.07,0,.05,0,.06,0,0,0,.07,0,0,0,.07,0,0,0,.07,0,0,0,.07,0,0,0,.07,0,0,0,.07,0,.05,0,.06,0,.05,0,.07,0,0,0,.07,0,0,0,.07,0,0,0,.07,0,0,0,.07c1.27,1.71,1.92,2.56,3.23,4.27q13.38-2.06,26.79-3.89c-.25.6-.5,1.24-.82,2h0l0,.12h0l0,.11h0l0,.12h0l0,.12h0l0,.12h0l0,.12h0l0,.12h0l0,.12h0l0,.11h0l0,.11h0l0,.12h0l0,.12h0l0,.12h0l0,.12h0l0,.12h0l0,.11h0l0,.11h0l0,.12h0l0,.12h0l0,.12h0l0,.12h0l0,.12h0l0,.11h0l0,.11h0l0,.12h0l0,.12q8.49-1.17,17-2.22c.74-2,1.12-3,1.87-5.08,1.58-4.3,2.37-6.45,4-10.75l11-29.88Z"/><path class="cls-5" d="M155.11,275.21q17.34-2.06,34.74-3.63-8.25,30.17-16.51,60.32-8.44.77-16.88,1.63l7.35-24c-4.29.44-6.44.67-10.72,1.14q-3.94,12-7.87,24.08-8.43.91-16.85,1.95l20-55.81C151.06,278.6,152.42,277.47,155.11,275.21Zm1.66,24.14c4.19-.46,6.29-.68,10.48-1.11,1.23-4,1.85-6.05,3.08-10.09-4.1.42-6.15.64-10.25,1.09C158.76,293.29,158.1,295.31,156.77,299.35Z"/><path class="cls-5" d="M206.27,284.93,195.86,330q-8.45.64-16.89,1.39l15.85-60.25q19.89-1.69,39.79-2.91c1.64,1.87,2.47,2.82,4.16,4.7l5-.27c6-.31,9.06-.44,15.1-.69q-3.63,29.86-7.27,59.71-8.53.35-17.08.78Q238,310,241.49,287.61c-4.16.22-6.24.33-10.4.57L224,328.1q-8.46.48-16.91,1.08l9.42-45C212.43,284.47,210.38,284.62,206.27,284.93Z"/><path class="cls-5" d="M276,310.47q13.68-.33,27.37-.45L303,325.5q-22.57.21-45.15,1,3.3-29.85,6.61-59.68,19.93-.68,39.87-.88c-.14,6-.2,8.94-.33,14.9q-12.88.12-25.75.42c-.31,4-.46,6-.77,9.93,6.31-.16,9.47-.22,15.78-.31-.18,4-.27,6-.44,9.93-6.45.09-9.67.16-16.11.32C276.45,304.86,276.3,306.73,276,310.47Z"/><path class="cls-5" d="M334.92,280.94c-4.12-.06-6.18-.08-10.3-.11.09,4,.14,5.95.22,9.92q10.53.08,21,.31c2.24,2,3.36,3.05,5.64,5.09q1,12.42,1.93,24.84c-2.08,1.93-3.13,2.9-5.26,4.84q-16.92-.37-33.87-.37l-5.59-4.95.17-14.9q8.13,0,16.27,0c.05,2,.07,3,.11,5,4.39,0,6.58.05,11,.12-.17-4-.26-6-.44-9.93q-10.74-.17-21.48-.16c-2.14-2-3.21-3-5.31-4.95q.14-12.4.28-24.82c2-2,3-3,5-5q15,0,29.91.32c2.12,2,3.2,3,5.37,5.09l1.15,14.91c-6.24-.16-9.36-.23-15.61-.32C335.05,283.92,335,282.92,334.92,280.94Z"/><path class="cls-5" d="M374,306.8q1.51,12.45,3,24.88-8.53-.35-17.09-.59l-5.73-64.61c6,.17,9,.28,14.95.52l3,24.88c4.2.16,6.3.26,10.51.46q-1.79-12.45-3.58-24.91c6,.29,9,.45,14.93.8q5.3,29.92,10.58,59.87-8.46-.51-16.92-.9-1.43-10-2.86-19.92C380.49,307.07,378.32,307,374,306.8Z"/><path class="cls-5" d="M481.92,314.22l-6.75-4.76-5.34-.58,8,25.24q-8.43-.9-16.88-1.7-8.58-30.18-17.17-60.38,17.4,1.65,34.74,3.76c2.71,2.27,4.07,3.41,6.82,5.69l8.58,23.31c-1.49,1.41-2.24,2.11-3.76,3.53l6.84,4.83q5.4,14.64,10.78,29.29-8.49-1.06-17-2Q486.34,327.33,481.92,314.22Zm-18.47-25.53c1.27,4,1.91,6.06,3.19,10.1,4.19.44,6.28.67,10.47,1.15-1.37-4.05-2.05-6.07-3.41-10.12C469.6,289.35,467.55,289.13,463.45,288.69Z"/><path class="cls-5" d="M517.88,314.79q5.22,12.76,10.45,25.54-8.42-1.17-16.83-2.25Q500,307.56,488.41,277c5.94.76,8.91,1.16,14.85,2l10.44,25.54,5.23.74c1.23-1.75,1.83-2.62,3-4.36l-8.8-20.5c5.94.87,8.9,1.32,14.83,2.26q5.89,12.87,11.81,25.75c-1.14,1.73-1.72,2.59-2.91,4.32,3,2.39,4.56,3.58,7.63,6q7.08,15.45,14.17,30.89-8.46-1.33-16.95-2.59l-11.38-26.52c-2.87-2-4.3-3-7.14-5Z"/><path class="cls-5" d="M139.58,291.65l5.61-15.24q-19.83,2.54-39.58,5.53c-2.9,2.36-4.36,3.55-7.3,5.92q-11.81,25.75-23.62,51.49c1.27,1.71,1.92,2.57,3.23,4.28q14-2.16,28-4.07l-2,5.1q8.49-1.16,17-2.21c.74-2,1.12-3.05,1.87-5.08,1.58-4.31,2.37-6.46,4-10.76l11-29.88q-12.93,1.65-25.84,3.46-3.23,7.68-6.43,15.35c4.26-.61,6.39-.91,10.66-1.49L112,324.26q-8.16,1.1-16.32,2.31l13.19-30.75Q124.23,293.6,139.58,291.65Z"/><path class="cls-5" d="M404,268.84q17.42,1.14,34.81,2.74,8.25,30.17,16.51,60.32-8.44-.78-16.89-1.46-2.88-11.94-5.77-23.88c-4.3-.34-6.45-.51-10.74-.82q2.63,11.92,5.24,23.84-8.44-.63-16.9-1.14Q405.09,301,400,273.52C401.59,271.65,402.39,270.71,404,268.84Zm15.45,25.71c4.2.31,6.3.47,10.5.81l-2.42-10c-4.11-.34-6.17-.49-10.28-.79Z"/><path class="cls-6" d="M154.53,275.21q17.34-2.06,34.74-3.63Q181,301.75,172.76,331.9q-8.44.77-16.87,1.63,3.66-12,7.34-24c-4.29.44-6.44.67-10.72,1.14q-3.94,12-7.87,24.08-8.43.91-16.85,1.95,10-27.9,20-55.81C150.49,278.6,151.84,277.47,154.53,275.21Zm1.67,24.14c4.18-.46,6.28-.68,10.47-1.11,1.23-4,1.85-6.05,3.08-10.09-4.1.42-6.15.64-10.25,1.09Z"/><path class="cls-6" d="M205.69,284.93,195.28,330q-8.44.64-16.89,1.39l15.85-60.25q19.89-1.69,39.79-2.91c1.64,1.87,2.47,2.82,4.16,4.7l5-.27c6-.31,9.06-.44,15.11-.69q-3.64,29.86-7.28,59.71-8.53.35-17.08.78,3.47-22.43,6.94-44.85c-4.16.22-6.24.33-10.4.57l-7,39.92q-8.46.48-16.91,1.08l9.42-45C211.85,284.47,209.8,284.62,205.69,284.93Z"/><path class="cls-6" d="M275.43,310.47q13.68-.33,27.37-.45l-.35,15.48q-22.57.21-45.15,1,3.31-29.85,6.61-59.68,19.93-.68,39.87-.88c-.14,6-.2,8.94-.33,14.9q-12.88.12-25.75.42c-.31,4-.46,6-.77,9.93,6.31-.16,9.47-.22,15.78-.31-.18,4-.27,6-.44,9.93-6.45.09-9.67.16-16.11.32C275.87,304.86,275.72,306.73,275.43,310.47Z"/><path class="cls-6" d="M334.34,280.94c-4.12-.06-6.18-.08-10.3-.11.09,4,.14,5.95.22,9.92q10.53.08,21,.31c2.24,2,3.36,3.05,5.64,5.09q1,12.42,1.93,24.84c-2.08,1.93-3.13,2.9-5.26,4.84q-16.92-.37-33.87-.37l-5.59-4.95.17-14.9q8.13,0,16.27,0c.05,2,.07,3,.11,5,4.39,0,6.58.05,11,.12-.17-4-.26-6-.44-9.93q-10.74-.17-21.48-.16c-2.14-2-3.21-3-5.31-4.95q.13-12.4.28-24.82c2-2,3-3,5-5q15,0,29.91.32c2.12,2,3.2,3,5.37,5.09l1.15,14.91c-6.24-.16-9.36-.23-15.61-.32C334.47,283.92,334.43,282.92,334.34,280.94Z"/><path class="cls-6" d="M373.41,306.8l3,24.88q-8.55-.35-17.1-.59l-5.73-64.61c6,.17,9,.28,14.95.52l3,24.88c4.2.16,6.31.26,10.51.46q-1.78-12.45-3.58-24.91c6,.29,9,.45,14.94.8q5.28,29.92,10.57,59.87-8.46-.51-16.92-.9-1.42-10-2.86-19.92C379.91,307.07,377.74,307,373.41,306.8Z"/><path class="cls-6" d="M481.34,314.22l-6.75-4.76-5.34-.58,8,25.24q-8.43-.9-16.87-1.7-8.6-30.18-17.18-60.38,17.4,1.65,34.74,3.76c2.71,2.27,4.07,3.41,6.83,5.69q4.28,11.65,8.57,23.31c-1.48,1.41-2.24,2.11-3.76,3.53l6.84,4.83q5.4,14.64,10.78,29.29-8.49-1.06-17-2Q485.76,327.33,481.34,314.22Zm-18.47-25.53c1.27,4,1.91,6.06,3.19,10.1,4.19.44,6.28.67,10.47,1.15-1.37-4.05-2-6.07-3.41-10.12C469,289.35,467,289.13,462.87,288.69Z"/><path class="cls-6" d="M517.3,314.79q5.22,12.76,10.45,25.54-8.41-1.17-16.83-2.25-11.54-30.52-23.09-61c5.94.76,8.91,1.16,14.85,2q5.22,12.77,10.45,25.54l5.22.74c1.23-1.75,1.83-2.62,3-4.36q-4.39-10.26-8.8-20.5c5.94.87,8.9,1.32,14.83,2.26q5.9,12.87,11.81,25.75c-1.14,1.73-1.72,2.59-2.91,4.32,3,2.39,4.56,3.58,7.63,6q7.08,15.45,14.17,30.89-8.46-1.33-17-2.59l-11.38-26.52c-2.87-2-4.3-3-7.14-5Z"/><path class="cls-6" d="M139,291.65l5.61-15.24q-19.83,2.54-39.58,5.53c-2.9,2.36-4.36,3.55-7.3,5.92q-11.81,25.75-23.62,51.49c1.27,1.71,1.92,2.57,3.23,4.28q14-2.16,28-4.07l-2,5.1q8.49-1.16,17-2.21l1.87-5.08c1.58-4.31,2.37-6.46,4-10.76l11-29.88q-12.93,1.65-25.84,3.46-3.23,7.68-6.43,15.35c4.26-.61,6.39-.91,10.66-1.49l-4.07,10.21q-8.16,1.1-16.32,2.31l13.19-30.75Q123.65,293.6,139,291.65Z"/><path class="cls-6" d="M403.41,268.84q17.41,1.14,34.81,2.74,8.25,30.17,16.51,60.32-8.44-.78-16.89-1.46-2.88-11.94-5.77-23.88c-4.3-.34-6.45-.51-10.74-.82q2.63,11.92,5.24,23.84-8.44-.63-16.9-1.14-5.16-27.46-10.3-54.92C401,271.65,401.82,270.71,403.41,268.84Zm15.46,25.71c4.19.31,6.29.47,10.49.81l-2.42-10c-4.11-.34-6.17-.49-10.28-.79C417.54,288.55,418,290.55,418.87,294.55Z"/><path class="cls-5" d="M155.11,275.21q17.34-2.06,34.74-3.63-8.25,30.17-16.51,60.32-8.44.77-16.88,1.63l7.35-24c-4.29.44-6.44.67-10.72,1.14q-3.94,12-7.87,24.08-8.43.91-16.85,1.95l20-55.81C151.06,278.6,152.42,277.47,155.11,275.21Zm1.66,24.14c4.19-.46,6.29-.68,10.48-1.11,1.23-4,1.85-6.05,3.08-10.09-4.1.42-6.15.64-10.25,1.09C158.76,293.29,158.1,295.31,156.77,299.35Z"/><path class="cls-5" d="M206.27,284.93,195.86,330q-8.45.64-16.89,1.39l15.85-60.25q19.89-1.69,39.79-2.91c1.64,1.87,2.47,2.82,4.16,4.7l5-.27c6-.31,9.06-.44,15.1-.69q-3.63,29.86-7.27,59.71-8.53.35-17.08.78Q238,310,241.49,287.61c-4.16.22-6.24.33-10.4.57L224,328.1q-8.46.48-16.91,1.08l9.42-45C212.43,284.47,210.38,284.62,206.27,284.93Z"/><path class="cls-5" d="M276,310.47q13.68-.33,27.37-.45L303,325.5q-22.57.21-45.15,1,3.3-29.85,6.61-59.68,19.93-.68,39.87-.88c-.14,6-.2,8.94-.33,14.9q-12.88.12-25.75.42c-.31,4-.46,6-.77,9.93,6.31-.16,9.47-.22,15.78-.31-.18,4-.27,6-.44,9.93-6.45.09-9.67.16-16.11.32C276.45,304.86,276.3,306.73,276,310.47Z"/><path class="cls-5" d="M334.92,280.94c-4.12-.06-6.18-.08-10.3-.11.09,4,.14,5.95.22,9.92q10.53.08,21,.31c2.24,2,3.36,3.05,5.64,5.09q1,12.42,1.93,24.84c-2.08,1.93-3.13,2.9-5.26,4.84q-16.92-.37-33.87-.37l-5.59-4.95.17-14.9q8.13,0,16.27,0c.05,2,.07,3,.11,5,4.39,0,6.58.05,11,.12-.17-4-.26-6-.44-9.93q-10.74-.17-21.48-.16c-2.14-2-3.21-3-5.31-4.95q.14-12.4.28-24.82c2-2,3-3,5-5q15,0,29.91.32c2.12,2,3.2,3,5.37,5.09l1.15,14.91c-6.24-.16-9.36-.23-15.61-.32C335.05,283.92,335,282.92,334.92,280.94Z"/><path class="cls-5" d="M374,306.8q1.51,12.45,3,24.88-8.53-.35-17.09-.59l-5.73-64.61c6,.17,9,.28,14.95.52l3,24.88c4.2.16,6.3.26,10.51.46q-1.79-12.45-3.58-24.91c6,.29,9,.45,14.93.8q5.3,29.92,10.58,59.87-8.46-.51-16.92-.9-1.43-10-2.86-19.92C380.49,307.07,378.32,307,374,306.8Z"/><path class="cls-5" d="M481.92,314.22l-6.75-4.76-5.34-.58,8,25.24q-8.43-.9-16.88-1.7-8.58-30.18-17.17-60.38,17.4,1.65,34.74,3.76c2.71,2.27,4.07,3.41,6.82,5.69l8.58,23.31c-1.49,1.41-2.24,2.11-3.76,3.53l6.84,4.83q5.4,14.64,10.78,29.29-8.49-1.06-17-2Q486.34,327.33,481.92,314.22Zm-18.47-25.53c1.27,4,1.91,6.06,3.19,10.1,4.19.44,6.28.67,10.47,1.15-1.37-4.05-2.05-6.07-3.41-10.12C469.6,289.35,467.55,289.13,463.45,288.69Z"/><path class="cls-5" d="M517.88,314.79q5.22,12.76,10.45,25.54-8.42-1.17-16.83-2.25Q500,307.56,488.41,277c5.94.76,8.91,1.16,14.85,2l10.44,25.54,5.23.74c1.23-1.75,1.83-2.62,3-4.36l-8.8-20.5c5.94.87,8.9,1.32,14.83,2.26q5.89,12.87,11.81,25.75c-1.14,1.73-1.72,2.59-2.91,4.32,3,2.39,4.56,3.58,7.63,6q7.08,15.45,14.17,30.89-8.46-1.33-16.95-2.59l-11.38-26.52c-2.87-2-4.3-3-7.14-5Z"/><path class="cls-5" d="M139.58,291.65l5.61-15.24q-19.83,2.54-39.58,5.53c-2.9,2.36-4.36,3.55-7.3,5.92q-11.81,25.75-23.62,51.49c1.27,1.71,1.92,2.57,3.23,4.28q14-2.16,28-4.07l-2,5.1q8.49-1.16,17-2.21c.74-2,1.12-3.05,1.87-5.08,1.58-4.31,2.37-6.46,4-10.76l11-29.88q-12.93,1.65-25.84,3.46-3.23,7.68-6.43,15.35c4.26-.61,6.39-.91,10.66-1.49L112,324.26q-8.16,1.1-16.32,2.31l13.19-30.75Q124.23,293.6,139.58,291.65Z"/><path class="cls-5" d="M404,268.84q17.42,1.14,34.81,2.74,8.25,30.17,16.51,60.32-8.44-.78-16.89-1.46-2.88-11.94-5.77-23.88c-4.3-.34-6.45-.51-10.74-.82q2.63,11.92,5.24,23.84-8.44-.63-16.9-1.14Q405.09,301,400,273.52C401.59,271.65,402.39,270.71,404,268.84Zm15.45,25.71c4.2.31,6.3.47,10.5.81l-2.42-10c-4.11-.34-6.17-.49-10.28-.79Z"/></g></g></svg>