<svg xmlns="http://www.w3.org/2000/svg" viewBox="0 0 640 640"><defs><style>.cls-1{fill:#ffdc52;}.cls-2{fill:#340c96;}.cls-3{fill:#e81082;}.cls-4{fill:#ffff27;}.cls-5{fill:#fff;}.cls-6{fill:#ffbd29;}</style></defs><g id="Camada_2" data-name="Camada 2"><g id="Camada_1-2" data-name="Camada 1"><circle class="cls-1" cx="320" cy="320" r="320"/><path class="cls-2" d="M497.61,304.44l-3.64-.28-33.89-103.3-25.4-1.16-.14.42h-.3l-.14.4-.31,0-.13.42-.31,0-.14.42-.3,0-.14.42-.3,0-.15.44-.32,0-.13.41-.29,0-.14.41-.31,0-.13.42-.31,0-.14.41-.3,0-.14.42-.31,0-.13.4h-.31l-.14.44-.31,0-.14.43h-.3l-.14.41H428l-.13.4-.32,0-.14.41h-.28l-.14.42-.31,0-.14.42-.3,0-.14.43-.3,0-.14.42-.31,0-.14.4h-.31l-.13.41h-.3l-.14.41h-.3l-.14.41h-.31l-.15.43h-.31l-.14.41-.31,0-.13.4h-.31l-.13.41h-.31l-.13.41h-.32l-.14.41h-.29l-.14.42h-.31l-.14.41H420l-.13.4h-.31l-.13.41h-.31l-.13.41a29.37,29.37,0,0,0-12-13.31c-6.39-3.75-14.37-5.6-24.39-5.64l-44.71.8v.36h-.1v.51h-.11v.31h-.12v.43h-.08V198h-.11v.42h-.1V199h-.11v.35h-.11v.49H337v.34h-.1v.38h-.1v.41h-.1v.4h-.13v.43h-.08v.45h-.1v.36h-.12V203h-.06v.44h-.14v.34H336v.41h-.11v.41h-.13V205h-.07v.49h-.12v.33h-.08v.56h-.11v.31h-.12v.43h-.08v.4h-.1V208H335v.45h-.1v.45h-.11v.34h-.09v.45h-.1V210h-.1v.42h-.1v.4h-.13v.42h-.08v.51h-.1v.41H334v.47h-.1V213h-.12v.4h-.09v.4h-.11v.36h-.11v.49h-.09v.48h-.12v.34h-.09v.44h-.1v.45H333v.29h-.07v.44h-.14v.44h-.08v.36h-.1v.49h-.11v.33h-.09v.51h-.1v.37h-.1v.42h-.1v.35h-.13v.43l-6.2-17.16-23.83-.38-2.73,9.23v-.32H299v-.35h-.12v-.45h-.14V211h-.13l0-.49h-.12v-.35h-.14v-.45h-.13v-.35h-.14v-.49h-.13v-.38h-.13l0-.5h-.11v-.34h-.13l0-.46h-.13v-.39h-.13v-.49h-.14V206h-.13v-.45h-.13v-.35h-.13l0-.53h-.12v-.35h-.12v-.42h-.13v-.43h-.14v-.38h-.14v-.46h-.13v-.42h-.12v-.42h-.14v-.42h-.13V201h-.13l0-.46h-.12v-.49H295v-.35h-.14v-.45h-.13v-.35h-.13v-.53h-.13V198h-.15v-.46h-.13v-.38H294v-.5h-.13v-.35h-.12v-.5h-.14v-.35h-.12v-.45h-.13v-.41l-59.57.51-2.81,3.68-.15-.32h-.18l-.19-.39h-.15l-.2-.41h-.18l-.2-.43h-.16l-.2-.42h-.16l-.21-.42h-.17l-.21-.43h-.16l-.2-.42H228l-.21-.42h-.16l-.22-.46h-.17l-.19-.4-45.75.95L167.84,299.7l-35.7,3.62,8.47,35.28.67-.11,0,.06.58-.1,0,.1.67-.11v.07l.5-.09,0,.1.62-.11,0,.06.65-.11,0,.09.61-.11,0,.08.56-.09,0,.08.54-.09,0,.08.65-.11,0,.09.53-.09v.07l.73-.12,0,.1.6-.1,0,.06.63-.11,0,.1.66-.11v.06l.57-.09,0,.09.71-.12,0,.06.45-.07,0,.1.64-.11,0,.06.63-.1,0,.1.63-.11,0,.07.63-.11,0,.07.28-.05,12.68,86.68L224.1,417l0-.25.4-.06,0-.27.43-.05,0-.27.38-.06,0-.25.43-.06,0-.28.19,0,.29.42.62.9c1.27,1.8,2.64,3.56,4.08,5.24l.13.14.65.75c.41.47.83.92,1.24,1.36s.62.65.94,1c.49.51,1,1,1.5,1.49s1.15,1.09,1.75,1.63l1.08.93.15.12c.39.34.78.66,1.19,1l1.27,1c.44.34.89.67,1.32,1l.28.21c.3.23.61.45.92.67q1.13.78,2.4,1.59c.31.2.63.39,1,.58l.21.13c.53.32,1.06.64,1.6.94s.81.46,1.23.68c.6.33,1.22.65,1.82.95l.26.13c.25.13.5.26.75.37.85.41,1.75.82,2.79,1.27l.8.33.27.1c.65.27,1.31.53,2,.78l1.14.41c.8.29,1.62.55,2.35.78l.24.08.51.16c1,.29,2,.57,3.06.84l.84.2.22.05c.77.18,1.54.36,2.35.52l.17,0,.87.18c1.07.19,2.05.36,3,.49l.36.06c1,.14,2.11.27,3.38.4l1,.08c.85.08,1.71.13,2.56.18l1,.05c1.28.06,2.39.08,3.48.08,18.87,0,34.8-8.05,45.52-22.82,11.5,10.32,26.38,15.73,43.42,15.73,1,0,2,0,3.25-.09l.74,0c1.13-.08,2.14-.17,3.08-.29l.41-.05c.89-.12,1.8-.26,2.76-.43l.67-.12c1-.19,2-.41,2.91-.65l.56-.15c.81-.22,1.61-.45,2.37-.7l.16,0,.5-.16c.86-.29,1.74-.61,2.62-1l.71-.29c.72-.3,1.42-.62,2-.92l.13-.06.52-.24c.75-.38,1.5-.78,2.31-1.24l.81-.47c.62-.37,1.24-.75,1.79-1.12l.85-.56c.58-.4,1.15-.81,1.72-1.24l.86-.66c.53-.43,1.06-.86,1.57-1.29l1-.91,1.12-1.05c.29-.29.59-.57.9-.89.46-.47.91-.94,1.36-1.44s.67-.75,1-1.12.52-.6.75-.88c.49-.59,1-1.19,1.42-1.81l.11-.15.53-.7c.32-.44.63-.89.9-1.29l.36-.52.13.15,1,.63a11,11,0,0,0,5.93,2l17.66.77a11,11,0,0,0,9.24-4.16l.33.2c.18.12.36.24.55.35l.47.3c.16.11.33.22.51.32a4.45,4.45,0,0,0,.51.33,5.69,5.69,0,0,0,.52.33l.48.31c.17.12.35.24.54.35s.35.23.54.34a11.06,11.06,0,0,0,5.14,1.85l30.3,3a11.13,11.13,0,0,0,12.16-10.49l5.33-96.44A11.09,11.09,0,0,0,497.61,304.44Z"/><path class="cls-3" d="M496.74,315.23l-36.8-2.9a.3.3,0,0,0-.19.05l-.32,0a.32.32,0,0,0-.19.05l-.31,0a.28.28,0,0,0-.2.05l-.31,0a.25.25,0,0,0-.19.05l-.32,0a.31.31,0,0,0-.19.06l-.32,0a.33.33,0,0,0-.19.06l-.32,0a.32.32,0,0,0-.19.05l-.31,0a.3.3,0,0,0-.19.05l-.32,0a.25.25,0,0,0-.19.05l-.32,0a.26.26,0,0,0-.19.05l-.32,0a.33.33,0,0,0-.19.06l-.31,0a.31.31,0,0,0-.19.06l-.32,0a.3.3,0,0,0-.19.05l-.32,0a.32.32,0,0,0-.19.05l-.32,0a.26.26,0,0,0-.19,0l-.31,0a.25.25,0,0,0-.19.05l-.32,0a.31.31,0,0,0-.19.06l-.32,0a.33.33,0,0,0-.19.06l-.32,0a.35.35,0,0,0-.18.05l-.32,0a.3.3,0,0,0-.19.05l-.32,0a.25.25,0,0,0-.19.05l-.32,0a.26.26,0,0,0-.19.05l-.32,0a.28.28,0,0,0-.18.06l-.33,0a.3.3,0,0,0-.18.06l-.32,0a.38.38,0,0,0-.19.05l-.32,0a.32.32,0,0,0-.19,0l-.32,0a.23.23,0,0,0-.18.05l-.33,0a.24.24,0,0,0-.18,0l-.32,0a.34.34,0,0,0-.17.05l-.6-1.24a.33.33,0,0,0-.26-.18l-13.92-1.14a.31.31,0,0,0-.19.06l-.21,0a.3.3,0,0,0-.19.05l-.21,0a.38.38,0,0,0-.19.05h-.21a.25.25,0,0,0-.19,0l-.21,0a.36.36,0,0,0-.19.05h-.22a.26.26,0,0,0-.19,0l-.21,0a.41.41,0,0,0-.19.05H428a.26.26,0,0,0-.19.05l-.21,0a.32.32,0,0,0-.19.05l-.21,0a.33.33,0,0,0-.19.06l-.21,0a.32.32,0,0,0-.19.05l-.21,0a.33.33,0,0,0-.19.06l-.21,0a.32.32,0,0,0-.19.05l-.21,0a.31.31,0,0,0-.19.06l-.21,0a.3.3,0,0,0-.19,0l-.21,0a.31.31,0,0,0-.19.06l-.21,0a.25.25,0,0,0-.19.05l-.22,0a.37.37,0,0,0-.18.05h-.22a.23.23,0,0,0-.18.05l-.22,0a.35.35,0,0,0-.18.05h-.22a.23.23,0,0,0-.18.05l-.22,0a.35.35,0,0,0-.18.05H422a.23.23,0,0,0-.18.05l-.22,0a.27.27,0,0,0-.18,0l-.22,0a.33.33,0,0,0-.19.06l-.21,0a.32.32,0,0,0-.19,0l-.21,0a.33.33,0,0,0-.19.06l-.21,0a.32.32,0,0,0-.19.05l-.22,0a.3.3,0,0,0-.18.06l-.22,0a.24.24,0,0,0-.18.05l-.22,0a.37.37,0,0,0-.18.05h-.22a.23.23,0,0,0-.18.05l-.22,0a.35.35,0,0,0-.18,0h-.22a.23.23,0,0,0-.18.05l-.22,0a.35.35,0,0,0-.18,0h-.22a.23.23,0,0,0-.18.05l-.22,0a.27.27,0,0,0-.18.05l-.22,0a.28.28,0,0,0-.18.06l-.22,0a.27.27,0,0,0-.18.05l-.22,0a.28.28,0,0,0-.18.06l-.23,0a.26.26,0,0,0-.17.05l-.23,0a.27.27,0,0,0-.17.06l-.23,0a.24.24,0,0,0-.18.05l-.22,0a.3.3,0,0,0-.18.06l-.22,0a.23.23,0,0,0-.18.05l-.22,0a.35.35,0,0,0-.18.05h-.22a.23.23,0,0,0-.18.05l-.22,0a.35.35,0,0,0-.18.05h-.22a.23.23,0,0,0-.18.05l-.22,0a.27.27,0,0,0-.18.05l-.22,0a.28.28,0,0,0-.18.06l-.23,0a.24.24,0,0,0-.16.05l-.24,0a.25.25,0,0,0-.16.06l-.24,0a.24.24,0,0,0-.16.05l-.24,0a.23.23,0,0,0-.16.06l-.24,0a.22.22,0,0,0-.16.05l-.24,0a.27.27,0,0,0-.17.06l-.23,0a.26.26,0,0,0-.17.05l-.23,0a.27.27,0,0,0-.17.06l-.23,0a.26.26,0,0,0-.17,0l-.23,0a.31.31,0,0,0-.17.05h-.23a.24.24,0,0,0-.27.23l-.72,10.29c-9-10.52-22.5-15.08-40.12-15.08a41.65,41.65,0,0,0-13.34,2.21l-.11,0-.11,0-.11,0-.12,0-.11,0-.11,0-.11,0-.12,0-.11,0-.11,0-.11,0-.11,0-.12,0-.11,0-.11,0-.11,0-.11,0-.12,0-.11,0-.11,0-.11,0-.12,0-.11,0-.11,0-.11,0-.11,0-.11,0-.12,0-.11,0-.11,0-.11,0-.11,0-.12,0-.11,0-.11,0-.11,0-.11,0-.12,0-.11,0-.11,0-.11,0-.11,0-.12,0-.11,0-.11,0-.11,0-.12,0-.11,0-.11,0-.11,0-.11,0-.12,0-.11,0-.11,0-.11,0-.11,0-.12,0-.11,0-.11,0-.11,0a35.53,35.53,0,0,0-18.68,15.1c-9.37-18.7-26.77-26.53-51.21-26.53A47.86,47.86,0,0,0,242,314.83l.25-6.2-.37,0v-.1l-.38,0v-.09l-.38,0v-.09l-.37,0v-.09l-.37,0v-.09l-.38,0v-.1l-.38,0v-.09l-.37,0v-.09l-.38,0v-.09l-.38,0v-.09l-.38,0V308l-.37,0V308l-.38,0v-.09l-.38,0v-.1l-.37,0v-.09l-.37,0v-.09l-.38,0v-.09l-.38,0v-.09l-.37,0v-.1l-.37,0v-.09l-.38,0v-.09l-.38,0v-.09l-.37,0v-.09l-.38,0v-.1l-.38,0v-.09l-.38,0v-.09l-.37,0v-.09l-.38,0v-.09l-.38,0v-.1l-.38,0V307l-.37,0V307l-.38,0v-.09l-.38,0v-.09l-.37,0v-.1l-.37,0v-.09l-.38,0v-.09l-.38,0v-.09l-.37,0v-.09l-.37,0v-.1l-.38,0v-.09l-.38,0v-.09l-.37,0v-.09l-.38,0v-.09l-.38,0v-.1l-.38,0v-.09l-.37,0v-.09l-.38,0v-.1l-.38,0V306l-.38,0V306l-.37,0v-.09l-.38,0v-.09l-.38,0v-.1l-.37,0v-.09l-.37,0v-.09l-.38,0v-.09l-.38,0v-.09l-.37,0v-.1l-.38,0v-.09l-.38,0v-.09l-.38,0v-.09l-.37,0v-.09l-74,7.5,3.22,13.4.61-.1,0,.08.61-.11,0,.08.61-.1,0,.08.61-.1,0,.08.61-.1,0,.08.62-.11,0,.08.61-.1,0,.08.61-.1,0,.08.61-.1,0,.08.61-.11,0,.08.61-.1,0,.08.62-.1,0,.08.61-.1,0,.08.61-.11,0,.08.61-.1,0,.08.61-.1,0,.08.61-.1,0,.08.62-.11,0,.08.61-.1,0,.08.61-.1,0,.08.61-.1,0,.08.61-.11,0,.08.61-.1,0,.08.62-.1,0,.08h0l12.7,86.83,35.82-4.9,0-.26.42-.06,0-.26.42-.06,0-.27.42-.05,0-.27.42,0,0-.27.42-.05,0-.27.42-.05,0-.27.42-.06,0-.26.42-.06,0-.26.42-.06,0-.26.42-.06,0-.26.42-.06,0-.26.42-.06,0-.26.42-.06,0-.26.42-.06,0-.26.42-.06,0-.26.42-.06,0-.26.42-.06,0-.26.42-.06,0-.26.42-.06,0-.27.42,0,0-.27.42-.05,0-.27.42-.05,0-.27.42-.05,0-.27.42-.06,0-.26.42-.06,0-.26.42-.06,0-.26.42-.06,0-.26.42-.06,0-.26.42-.06,0-.26.42-.06,0-.26.42-.06,0-.26.42-.06,0-.26.42-.06,0-.26.42-.06,0-.26.42-.06,0-.26.42-.06,0-.27.42-.05,0-.27.42-.05,0-.27h.12c9,24.89,30,39.65,57.1,39.65,22.81,0,36.51-13.34,43.58-30.9,9.66,15.13,25.71,23.81,45.36,23.81,21,0,33.34-12.64,39.49-29a.28.28,0,0,0,.27.27h.1a.29.29,0,0,0,.27.31h.1a.29.29,0,0,0,.28.31h.1a.29.29,0,0,0,.27.31h.1a.3.3,0,0,0,.28.31h.1a.29.29,0,0,0,.28.31h.09a.3.3,0,0,0,.28.31h.1a.29.29,0,0,0,.28.31h.09a.31.31,0,0,0,.29.32h.09a.3.3,0,0,0,.28.32H417a.3.3,0,0,0,.29.32h.09a.3.3,0,0,0,.28.32h.09a.3.3,0,0,0,.29.32h.09a.29.29,0,0,0,.29.31h.08a.31.31,0,0,0,.29.32h.09a.3.3,0,0,0,.29.32h.08a.32.32,0,0,0,.29.32h.09a.3.3,0,0,0,.29.32H420a.31.31,0,0,0,.3.31h.08a.31.31,0,0,0,.29.32h.09a.3.3,0,0,0,.29.32h.08a.32.32,0,0,0,.3.32h.08a.3.3,0,0,0,.29.32h.08a.31.31,0,0,0,.3.31h.08a.3.3,0,0,0,.29.32h.08a.32.32,0,0,0,.3.32H423a.32.32,0,0,0,.3.32h.07a.32.32,0,0,0,.3.32h.08a.31.31,0,0,0,.3.32l17.68.77a.32.32,0,0,0,.34-.29l.82-10.86.12.16a.27.27,0,0,0,.2.12l.17,0,.14.19a.28.28,0,0,0,.2.12h.17l.14.2a.31.31,0,0,0,.2.11l.17,0,.14.19a.28.28,0,0,0,.2.12l.18,0,.13.19a.32.32,0,0,0,.21.12h.17l.13.19a.3.3,0,0,0,.21.12l.17,0,.13.19a.3.3,0,0,0,.21.12l.17,0,.14.19a.3.3,0,0,0,.2.12h.17l.14.19a.27.27,0,0,0,.2.12l.17,0,.14.19a.28.28,0,0,0,.21.12l.16,0,.14.19a.32.32,0,0,0,.21.12h.17l.13.19a.26.26,0,0,0,.21.12l.17,0,.13.19a.3.3,0,0,0,.21.12l.17,0,.13.18a.32.32,0,0,0,.21.13H450l.13.19a.27.27,0,0,0,.21.12l.17,0,.13.19a.3.3,0,0,0,.22.12l.16,0,.13.18a.32.32,0,0,0,.22.13h.16l.14.19a.26.26,0,0,0,.21.12l.16,0,.14.19a.3.3,0,0,0,.21.12l.17,0,.13.18a.32.32,0,0,0,.21.13h.17l.13.19a.27.27,0,0,0,.22.12l.16,0,.13.19a.3.3,0,0,0,.22.12l.16,0,.13.18a.32.32,0,0,0,.22.13h.16l.13.19a.32.32,0,0,0,.22.13h.16l.13.18a.3.3,0,0,0,.22.13l.16,0,.13.18a.36.36,0,0,0,.23.13h.16l.13.19a.32.32,0,0,0,.22.13h.16l.13.18a.29.29,0,0,0,.22.13l.16,0,.13.18a.32.32,0,0,0,.22.13h.16l.13.19a.32.32,0,0,0,.22.13h.16l.13.18a.29.29,0,0,0,.22.13l.16,0,.13.18a.34.34,0,0,0,.23.13h.15l.13.18a.31.31,0,0,0,.23.14h.16l.12.18a.32.32,0,0,0,.23.13l.16,0,.12.18a.36.36,0,0,0,.23.13l.16,0,.12.17a.33.33,0,0,0,.23.14l30.25,3a.31.31,0,0,0,.35-.3L497,315.57A.33.33,0,0,0,496.74,315.23ZM231.89,328.11l-.64-7.82,6.43-.76A57.73,57.73,0,0,0,231.89,328.11Z"/><path class="cls-3" d="M179.82,295.61l.54-.05,0,.14.54-.05,0,.14.54-.05,0,.14.54-.05,0,.14.54-.05,0,.14L183,296l0,.14.54,0,0,.14.54-.05,0,.14.54-.06,0,.15.54-.06,0,.15.54-.06,0,.15.54-.06,0,.15.54-.06,0,.15.54-.06,0,.15.54-.06,0,.15.54-.06,0,.15.54-.06,0,.15.54-.06,0,.15.54-.06,0,.15.54-.06,0,.15.54-.06,0,.15.54-.06,0,.15.54-.06,0,.15.54-.06,0,.15.54-.06,0,.15.54-.06,0,.15.54-.06,0,.15.54-.06,0,.15.53-.06v.15l.53-.06v.15l.53-.06v.15l.53-.06v.15l.53-.06v.15l.53-.06v.15l.53-.06v.15l.53-.06v.15l.53-.06v.15l.53-.06V299l.53-.06v.15l.53-.06v.15l.53-.06v.15l.53-.06v.15l.53-.06v.15l.53-.06v.14l.53-.05,0,.14.54,0,0,.14.54-.05,0,.14.54-.05,0,.14.54-.05,0,.14.54-.05,0,.14.54-.05,0,.14.54-.05,0,.14.54,0,0,.14.54-.05,0,.14.54,0,0,.14.54-.05,0,.14.54-.05,0,.14.54-.05,0,.14.54-.05,0,.14.54-.05,0,.14,25.62-2.55.71-5,.17.21.12-.15.21.25.13-.15.21.26.13-.15.21.26.12-.16.21.26L239,294l.21.26.12-.16.22.26.12-.15.21.26.13-.15.21.26.12-.16.21.26.13-.15.21.26.13-.16.21.26.12-.15.21.26.13-.15.21.25.13-.15.21.26.12-.15.21.26.13-.16.21.26.12-.15.22.26.12-.15.21.25.13-.15.21.26.12-.15.21.26.13-.16.21.26.13-.15.21.26.12-.16.21.26.13-.15.21.26.12-.15.22.25.12-.15.21.26.13-.15.21.26.12-.16.22.26.12-.15.21.26.13-.15.21.25.12-.15.21.26.13-.15.21.26.13-.16.21.26.12-.15.21.26.13-.15.21.25.12-.15.22.26.12-.15.21.26,2.58-3.16h.1v.11h.27v.12l.27,0v.12h.27v.11h.26V295H254v.11h.27v.12l.27,0v.12h.27v.11h.27v.11h.27v.11h.27v.12l.27,0v.12h.27v.11h.27V296h.26v.11H257v.11h.27v.12h.27v.11h.27v.11h.27v.11h.27v.11h.27v.12l.27,0v.12h.26V297h.27v.11h.26v.11H260v.12l.27,0v.12h.27v.11h.27v.11h.27v.11h.27v.12l.27,0v.12H262V298h.26v.11h.27v.11h.26v.12l.27,0v.12l30-1.32-.2-8.06h.11l0,.13h.16l0,.13h.15l0,.13h.15l0,.14h.16l0,.13h.16l0,.13h.16l0,.13h.16l0,.13h.15l0,.13H294l0,.13h.16l0,.13h.16l0,.13h.16l0,.13h.16l0,.13h.15l0,.13h.15l0,.13h.16l0,.13h.16l0,.12h.16l0,.13h.16l0,.13h.15l0,.13h.15l0,.13h.16l0,.13h.16l0,.13h.16l0,.14h.16l0,.13H296l0,.13h.15l0,.13h.16l0,.13,6.71-.06,3.62-5.81,3.17,5.83,28.79-.34-.05-.12h.13l-.05-.13h.13l0-.13h.13l-.05-.13h.13l-.05-.13h.13l-.05-.13H339l0-.13h.12l0-.13h.12l0-.13h.13l-.05-.13h.13l-.05-.13h.13l-.05-.13h.13l0-.13h.13l-.05-.13h.13l-.05-.13h.13l0-.13h.12l0-.13h.12l0-.13h.12l0-.13H340l0-.13h.13l-.05-.13h.13l-.05-.13h.13l0-.13h.13l-.05-.13h.13l-.05-.13h.13l0-.13h.12l0-.12h.12l0-.12h.13l-.05-.12h.13l0-.12h.13l-.05-.13H341l-.05-.13h.13l-.05-.13h.13l-.05-.13h.13l0-.13h.12l0-.13h.12l0-.13h.12l0-.13h.13l-.05-.13h.13l0-.13h.13l-.05-.13h.13l-.05-.13h.13l-.05-.13H342l-.05-.13h.13l0-.13h.12l0-.13h.12l0-.13h.13l-.05-.13h.13l-.05-.13h.13l0-.13h.13l-.05-.13h.13l-.05-.13h.13l-.05-.13h.09l0,16.26,11.41-.44a.85.85,0,0,0,.44-.14l.16-.09A.83.83,0,0,0,355,301l.15-.09a433428981978.24,433428981978.24,0,0,1,.32-.18.6.6,0,0,0,.15-.09l.16-.08.16-.09a1.19,1.19,0,0,0,.15-.09.83.83,0,0,0,.16-.09,1.29,1.29,0,0,0,.16-.09l.15-.09a.51.51,0,0,0,.16-.09l.16-.08.15-.09a.83.83,0,0,0,.16-.09,1.29,1.29,0,0,0,.16-.09,1.19,1.19,0,0,0,.15-.09.83.83,0,0,0,.16-.09,1.19,1.19,0,0,0,.15-.09l.16-.08.16-.09.15-.09a433428981978.28,433428981978.28,0,0,1,.32-.18l.15-.09a.83.83,0,0,0,.16-.09l.16-.08.15-.09h0l2.43,2.73,28.62-1.24-.06-.07.38,0-.05-.08.38,0-.06-.07.38,0-.05-.08h.38l-.06-.08.38,0-.05-.08h.38l-.06-.08.38,0-.05-.07.38,0-.06-.08h.38l0-.08.38,0-.06-.08h.38l-.05-.08.38,0-.06-.07.32,0-.5,1.51,8,.17.06-.1h.32l.06-.1h.32l.06-.1h.32l.06-.1h.32l.06-.1h.32l.06-.1h.32l.06-.1h.32l.06-.1H405l.06-.1h.32l.06-.09h.32l.06-.1h.32l.06-.1h.32l.06-.1h.32l.06-.1h.32l.06-.09h.32l.06-.1H408l.06-.1h.32l.06-.1h.32l.06-.1h.2l1,2,34.45.62,0-.09h.62l0-.1h.62l0-.1h.62l0-.1h.62l0-.1.61,0,0-.1H448l0-.1h.61l0-.1h.61l0-.1.61,0,0-.1h.61l0-.1h.61l0-.1h.61l0-.1h.62l0-.09h.62l0-.1h.62l0-.1h.61l0-.1h.61l0-.1.61,0,0-.1h.61l0-.1h.61l0-.1h.61l0-.1.61,0,0-.1h.61l0-.1h.62l0-.1H459l0-.1h.62l0-.09h.62l0-.1h.61l0-.1h.61l0-.1h.61l0-.1.61,0,0-.1h.61l0-.1h.61l0-.1h.61l0-.1h.61l0-.09h.62l0-.1H466l0-.1h.62l0-.1h.62l0-.1.61,0,0-.1h.61l0-.1h.61l0-.1h.61l0-.1.61,0,0-.1h.61l0-.1h.61l0-.1h.61l0-.1h.62l0-.09H473l0-.1h.62l0-.1h.62l0-.1h.61l0-.1.61,0,0-.1h.61l0-.1h.61l0-.1H477l0-.1h.61l0-.09h.61l0-.1h.61l0-.1h.62l0-.1h.62l-27.81-84.78-9.74-.44-.13.41H442l-.14.41h-.3l-.14.41h-.31l-.13.41h-.31l-.14.41h-.3l-.14.41h-.31l-.13.41h-.31l-.14.41h-.3l-.14.41h-.31l-.13.41H438l-.14.41h-.3l-.14.41h-.31l-.13.41-.31,0-.14.42-.3,0-.14.42-.31,0-.13.42-.31,0-.14.42-.3,0-.14.42-.31,0-.13.42-.31,0-.14.42-.3,0-.14.42-.31,0-.13.42-.31,0-.14.42-.3,0-.14.42-.31,0-.13.42-.31,0-.14.42-.3,0-.14.42-.31,0-.13.42-.31,0-.14.42-.31,0-.13.42-.31,0-.13.42-.31,0-.14.41h-.31l-.13.41h-.31l-.13.41h-.31l-.14.41h-.31l-.13.41h-.31l-.13.41H426l-.14.41h-.31l-.13.41h-.31l-.14.41h-.3l-.14.41h-.31l-.13.41h-.31l-.14.41h-.3l-.14.41h-.31l-.13.41h-.31l-.14.41H422l-.14.41h-.31l-.13.41h-.31l-.14.41h-.3l-.14.41h-.31l-.13.41h-.31l-.14.41h-.3l-.14.41h-.31l-.13.41h-.31l-.14.41H418l-.14.41h-.31l-.13.41-.31,0-.14.42-.3,0-.14.42-.31,0-.13.42-.31,0-.14.42-.3,0-15.09,45.81L386.93,263l.07-.06.29-.26a3.47,3.47,0,0,0,.29-.25l.29-.25.29-.25.29-.25.29-.25.29-.26.29-.25.29-.25.29-.25.29-.25.29-.25.28-.26a3.47,3.47,0,0,0,.29-.25l.29-.25.29-.25.29-.25.29-.25.29-.26.29-.25.29-.25.29-.25.29-.25.29-.25.29-.26.29-.25.29-.25.29-.25.28-.25.29-.26a3.47,3.47,0,0,0,.29-.25l.29-.25.29-.25.29-.25.29-.25.29-.26.29-.25.29-.25.29-.25.29-.25.29-.26.29-.25.29-.25.29-.25.29-.25.28-.25c5.73-4.79,10.84-11.89,10.89-22,.09-20.12-16.4-23.3-28.66-23.36l-33.8.61V207h-.11v.41h-.1v.42h-.1v.41h-.1v.42h-.1v.41h-.1v.42H348v.41h-.1v.42h-.1v.41h-.1v.41h-.1v.41h-.1V212h-.1v.42h-.1v.41h-.1v.42h-.1v.41H347v.42h-.1v.41h-.11v.41h-.11v.41h-.11v.41h-.1v.42h-.1v.41h-.1V217h-.1v.41h-.1v.42H346v.41h-.1v.41h-.1V219h-.1v.41h-.1v.42h-.1v.41h-.1v.42h-.1v.41h-.1v.42h-.1V222H345v.41h-.1v.41h-.11v.41h-.11v.42h-.11V224h-.1v.42h-.1v.41h-.1v.42h-.1v.41h-.1v.41H344v.41h-.1v.41h-.1v.42h-.1v.41h-.1v.42h-.1v.41h-.1V229h-.1v.41h-.1v.42h-.1v.41H343v.41h-.1v.42h-.11v.41h-.11v.42h-.11l.12,50.61-24.64-68.16-8.13-.13-17.55,59.16-1.1-42.27h-.13v-.42H291v-.43h-.13v-.42h-.13v-.42h-.13v-.42h-.13v-.42h-.13v-.42h-.14v-.42h-.13v-.42h-.13V227h-.13v-.42h-.13v-.42h-.13v-.42h-.13v-.42h-.13l0-.42h-.13v-.42h-.13V224h-.13v-.42h-.13v-.42h-.13v-.42h-.13v-.42h-.13v-.42h-.14v-.42h-.13v-.42h-.13v-.42h-.13v-.42h-.13v-.42h-.13v-.42h-.13V219h-.13l0-.42h-.13v-.42h-.13v-.42h-.13v-.42h-.13v-.42h-.13v-.42h-.13v-.42h-.13v-.42H286v-.42h-.13v-.42h-.13v-.42h-.13V214h-.13v-.42h-.13v-.42h-.13v-.42H285l0-.42h-.13v-.42h-.13v-.42h-.13V211h-.13v-.42h-.13v-.42h-.13v-.42H284l0-.42h-.13v-.42h-.13v-.42h-.13v-.42h-.13v-.42h-.13v-.42h-.13v-.42H283v-.42h-.13l0-.42h-.13v-.42l-43.61.37-8.51,11.15h0l-.2-.42h-.17l-.2-.42h-.17l-.2-.42h-.17l-.2-.42h-.17l-.2-.42h-.17l-.2-.42h-.17l-.2-.42h-.17l-.2-.42h-.17l-.2-.42h-.16l-.21-.42h-.16l-.21-.42h-.16l-.21-.42h-.16l-.21-.42h-.16l-.21-.42h-.16l-.21-.42H225l-.21-.42h-.16l-.21-.42h-.16l-.21-.42h-.16l-.21-.42h-.16l-.21-.42h-.16l-.21-.42h-.16l-.21-.42h-.16l-.21-.42H222l-.21-.42h-.16l-.21-.42h-.16l-.21-.42h-.16l-.2-.42h-.17l-.2-.42-29.5.61L179.3,295.52l.54,0Zm162.91-10.22h0Zm51.67,13.42h0v0Z"/><polygon class="cls-4" points="148.78 326.24 163.66 323.74 176.65 412.53 212.46 407.63 205.36 320.35 218.99 318.74 219.52 305.34 145.56 312.84 148.78 326.24"/><path class="cls-4" d="M365.22,308.17c-14.46,0-28.63,7.6-37.52,22-9-20.56-26.9-29.1-52.43-29.1-26.58,0-52.33,22.91-52.33,65s25.41,68.73,61.86,68.73c22.81,0,36.51-13.34,43.58-30.9,9.66,15.13,25.71,23.81,45.36,23.81,32.59,0,44.4-30.48,44.4-58.12C418.14,325.15,399.3,308.17,365.22,308.17Zm-85.93,72.07c-5.69,0-10.2-5-10.2-11.36s4.51-11.36,10.2-11.36,10.2,5,10.2,11.36S285,380.24,279.29,380.24Zm89.52-1.3c-5.08,0-9.12-4.5-9.12-10.16s4-10.16,9.12-10.16,9.12,4.5,9.12,10.16S373.89,378.94,368.81,378.94Z"/><path class="cls-4" d="M496.74,315.23l-36.8-2.9a.32.32,0,0,0-.34.3l-1.77,24.22a.32.32,0,0,1-.61.12l-12.26-25a.33.33,0,0,0-.26-.18l-13.92-1.14a.33.33,0,0,0-.35.3l-6.71,96.74a.32.32,0,0,0,.31.34l17.68.77a.32.32,0,0,0,.34-.29l1.69-22.39a.32.32,0,0,1,.58-.16l16.55,23.27a.33.33,0,0,0,.23.14l30.25,3a.31.31,0,0,0,.35-.3L497,315.57A.33.33,0,0,0,496.74,315.23Z"/><polygon class="cls-4" points="214.97 273.47 229.44 291.16 245.25 271.86 246.32 292.23 284.89 290.53 282.69 205.57 239.08 205.94 227.83 220.68 220.35 205.32 190.85 205.94 179.3 295.52 212.28 292.23 214.97 273.47"/><path class="cls-4" d="M302.28,277.4l4.08,7.5,37.07-.43-25.34-70.09-8.13-.13L289,285l8.63-.08Zm7.27-26.17L314.83,270l-10.91.1Z"/><path class="cls-4" d="M363.65,296a1.18,1.18,0,0,0,1.11-.93l1.52-6.84,6.93,7.78,36.84-1.6L384.59,259.8s26.49-7.38,26.61-30.47c.09-20.12-16.4-23.3-28.66-23.36l-33.8.61.21,89.94Zm7.77-69.73s11.86-1.86,11.82,6.3c-.05,9.13-12.22,9.55-12.22,9.55Z"/><path class="cls-4" d="M431,286.18l4.62,9.12,44.37.81-27.81-84.78-9.74-.44-27.62,83.86,10.34.21Zm9.36-31,5.58,22.43L433,277.3Z"/><polygon class="cls-5" points="147.68 315.32 219.41 308.04 219.52 305.34 145.56 312.84 148.78 326.24 150.25 325.99 147.68 315.32"/><polygon class="cls-5" points="165.78 326.21 164.06 326.5 176.65 412.53 178.37 412.29 165.78 326.21"/><path class="cls-5" d="M225.06,368.56c0-42.09,25.75-65,52.34-65,18.94,0,33.66,4.7,43.68,15.53-10-12.59-25.48-18-45.81-18-26.58,0-52.33,22.91-52.33,65,0,21,6.32,38.13,17.17,50C230.56,404.37,225.06,388.14,225.06,368.56Z"/><path class="cls-5" d="M370.93,381.42c5.09,0,9.12-4.5,9.12-10.16a10.52,10.52,0,0,0-3.65-8.15,11,11,0,0,1,1.53,5.67c0,5.66-4,10.16-9.12,10.16a8.53,8.53,0,0,1-5.47-2A8.89,8.89,0,0,0,370.93,381.42Z"/><path class="cls-5" d="M281.41,382.72c5.69,0,10.2-5,10.2-11.36a11.76,11.76,0,0,0-3.95-9,12.27,12.27,0,0,1,1.83,6.52c0,6.33-4.52,11.36-10.2,11.36a9.52,9.52,0,0,1-6.25-2.36A9.86,9.86,0,0,0,281.41,382.72Z"/><path class="cls-5" d="M329.82,332.66c8.89-14.42,23.07-22,37.53-22,16.88,0,30,4.17,39,13.78-8.95-11.37-22.83-16.26-41.1-16.26-14.17,0-28.06,7.32-37,21.19C328.79,330.43,329.32,331.52,329.82,332.66Z"/><path class="cls-5" d="M333.88,411.09a53.24,53.24,0,0,1-3.38-4.69c-.05.13-.1.26-.16.38A49.48,49.48,0,0,0,333.88,411.09Z"/><path class="cls-5" d="M446.45,388.39a.31.31,0,0,0-.42-.07l14.84,20.87a.33.33,0,0,0,.23.14l.25,0Z"/><path class="cls-5" d="M459.35,339.45a.32.32,0,0,0,.6-.12l1.77-24.23a.31.31,0,0,1,.34-.29l34.86,2.75.11-2a.33.33,0,0,0-.29-.34l-36.8-2.9a.32.32,0,0,0-.34.3l-1.74,23.78Z"/><path class="cls-5" d="M432.56,313.39a.32.32,0,0,1,.34-.3l13.16,1.08-1.1-2.24a.33.33,0,0,0-.26-.18l-13.92-1.14a.33.33,0,0,0-.35.3l-6.71,96.74a.32.32,0,0,0,.31.34l2,.09Z"/><polygon class="cls-5" points="192.97 208.42 221.56 207.82 220.35 205.32 190.85 205.94 179.3 295.52 181.77 295.27 192.97 208.42"/><polygon class="cls-5" points="229.95 223.16 241.21 208.42 282.76 208.06 282.69 205.57 239.08 205.94 228.39 219.95 229.95 223.16"/><polygon class="cls-5" points="217.09 275.95 217.07 276.05 229.44 291.16 229.48 291.1 217.09 275.95"/><polygon class="cls-5" points="247.37 274.34 245.5 276.63 246.32 292.23 248.31 292.14 247.37 274.34"/><polygon class="cls-5" points="311.67 253.71 310.94 256.18 314.83 270.04 306.79 270.11 306.05 272.62 316.95 272.52 311.67 253.71"/><polygon class="cls-5" points="304.4 279.88 303.99 280.55 306.36 284.9 307.13 284.89 304.4 279.88"/><polygon class="cls-5" points="312.08 216.73 318.98 216.84 318.09 214.38 309.96 214.25 288.99 284.96 291.85 284.93 312.08 216.73"/><path class="cls-5" d="M382.78,230a6.48,6.48,0,0,1,.46,2.5c0,6.66-6.52,8.68-10,9.29l-.06,2.74s12.17-.42,12.21-9.55A5.48,5.48,0,0,0,382.78,230Z"/><path class="cls-5" d="M350.87,209.06l33.8-.61c7.59,0,16.8,1.27,22.69,7-5.58-7.85-16.24-9.43-24.82-9.47l-33.8.61.21,89.94,2.12-.08Z"/><polygon class="cls-5" points="442.43 257.62 441.57 260.22 445.89 277.57 435.91 277.37 435.12 279.78 448.02 280.05 442.43 257.62"/><polygon class="cls-5" points="444.52 213.37 452.92 213.75 452.13 211.33 442.39 210.89 414.77 294.75 417.69 294.81 444.52 213.37"/><polygon class="cls-5" points="433.07 288.66 432.58 289.4 435.57 295.3 436.45 295.32 433.07 288.66"/><polygon class="cls-6" points="219.52 305.34 216.3 305.67 215.92 315.2 202.29 316.81 209.4 404.09 176.08 408.65 176.65 412.53 212.46 407.63 205.36 320.35 218.99 318.74 219.52 305.34"/><path class="cls-6" d="M403.56,321.3c7.55,9.85,11.51,24.42,11.51,44.77,0,27.64-11.81,58.12-44.39,58.12-15.92,0-29.47-5.69-39.18-15.89,9.81,12.41,24.57,19.43,42.24,19.43,32.59,0,44.4-30.48,44.4-58.12C418.14,346.66,413.11,331.05,403.56,321.3Z"/><path class="cls-6" d="M325.31,400.38c-7.06,17.56-20.77,30.9-43.57,30.9-17.93,0-33.17-6.45-44.05-18,11,13.76,27.44,21.54,47.11,21.54,22.58,0,36.24-13.09,43.37-30.39Q326.66,402.5,325.31,400.38Z"/><path class="cls-6" d="M496.74,315.23,493.8,315l-5.16,93.46a.32.32,0,0,1-.35.3l-29.81-2.93,2.39,3.36a.33.33,0,0,0,.23.14l30.25,3a.31.31,0,0,0,.35-.3L497,315.57A.33.33,0,0,0,496.74,315.23Z"/><path class="cls-6" d="M441.25,382.38a.32.32,0,0,0-.58.16L439,404.93a.31.31,0,0,1-.33.29l-14.71-.64-.22,3.07a.32.32,0,0,0,.31.34l17.68.77a.32.32,0,0,0,.34-.29l1.69-22.39a.5.5,0,0,1,.05-.13Z"/><polygon class="cls-6" points="211.9 269.93 209.22 288.69 179.8 291.62 179.3 295.52 212.28 292.23 214.94 273.65 211.9 269.93"/><polygon class="cls-6" points="282.69 205.57 279.72 205.59 281.83 286.99 246.13 288.56 246.32 292.23 284.89 290.53 282.69 205.57"/><polygon class="cls-6" points="242.18 268.32 226.45 287.51 229.44 291.16 242.54 275.17 242.18 268.32"/><polygon class="cls-6" points="318.09 214.38 316.3 214.35 340.36 280.93 304.43 281.35 306.36 284.9 343.43 284.47 318.09 214.38"/><path class="cls-6" d="M411.2,229.33c0-8.06-2.59-13.39-6.53-16.9,2.17,3.3,3.49,7.64,3.46,13.36-.11,23.09-26.6,30.47-26.6,30.47L407,290.83l-36.84,1.6-6.93-7.78-1.52,6.84a1.17,1.17,0,0,1-1.11.93l-11.64.44v3.66l14.7-.56a1.18,1.18,0,0,0,1.11-.93l1.52-6.84,6.93,7.78,36.84-1.6L384.59,259.8S411.08,252.42,411.2,229.33Z"/><polygon class="cls-6" points="452.13 211.33 450.19 211.25 476.87 292.57 433.79 291.79 435.57 295.3 479.94 296.11 452.13 211.33"/></g></g></svg>