<svg xmlns="http://www.w3.org/2000/svg" viewBox="0 0 799.46 799.46"><defs><style>.cls-1{fill:#6c4ad3;}.cls-2{fill:#fd253c;}.cls-3{fill:#f6cbea;}</style></defs><g id="Layer_2" data-name="Layer 2"><g id="Layer_1-2" data-name="Layer 1"><circle class="cls-1" cx="399.73" cy="399.73" r="399.73"/><path class="cls-2" d="M685.43,518c0,11.4-8.62,20.33-19.63,20.33h-.53c-1.73-.06-3.71-.15-5.81-.25-4.24-.21-9-.44-13.06-.44-2.13,0-4.54.16-7.09.33-2.13.14-4.34.28-6.71.36h-.53a23.6,23.6,0,0,1-12.71-3.53A20.1,20.1,0,0,1,608,538.36h-.43c-2.91-.08-13.29-.35-24.74-.35-4.4,0-8.66.1-12.78.19-3.65.08-7.1.16-10.28.16a19.26,19.26,0,0,1-14.3-6.3c-9.83,5.92-23,8.92-39.18,8.92-17.45,0-30.75-2.47-40.52-7.54a19.88,19.88,0,0,1-13.31,4.92c-1,0-2.17-.06-4.81-.2-3.62-.2-9.08-.5-13.19-.5-1.44,0-3,.14-4.81.3-2.15.19-4.58.4-7.25.4a19.78,19.78,0,0,1-14.17-5.61c-7.84,4.89-17.27,7.36-28.13,7.36-15.52,0-26.6-4.45-33.88-13.61a33.79,33.79,0,0,1-2.39-3.41,1.87,1.87,0,0,0-3.4.37,21.12,21.12,0,0,1-20.1,15.08c-2.5,0-7.24-.1-12.72-.22-7-.14-14.87-.31-20-.31-8,0-15.44.18-21.79.35h-.4a19.59,19.59,0,0,1-16.64-8.86c-10.25,7.62-24.1,11.48-41.39,11.48-21.06,0-37.07-4.52-48.92-13.82-15.35-12-23.14-31.59-23.14-58.07,0-21.45,5.82-39.7,16.83-52.76a58.5,58.5,0,0,1,12.39-11.07,1.33,1.33,0,0,0-.75-2.44l-4.33.1c-3,.07-5.58.13-7.65.13-11.5,0-20.16-8.52-20.16-19.81,0-8.48,4.57-13.5,7.3-16.5.63-.69,1.23-1.35,1.85-2.1,3.59-4.32,6.81-12.28,6.93-60.93-9.29-1.91-16.08-10.28-16.08-20.61,0-12,8.66-21,20.16-21,6.14,0,13,.18,19.59.36,6.15.17,12,.33,16.76.33,3.72,0,6-.17,8.45-.35,2.26-.17,4.59-.34,7.63-.34,19.76,0,23.21,15.23,24.67,21.81.85,3.69,2,8.55,3.29,13.73.89-4.22,1.78-8.62,2.69-13.17l.13-.66c.89-4.49,1.82-9.13,5.2-13.51,4.21-5.45,10.51-8.2,18.72-8.2,4.64,0,8.59.14,12.76.29,5.22.19,11.14.4,20.1.4,3.53,0,7.33-.18,11-.35s7.36-.34,10.83-.34c11.5,0,20.16,9,20.16,21,0,.44,0,.88-.05,1.32,10.09-6.64,22.95-10.12,38.27-10.12,18,0,32,4.51,41.52,13.4a40.08,40.08,0,0,1,5.91,6.93,42.15,42.15,0,0,1,9-8.73c8.44-6,19.66-9.51,33.41-10.35-.06-.78-.08-1.53-.08-2.24A25,25,0,0,1,473.63,252c5.85-3.75,13.47-5.66,22.65-5.66,10.2,0,19.59,3.46,26.44,9.74a34.73,34.73,0,0,1,11.19,26c0,.78,0,1.55-.07,2.31,10.31-6.09,24.41-9.19,42-9.19,19.73,0,33.12,4.26,42.11,13.39,4.92,5,11.45,14,11.43,34.17h0A20.05,20.05,0,0,1,646,336.09c1.85,5,2.22,11.06,2.22,19.19,0,16.58-2.6,27.59-8.44,35.69-5,7-12.2,11.32-21.41,13a2.83,2.83,0,0,0-2.34,2.88q0,.83,0,1.59v0a2.84,2.84,0,0,0,3.28,2.83,61.71,61.71,0,0,1,10.29-.83c16.11,0,28.07,5.1,35.55,15.16,7.89,10.61,8.9,24.31,8.9,35.06,0,6.77-.59,15.62-1.16,24.18-.31,4.61-.63,9.32-.8,13.13C680,500.71,685.43,508.43,685.43,518ZM710,394.33l-20.16-8.64a1.41,1.41,0,0,1-.74-.74l-8.41-20.27a1.39,1.39,0,0,0-2.56,0l-8.64,20.17a1.41,1.41,0,0,1-.75.73L648.48,394a1.39,1.39,0,0,0,0,2.56l20.16,8.64a1.38,1.38,0,0,1,.74.74l8.41,20.26a1.39,1.39,0,0,0,2.56,0L689,406a1.43,1.43,0,0,1,.75-.74L710,396.89A1.39,1.39,0,0,0,710,394.33Z"/><path class="cls-3" d="M313.64,387.61c3.32,0,4.72-2.45,4.72-5.59,0-2.8-1.4-5.42-4.72-5.42-1.39,0-3.32.35-4.19.35-4.37,0-5.24-3-5.59-11.19-.35-10.31-.88-24.81-.88-39.5,0-9.43.35-18.87.88-27.08.35-5.6.7-11,5.07-11,1.74,0,3.49.53,4.71.53,3.32,0,4.72-3.15,4.72-5.59,0-3.15-1.4-5.6-4.72-5.6-6.46,0-14.33.7-21.84.7-16.43,0-22.9-.7-32.86-.7-7.16,0-7.51,3-8.91,10-3.15,15.73-6.12,30.06-9.79,41.94-2.62,8.74-3.84,11.36-7.69,11.36-2.8,0-4.19-1.57-7.34-10.66-3.84-11.19-9.26-33.73-11.36-42.82-1.75-7.86-3.15-9.79-9.61-9.79-5.42,0-8.22.7-16.08.7-10.31,0-24.82-.7-36.35-.7-3.32,0-4.72,2.45-4.72,5.6,0,2.44,1.4,5.59,4.72,5.59,1.22,0,3-.53,4.72-.53,5.76,0,6.64,6.12,6.64,12.94,0,55.22-3.67,65.19-10.49,73.4-3.49,4.2-5.59,5.42-5.59,8.74,0,2.8,1.92,4.37,4.72,4.37,4.72,0,12.93-.35,23.42-.35,8.38,0,12.93.35,15.73.35,3.14,0,4.19-3.32,4.19-4.54,0-2.63,0-4.37-5.42-7.87C177,366.81,174,344.09,174,302.32c0-4.54.88-7.16,3.32-7.16,1.58,0,3.32,2.44,4.72,5.41,7.34,15.38,19.93,58.2,25.69,79.52,1.75,6.47,1.58,7.34,15.73,7.34,12.76,0,16.26-.52,17.48-7.34,5.24-27.61,13.63-62.74,18.7-78.12,1.57-4.72,3.85-6.81,5.59-6.81,3.15,0,3.67,2.27,3.67,9.43,0,33.91-.35,51.39-1.22,61.17C267,374,266.46,377,262.09,377c-.88,0-2.8-.35-4.2-.35-3.32,0-4.72,2.62-4.72,5.42,0,3.14,1.4,5.59,4.72,5.59,6.12,0,14.51-.35,27.27-.35S308.23,387.61,313.64,387.61Z"/><path class="cls-3" d="M371,390.23c30.23,0,41.07-11,41.07-38.8,0-3.49-1.92-4.89-4.19-4.89-1.93,0-4.2,1.4-4.2,4.89,0,10.49-9.79,14.33-23.42,14.33-15.38,0-22.54-5.42-22.54-13.8,0-5.25,4.71-6.47,11.18-6.47,35.48,0,42.47-9.44,42.47-25.17,0-16.08-9.09-30.58-39.32-30.58-28.14,0-48.76,13.8-48.76,52.43C323.26,379.57,345.8,390.23,371,390.23Zm.87-89.13c9.09,0,11.71,6.64,11.71,14.15,0,18.18-14,21-20.1,21-3.32,0-6.11-1.05-7-4.55a29.43,29.43,0,0,1-.7-6.64C355.76,308.44,360.13,301.1,371.84,301.1Z"/><path class="cls-3" d="M442.62,406.66c17.83,0,34.08-10.84,49.11-10.84,8.74,0,13.64,2.8,13.64,6.47,0,1.75-1.4,3.67-4.9,3.67-5.07,0-9.79-3.67-14.5-3.67-3,0-4.72,1.92-4.72,4.37,0,4.54,4.89,7.69,16.95,7.69,17.65,0,24.12-8.39,24.12-25.17,0-13.28-8.22-21.67-24.65-21.67-14.85,0-36.17,9.61-47.71,9.61-5.07,0-6.81-2.79-6.81-5.94,0-6.82,6.29-10.84,28.83-10.84,32.51,0,44.4-10.83,44.4-34.08,0-15.9-8.22-21.67-14-23.76-2.79-1.05-4-2.28-4-3.85s.7-2.62,3.32-2.62c.53,0,3.15.52,5.25.52,7.34,0,11.53-6.29,11.53-14.5,0-11.89-9.08-20.28-22.19-20.28-12.76,0-19,4.72-19,11.54,0,8,5.41,11.36,13.11,12.76,3.32.7,4.54,1.57,4.54,3.14,0,1.75-.7,3-3.85,3-4.71,0-13.45-1.39-22.37-1.39-26.39,0-42.64,9.61-42.64,32.5,0,16.78,7.86,25.17,19.22,26.92a4.1,4.1,0,0,1,3.85,3.84c0,1.58-1.22,3.15-3.67,3.15h-3.85c-13.45,0-22,8.91-22,24.82C419.55,399.14,426.72,406.66,442.62,406.66Zm29-105.91c9.27,0,13.46,5.59,13.46,24.12,0,20.27-3.14,24.46-12.93,24.46-13.11,0-14-14.33-14-29.53C458.18,302.5,463.6,300.75,471.63,300.75Z"/><path class="cls-3" d="M582.09,370.66c.35-2.8,1-4.2,3.32-4.2,1.92,0,2.62,1.4,3.15,4.2,2.09,10.66,5.76,18.7,20.44,18.7,17,0,23.77-8.39,23.77-34.08,0-13.81-1.22-17.31-6.46-17.31-3.5,0-5.07,2.63-5.07,5.6,0,3.67,3.32,10,3.32,14.15,0,5.07-1.4,8.39-5.77,8.39-3.5,0-5.59-2.79-5.59-8.56,0-5.07.7-20.8.7-35,0-19.22-5.94-32-38.1-32-32.34,0-45.44,11.54-45.44,25.17,0,11.18,6.46,16.6,19.4,16.6,12.41,0,19.22-4.72,19.22-13.28,0-6.12-3.67-8.57-8.39-9.61-3.14-.7-4.37-2.28-4.37-3.85,0-2.27,1-4.37,8.39-4.37,12.93,0,19.75,4,19.75,16.43,0,15.73-2.27,17.83-26.39,21.15-17,2.27-31.28,7-31.28,26.56,0,14.16,6.81,23.95,26,23.95C571.78,389.36,581,380.62,582.09,370.66Zm-26.22-13.29c0-7.86,10.14-13.63,23.77-13.63,3.5,0,4.55,2.45,4.55,5.24,0,10-7.69,17-17.31,17C560.94,365.94,555.87,364.19,555.87,357.37Z"/><path class="cls-3" d="M201.44,420.68c8,0,9.61,6.12,15,19.75,5.59,14,15,20.1,29.19,20.1,6.64-.35,7.69-3.84,7.69-8.74,0-4.37,0-10.83.17-16.6.18-7.17.88-18.18.88-20.1,0-3.67-2.45-5.24-5.25-5.24-3.14,0-5.06,1.57-5.06,5.24,0,.52.35,2.45.35,4.19,0,2.8-1.93,3.85-4.37,3.85-9.62,0-17.13-12.93-38.28-12.93-32.86,0-51,23.24-51,58.89,0,47.19,27.09,56.46,56.62,56.46,37.58,0,47-19.93,47-48.77,0-4.54-2.62-6.29-6.12-6.29-4,0-6.12,2.62-6.12,5.94,0,1.93,1.05,5.07,1.05,8.57,0,11-8.91,16.6-23.42,16.6-26,0-33.73-16.78-33.73-45.79C186.06,431.34,191.83,420.68,201.44,420.68Z"/><path class="cls-3" d="M326.58,425.93c-11.54,0-19.4,9.78-23.6,27.09-1.75,7.34-1.75,8.21-4,8.21-1.4,0-2.44-1.22-2.44-4.54C296.52,448.3,299,442,299,434c0-3.5-.7-6.3-5.07-6.3-4.19,0-7.69.53-11.71.53-6.46,0-12.05-.53-17.3-.53-4,0-4.72,2.63-4.72,5.42,0,2.62.7,5.42,4.72,5.42.7,0,1.57-.18,3.15-.18,2.62,0,3,1.4,3.32,8.57.52,8,.7,17.65.7,28.14,0,8.56-.18,17.65-.7,26.91-.18,4.72-.7,10.31-3.32,10.31-.35,0-2.27-.35-2.62-.35-3.32,0-4.72,2.63-4.72,5.42s1.4,5.59,4.72,5.59c6.64-.17,14.15-.35,22.19-.35,9.26,0,27.27.53,32.68.53a5.82,5.82,0,0,0,5.6-5.94c0-4-2.28-5.6-5.6-5.6a59.79,59.79,0,0,1-8.73.7c-6.12,0-7.69-2.27-7.69-18.35,0-28,4.89-39.5,9.08-39.5,2.1,0,2.28,1.58,3.15,4.2,1.92,6.46,5.94,7.69,11.71,7.69,10.31,0,13.28-10.14,13.28-22C341.08,430.12,335,425.93,326.58,425.93Z"/><path class="cls-3" d="M452.41,511.91c-.35,0-1.22.18-1.92.18-3.67,0-3.67-3-4-10-.53-8.39-.35-18-.35-26.57,0-19.05.87-37.05.87-43.52,0-3.14-1.92-4.37-5.24-4.37-6.47,0-12.93.7-19.4.7-5.94,0-12.93-.7-18.88-.7-3.32,0-4.71,1.75-4.71,5.42,0,2.62,1.39,5.42,4.71,5.42.53,0,1.93-.35,3-.35,4.54,0,5.41,3.5,5.41,10.31v21c0,20.8-6.64,32.86-16.25,32.86-7.52,0-10-5.07-10-15.55,0-20.8,3.49-41.95,3.49-51.74,0-6.64-3-7.34-7.34-7.34-5.07,0-10.13.88-14.85.88-6.82,0-15-.88-18.53-.88-4.54,0-5.24,2.45-5.24,5.07s.7,5.42,5.24,5.42c.88,0,2.1-.17,4.2-.17,2.79,0,3.49,1.74,3.49,10.66,0,14.68-3.67,32.15-3.67,43.16,0,23.07,6.29,32.86,27.61,32.86,18.53,0,30.24-9.44,33.39-25.86.35-1.93,1.22-2.8,3-2.8a2.52,2.52,0,0,1,2.62,2.8c0,6.64-1.4,13.28-1.4,18.7,0,3.84,1.75,5.41,4.72,5.41,4,0,7.86-.7,12.06-.7,6.81,0,16.25.7,18,.7,3.32,0,4.72-2.62,4.72-5.24C457.13,514.71,455.73,511.91,452.41,511.91Z"/><path class="cls-3" d="M519.52,463.68c-24.64-6.12-28.66-11.89-28.66-18,0-6.65,4.89-10.49,16.95-10.49,9.79,0,12.41,1.92,12.41,4.89,0,1.23-.87,2.1-2.45,3a7.13,7.13,0,0,0-4.19,6.65c0,6.81,7.34,9.78,17.65,9.78S547,454.76,547,446.72c0-13.1-14-21.67-41.07-21.67-30.06,0-41.07,13.81-41.07,30.24,0,18.17,11.36,25,27.79,30.23,20.44,6.47,28.13,9.27,28.13,18.53,0,7-6.11,9.79-17.47,9.79-9.62,0-13.29-1.75-13.29-4.37,0-1.23.7-1.93,2.8-3.15s3.15-3.32,3.15-7c0-5.94-7-10.14-17-10.14-11.36,0-17.3,4.9-17.3,13.29,0,12.4,9.79,23.07,44.57,23.07,28.83,0,43.87-10.49,43.87-30.07C550.11,481.33,544.34,469.79,519.52,463.68Z"/><path class="cls-3" d="M665.8,512.44c-.52,0-2.1.17-2.62.17-4.55,0-6.64-3.49-6.64-9.79,0-9.61,2.09-30.23,2.09-42.11,0-22.55-5.94-34.78-29-34.78-17.65,0-28.31,8.56-31.28,25.16-.35,1.93-1.22,3-2.62,3a2.67,2.67,0,0,1-3-3c0-16.25,7.86-29.71,7.86-42.64,0-5.59-1.22-7.34-6.47-7.34-6.81,0-19.92,5.42-35.12,5.42-3.67,0-5.42,3-5.42,5.94s1.57,5.24,4.54,5.24c1.05,0,2.1-.17,3-.17,3.5,0,4.2,1,4.55,6.81.7,15.56.87,29.71.87,44.92,0,10.49-.17,21.85-.35,36.18-.17,3.14-.52,6.81-2.79,6.81-.53,0-3.15-.17-3.67-.17-3,0-4.37,2.62-4.37,5.42,0,2.62,1.39,5.41,4.37,5.41,6.46,0,14.5-.35,23.06-.35,9.27,0,18.88.18,25.17.35,3.15,0,4.89-2.79,4.89-5.41,0-2.8-1.74-5.42-4.89-5.42-.7,0-3.32.17-3.84.17-2.28,0-4.2-1.92-4.2-6.64v-7.86c0-8.74.18-17.31,1.05-27.27,1.4-16.6,6.29-22.37,14.86-22.37,6.81,0,9.26,5.94,9.26,12.06,0,12.58-1.22,34.95-1.22,50.68,0,7.52,1.92,12.06,8.21,12.06,5.07-.17,9.79-.7,14.33-.7,6.47,0,14.33.53,19.4.7,2.8,0,4.2-2.62,4.2-4.89C670,515.06,668.6,512.44,665.8,512.44Z"/></g></g></svg>