<svg xmlns="http://www.w3.org/2000/svg" viewBox="0 0 640 640"><defs><style>.cls-1{fill:#631ed1;}.cls-2{fill:#fff;}.cls-3{fill:#1affff;}</style></defs><g id="Camada_2" data-name="Camada 2"><g id="Camada_1-2" data-name="Camada 1"><circle class="cls-1" cx="320" cy="320" r="320"/><rect class="cls-2" x="259.73" y="285.68" width="15" height="55.25"/><rect class="cls-2" x="424.74" y="300.68" width="15" height="40.25"/><path class="cls-2" d="M465.19,299.58c-11.68,0-19.73,8.28-19.73,20.36v21h15V319.78c0-4,1.74-6.39,4.74-6.39s4.73,2.37,4.73,6.39v21.15h15v-21C484.92,307.86,476.87,299.58,465.19,299.58Z"/><path class="cls-2" d="M540.72,291.9a8,8,0,1,0,0,16,8,8,0,0,0,0-16Z"/><path class="cls-2" d="M511.43,299.58c-12.31,0-21.7,9.15-21.7,21.23s8.21,21.07,19.18,21.07a13.44,13.44,0,0,0,10.18-4.1c-.4,5.21-4.66,8.84-10.74,8.84a18.18,18.18,0,0,1-10.41-3.56v13.66a22.75,22.75,0,0,0,11,2.76c14.05,0,24.15-10.5,24.15-25.18V322.7C533.06,309.28,524,299.58,511.43,299.58Zm0,29.37a8,8,0,1,1,8-8A7.82,7.82,0,0,1,511.43,329Z"/><path class="cls-2" d="M405.27,302.34a13.64,13.64,0,0,0-8.76-2.76c-11.52,0-20.28,9.15-20.28,21.23S385.7,342,398.17,342s21.39-9.71,21.39-23.13V285.68H405.27Zm-7.34,26.32a8,8,0,1,1,8-8A7.82,7.82,0,0,1,397.93,328.66Z"/><path class="cls-2" d="M350.18,299.59c-12.48,0-21.95,9.16-21.95,21.23s8.76,21.23,20.29,21.23a12.39,12.39,0,0,0,8.76-3.63v2.63h14.28V322.72C371.56,309.3,362.57,299.59,350.18,299.59Zm-.24,29.24a8,8,0,1,1,8-8A7.82,7.82,0,0,1,349.94,328.83Z"/><path class="cls-2" d="M301.49,299.64c-12.47,0-21.94,9.16-21.94,21.23s9.47,21.24,21.94,21.24,21.94-9.16,21.94-21.24S314,299.64,301.49,299.64Zm0,29.25a8,8,0,1,1,8-8A7.83,7.83,0,0,1,301.53,328.89Z"/><path class="cls-3" d="M91.31,296v48a24,24,0,0,0,24,24V353a9,9,0,0,1-9-9V296a9,9,0,0,1,9-9V272A24,24,0,0,0,91.31,296Z"/><path class="cls-3" d="M220.44,272v15a9,9,0,0,1,9,9v48a9,9,0,0,1-9,9v15a24,24,0,0,0,24-24V296A24,24,0,0,0,220.44,272Z"/><path class="cls-3" d="M144.37,287.34a22.81,22.81,0,0,0-22.81,22.81v34.22h14.26V310.15a8.56,8.56,0,1,1,8.55,8.55V333a8.55,8.55,0,0,1,8.56,8.55v2.86h14.25v-2.86a22.75,22.75,0,0,0-6.25-15.68,22.81,22.81,0,0,0-16.56-38.49Z"/><path class="cls-3" d="M192.85,324.41h22.81V310.15a22.82,22.82,0,0,0-45.63,0v11.4a22.82,22.82,0,0,0,22.82,22.82h22.81V330.11H192.85a8.56,8.56,0,0,1-8.56-8.56v-11.4a8.56,8.56,0,1,1,17.11,0h-8.55Z"/></g></g></svg>