<svg xmlns="http://www.w3.org/2000/svg" xmlns:xlink="http://www.w3.org/1999/xlink" viewBox="0 0 404.25 404.25"><defs><style>.cls-1{fill:none;}.cls-2{fill:#fff;}.cls-3{clip-path:url(#clip-path);}.cls-4{fill:url(#linear-gradient);}.cls-5{clip-path:url(#clip-path-2);}.cls-6{fill:url(#linear-gradient-2);}.cls-7{fill:silver;}.cls-8{fill:#1d1d1b;}</style><clipPath id="clip-path"><path class="cls-1" d="M171.56,232.71V172.12c0-2.54,1.39-3.94,3.94-3.94h68.16c2.53,0,3.94,1.4,3.94,3.94v60.59h0c0,2.54-1.4,3.94-3.94,3.94H175.5c-2.54,0-3.94-1.4-3.94-3.94m58.92-109.48a5,5,0,0,0,.61,2.26l-19.57,32.79c-.69-.08-1.5-.16-2.26-.18l-12.72-23.2A4.87,4.87,0,0,0,197.6,132a4.93,4.93,0,0,0-9.86,0,4.86,4.86,0,0,0,4,4.74L204,159.07a14.23,14.23,0,0,0-3.32,1.85H175.5c-6.6,0-11.21,4.61-11.21,11.21v60.59c0,6.6,4.62,11.21,11.21,11.21h68.16c6.6,0,11.21-4.61,11.21-11.21V172.13c0-6.6-4.62-11.21-11.21-11.21H218.49a15.37,15.37,0,0,0-1.9-1.17l18.86-31.59a4.93,4.93,0,1,0-5-4.93"/></clipPath><linearGradient id="linear-gradient" x1="-1271.19" y1="388.29" x2="-1270.19" y2="388.29" gradientTransform="matrix(0, 125.63, 125.63, 0, -48572.49, 159822.93)" gradientUnits="userSpaceOnUse"><stop offset="0" stop-color="#d60911"/><stop offset="1" stop-color="#114785"/></linearGradient><clipPath id="clip-path-2"><path class="cls-1" d="M198,181.82a3.57,3.57,0,0,0-1.79,3.1v33.32a3.61,3.61,0,0,0,1.79,3.1,3.15,3.15,0,0,0,1.79.47,3.19,3.19,0,0,0,1.79-.47l28.51-16.65a3.6,3.6,0,0,0,1.79-3.11,3.54,3.54,0,0,0-1.69-3.11l-28.61-16.65a3.94,3.94,0,0,0-3.58,0"/></clipPath><linearGradient id="linear-gradient-2" x1="-1266.08" y1="406.39" x2="-1265.08" y2="406.39" gradientTransform="matrix(0, 40.42, 40.42, 0, -16212.24, 51356.38)" xlink:href="#linear-gradient"/></defs><g id="Layer_2" data-name="Layer 2"><g id="Layer_1-2" data-name="Layer 1"><circle class="cls-2" cx="202.12" cy="202.12" r="202.12"/><g class="cls-3"><rect class="cls-4" x="164.29" y="118.3" width="90.58" height="125.63"/></g><g class="cls-5"><rect class="cls-6" x="196.21" y="181.39" width="35.67" height="40.42"/></g><path class="cls-7" d="M96.11,185.85H78.45v51.24H63.88V185.85H46.21V174.3h49.9Z"/><path class="cls-7" d="M158.16,174.3,133,237.09H119.81L94.65,174.3h11.72a4.94,4.94,0,0,1,3.06.89,5.62,5.62,0,0,1,1.76,2.26l12.16,33.61c.57,1.46,1.13,3.07,1.68,4.8s1.06,3.56,1.55,5.46q.6-2.85,1.35-5.46c.51-1.73,1-3.34,1.62-4.8l12.07-33.61a5.17,5.17,0,0,1,1.7-2.18,4.79,4.79,0,0,1,3-1Z"/><path class="cls-8" d="M265.22,215.88c0,5.22,1.88,9.36,5.68,9.36,3.3,0,5-2.1,6.2-3.8l1.08.77c-1.67,2.65-3.83,5.06-8,5.06-5.8,0-9.72-5-9.72-11.23s3.58-11.3,10.25-11.3c3.09,0,7.13,1.42,7.13,3.33a2.72,2.72,0,0,1-.34,1.21l-1.85,3.58-1.11-.34.27-1.92a8.08,8.08,0,0,0,.13-1.42c0-1.51-1.64-3-4.23-3-3.77,0-5.46,4.51-5.46,9.69"/><path class="cls-8" d="M285.44,210.91a8.18,8.18,0,1,1-8.19,8.18,7.91,7.91,0,0,1,8.19-8.18m0,15.07c2.37,0,3.42-3.09,3.42-6.89s-1.05-6.88-3.42-6.88S282,215.3,282,219.09s1,6.89,3.43,6.89"/><path class="cls-8" d="M306.83,212.67v10.71c0,1.11.58,1.79,1.45,1.79a3.59,3.59,0,0,0,2.1-.89l.55.74a7.26,7.26,0,0,1-4.94,2.25c-2.62,0-3.79-1.7-3.79-4.54v-8.67a13.11,13.11,0,0,1-3.52.8,16.35,16.35,0,0,1-1.64,5.68l-1.26-.37a15,15,0,0,0,.92-5.21,2.43,2.43,0,0,1-2.62-2.38,2.36,2.36,0,0,1,2.38-2.38,2.4,2.4,0,0,1,2.37,2.53h.59c3.52,0,5.37-1.82,6.48-1.82.74,0,.93.68.93,1.76"/><path class="cls-8" d="M321.12,215.2a2.32,2.32,0,0,0-2.38-2.62c-1.45,0-3.49,2.07-3.49,6.51,0,3.46,1.33,6.27,4.05,6.27a6.73,6.73,0,0,0,5-2.32l.86.56a7.77,7.77,0,0,1-6.66,3.67,7.91,7.91,0,0,1-8.06-8.18c0-4.5,3.06-8.18,8.8-8.18,3.79,0,5.8,2.1,5.8,4.32,0,2.6-2.29,5.41-6.24,5.41a8.24,8.24,0,0,1-1.85-.22l-.06-.74a4.47,4.47,0,0,0,4.2-4.48"/><path class="cls-8" d="M325.81,213a7.37,7.37,0,0,1,5.16-2c1.51,0,2.9.5,2.9,2.5v10c0,1.11.58,1.79,1.45,1.79a3.52,3.52,0,0,0,2.1-.89l.55.74a7.26,7.26,0,0,1-4.94,2.25c-2.62,0-3.79-1.7-3.79-4.53V212.39a4.88,4.88,0,0,0-2.59,1.52Zm5.74-9.29a2.47,2.47,0,1,1-2.47,2.47,2.48,2.48,0,0,1,2.47-2.47"/><path class="cls-8" d="M353.93,223.38c0,1.11.59,1.79,1.45,1.79a3.5,3.5,0,0,0,2.1-.89l.56.74a7.28,7.28,0,0,1-4.94,2.25,3.33,3.33,0,0,1-3.61-2.75,5.23,5.23,0,0,1-4.73,2.75c-5,0-7.25-3.67-7.25-8.18s2.59-8.18,7.56-8.18a4.86,4.86,0,0,1,4.23,2.19v-1.72h4.63Zm-8.15,2.13c2.44,0,3.68-2.62,3.68-6.42s-1.24-6.42-3.68-6.42-3.48,2.63-3.48,6.42,1.08,6.42,3.48,6.42"/><path class="cls-8" d="M265.3,190.25c0,5.21,1.89,9.35,5.68,9.35,3.3,0,5-2.1,6.21-3.8l1.08.77c-1.67,2.66-3.83,5.07-8,5.07-5.8,0-9.72-5-9.72-11.24s3.58-11.3,10.25-11.3c3.08,0,7.13,1.42,7.13,3.34a2.81,2.81,0,0,1-.34,1.2l-1.86,3.58-1.11-.34.28-1.91a9.1,9.1,0,0,0,.12-1.42c0-1.52-1.63-3-4.22-3-3.77,0-5.47,4.51-5.47,9.7"/><path class="cls-8" d="M278.42,179.6a7.32,7.32,0,0,1,5.16-2c1.51,0,2.9.8,2.9,1.88v18.31c0,1.11.58,1.79,1.45,1.79a3.54,3.54,0,0,0,2.1-.9l.55.74a7.23,7.23,0,0,1-4.94,2.26c-2.62,0-3.79-1.7-3.79-4.54V179a4.87,4.87,0,0,0-2.59,1.51Z"/><path class="cls-8" d="M296,197.75a1.91,1.91,0,0,0,2.07,2,3.15,3.15,0,0,0,3.18-3.11v-10.9h4.63v12c0,1.11.59,1.79,1.45,1.79a3.52,3.52,0,0,0,2.1-.9l.56.74a7.25,7.25,0,0,1-4.94,2.26,3.36,3.36,0,0,1-3.49-2.29,6.93,6.93,0,0,1-5.74,2.29,4.21,4.21,0,0,1-4.45-4.54V186.76a4.91,4.91,0,0,0-2.59,1.51l-.83-1a7.33,7.33,0,0,1,5.15-2c1.52,0,2.9.8,2.9,1.88Z"/><path class="cls-8" d="M314.91,187.71a5.24,5.24,0,0,1,4.54-2.43c5,0,7.25,3.67,7.25,8.18s-2.59,8.18-7.56,8.18a4.85,4.85,0,0,1-4.23-2.2v1.73h-4.63V179a4.87,4.87,0,0,0-2.59,1.51l-.84-1a7.32,7.32,0,0,1,5.16-2c1.51,0,2.9.8,2.9,1.88Zm3.52-.67c-2.44,0-3.68,2.62-3.68,6.42s1.24,6.42,3.68,6.42,3.48-2.63,3.48-6.42-1.08-6.42-3.48-6.42"/><path class="cls-8" d="M338.27,189.57a2.32,2.32,0,0,0-2.37-2.63c-1.45,0-3.49,2.07-3.49,6.52,0,3.45,1.33,6.26,4,6.26a6.73,6.73,0,0,0,5-2.31l.86.55a7.8,7.8,0,0,1-6.67,3.68,7.91,7.91,0,0,1-8.05-8.18c0-4.51,3.05-8.18,8.79-8.18,3.8,0,5.81,2.1,5.81,4.32,0,2.59-2.29,5.4-6.24,5.4a7.64,7.64,0,0,1-1.85-.22l-.06-.74a4.45,4.45,0,0,0,4.19-4.47"/></g></g></svg>